<?xml version="1.0" encoding="utf-8"?>
<!-- Generator: Adobe Illustrator 19.0.0, SVG Export Plug-In . SVG Version: 6.00 Build 0)  -->
<svg version="1.1" id="Capa_1" xmlns="http://www.w3.org/2000/svg" xmlns:xlink="http://www.w3.org/1999/xlink" x="0px" y="0px"
	 viewBox="-70.3 118.4 25.6 20.2" style="enable-background:new -70.3 118.4 25.6 20.2;" xml:space="preserve">
<path d="M-69.3,129.5h21.2l-7.4,7.4c-0.4,0.4-0.4,1,0,1.4s1,0.4,1.4,0l9.1-9.1c0.1-0.1,0.2-0.2,0.2-0.3c0.1-0.2,0.1-0.5,0-0.8
	c-0.1-0.1-0.1-0.2-0.2-0.3l-9.1-9.1c-0.4-0.4-1-0.4-1.4,0s-0.4,1,0,1.4l7.4,7.4h-21.2c-0.3,0-0.5,0.1-0.7,0.3
	c-0.2,0.2-0.3,0.4-0.3,0.7C-70.3,129.1-69.9,129.5-69.3,129.5z"/>
</svg>
