<?xml version="1.0" encoding="utf-8"?>
<!-- Generator: Adobe Illustrator 19.0.0, SVG Export Plug-In . SVG Version: 6.00 Build 0)  -->
<svg version="1.1" id="Logo" xmlns="http://www.w3.org/2000/svg" xmlns:xlink="http://www.w3.org/1999/xlink" x="0px" y="0px"
	 viewBox="91.7 6.1 547 245.9" style="enable-background:new 91.7 6.1 547 245.9;" xml:space="preserve">
<style type="text/css">
	.st0{fill:#FA7346;}
	.st1{fill:#14AED2;}
</style>
<path class="st0" d="M121.1,221.4c1.6,0.1,3.3,0.2,4.9,0.7c3.7,1,5.1,3,4.5,6.8c-0.8,5.8-6.5,9.6-11.7,7.9c-3-1-5.2-3.8-5.6-6.2
	C113,229.4,111.2,220.4,121.1,221.4z"/>
<path class="st0" d="M274.9,116.2c0.7-0.9,9.4-14.8,27.5-13.2c3,0.2,6,0.6,8.9,1.6c8.1,2.8,12.7,8.5,14.3,16.8
	c0.5,2.5,0.7,5,0.7,7.5c0,14.2-0.1,45.2-0.4,46.5c-0.8,3.8-3.1,6-6.9,6.8c-2.1,0.5-4.3,0.4-6.4,0.1c-4.3-0.8-6.9-3.6-7.4-7.8
	c-0.1-1.1-0.2-28.6-0.2-41.2c0-2.3-0.7-14.4-13.6-12.6c-7.9,1.2-13.3,7.6-13.3,15.7c-0.1,11.8-0.1,37.9-0.3,39.1
	c-0.9,4.3-3.8,6.8-8.3,7.1c-1.6,0.1-3.2,0.2-4.8-0.1c-4.7-0.9-7.4-3.9-7.7-8.7c-0.1-0.9-0.1-27-0.1-39c0-2.1,0.3-15.8-13.5-14.1
	c-8.2,1.2-13.4,7.7-13.5,16.4c0,11.4,0,36.7-0.2,37.9c-0.8,4.5-3.1,6.8-7.6,7.6c-2.1,0.4-4.3,0.3-6.4-0.2c-4.2-1-6.5-4-6.9-8.7
	c0-0.4,0-40.4,0-60c0-2.9,0.6-5.7,2.8-7.8c3.2-3.1,7.1-3.5,11.1-2.1c3.8,1.3,5.6,4.4,6,8.3c0.1,1.4,0.2,4,0.2,4.1
	c1.9-2.8,4.1-5.3,6.9-7.2c8.1-5.7,17.1-7.7,26.6-4.7C272.2,107.4,274.9,116.2,274.9,116.2z"/>
<path class="st0" d="M555.6,168.5c-3.7,4.8-8.4,7.9-14.1,9.3c-8.8,2.1-17.2,0.8-25-3.5c-8-4.5-12.5-11.7-14.3-20.5
	c-2.3-11-1.5-21.9,3.2-32.3c5.1-11.2,13.9-17.4,26.3-18.4c7.1-0.6,13.7,0.9,19.4,5.4c2.4,1.9,4.2,4.3,5.7,7.2
	c0.3-0.5,0.2-4.4,0.5-5.8c0.9-4.2,3.7-6.5,8.4-6.9c1.3-0.1,2.6,0,3.8,0.3c4.2,0.9,6.4,3.8,6.6,8.7c0,0.6,0,42.3,0,62.5
	c0,5.2-0.6,10.3-2.3,15.2c-3.3,9.7-9.7,16.4-19.4,19.6c-12.8,4.2-25.5,3.5-37.8-2.2c-3.1-1.5-5.9-3.5-8-6.4c-2-2.7-2.7-5.8-1.8-9.1
	c1.6-5.6,7.9-8,13.2-5.1c2.2,1.2,3.9,3,5.8,4.6c2.3,2,4.8,3.8,7.8,4.5c4.6,0.9,9.1,0.6,13.4-1.3c3.2-1.4,5.2-3.9,6.6-7
	C555.4,183.1,556.4,173.4,555.6,168.5z M555.8,141c0.4-13.2-5.3-21.3-14.3-21.5c-7.8-0.6-14.4,2.2-17.3,10.5c-2.2,6.4-2.6,13-1,19.6
	c1.9,7.5,6.9,12.9,15,13.3c6.7,0.4,12.6-3,15.3-9.1C555.3,149.9,555.8,145.7,555.8,141z"/>
<path class="st0" d="M466,170.6c-10.6,10.2-20.8,13.2-33.1,11.5c-8.9-1.2-15.7-5.9-18.7-14.8c-4-11.8,1.7-23.1,13.7-27.6
	c13.8-4.8,22.2-3,31.1-5.3c4-1,5.3-2.5,5.7-5.7c0.5-3.4-0.6-6.1-3.5-7.9c-2.1-1.3-4.5-1.9-6.9-2.1c-7-0.7-13.2,1-18.3,6.2
	c-1.4,1.4-2.8,2.9-4.5,4c-5.1,3.2-12.1,0.5-13.4-5.3c-0.5-2.2,0-4.2,1-6.2c1.7-3.5,4.5-6.1,7.7-8.2c5.2-3.4,11.1-5.1,17.2-5.8
	c8.1-1,16.2-0.6,24.2,1.4c5.2,1.3,10,3.5,13.7,7.7c2.5,2.9,3.8,6.4,4.1,10.3c0.1,1,0.1,26.8,0.2,38.6c0,3.4,0.6,6.8,1.6,10
	c2.1,6.5-2.7,10.6-7.8,11.1c-1.7,0.2-3.4,0.1-5.1-0.3C466.2,179.9,466.8,172.2,466,170.6z M464.9,145c-2.2,1.8-4.6,2.5-7,2.9
	c-3.6,0.6-7.2,1.1-10.7,1.7c-3.2,0.5-6.4,1.2-9.1,3.1c-3.2,2.2-4.6,6.3-3.2,9.9c1.4,3.3,4.1,5.1,7.5,5.7c6.1,1.1,11.8,0,16.8-3.9
	c3-2.3,4.8-5.3,5.4-9.1C465.1,152,464.6,148.7,464.9,145z"/>
<path class="st0" d="M371.4,160.3c0.5-0.2,9.4-34.5,13-47.9c0.4-1.4,0.9-2.7,1.5-4c2.2-4.3,5.7-6,10.9-5.3c4.1,0.6,7.5,3.8,8.5,7.9
	c0.4,1.8,0.1,3.5-0.5,5.2c-2.4,6.9-20,57-26.4,75.1c-1.5,4.2-3.4,8.3-6.2,11.8c-3.7,4.7-8.5,7.1-14.4,7.5c-3,0.2-6,0.1-8.9-0.8
	c-5-1.6-7.6-5.4-7-10.3c0.5-3.8,3.3-6.4,7.4-7c1.7-0.2,3.4-0.2,5.1-0.2c3.5-0.1,6.5-3.1,6.5-6.5c0-0.5-0.3-1.1-0.5-1.6
	c-7.5-21.5-15.1-42.9-22.6-64.4c-0.7-2.1-1.5-4.2-1.6-6.5c-0.2-6.2,5-11,11.1-10.5c5.5,0.5,8.8,3.3,10.2,8.6
	C361.9,127.4,370.9,160.5,371.4,160.3z"/>
<path class="st0" d="M615.3,171.1c0,1.4,0,2.7-0.3,4.1c-0.7,3.9-3.2,6.4-7.1,7.2c-1.9,0.4-3.9,0.4-5.8,0.1c-5-0.9-7.7-3.9-7.9-9
	c0-0.7,0-40.1,0-59.1c0-1.5,0-3,0.4-4.4c0.9-3.6,3.1-5.8,6.7-6.6c2.5-0.6,5-0.5,7.5,0.1c4,1,6.5,4.3,6.6,8.9
	C615.5,118,615.3,161.7,615.3,171.1z"/>
<path class="st0" d="M604.8,73.8c6.1,0,11,4.9,11,11.1c0,6-5,11-11,11c-6.1,0-11-5-11-11.1C593.7,78.6,598.6,73.7,604.8,73.8z"/>
<path class="st0" d="M192.7,229.8c0,5.1-4.2,8.7-9.4,8.2c-4.2-0.4-7.9-3.5-9.2-7.4c-0.7-2.2-0.2-4.1,1.7-5.4
	c3.4-2.2,7.1-3.5,11.2-3.2C191.5,222.4,192.7,227.8,192.7,229.8z"/>
<path class="st0" d="M186.6,212.1c-9.9-33.9-30.4-102.8-30.6-106.3s10-48.2,14.6-69.7c0.6-2.8,1.6-5.6,1.4-8.5
	c-0.1-2-1.1-3.2-2.9-3.7c-1.9-0.6-3.4-0.1-4.5,1.6c-0.7,1.1-1.2,2.3-1.5,3.6l-13.6,55.7c-2-6.8-10.1-35.1-12.2-42.1
	c-0.7-2.3-3.8-12.8-4.7-13.9c-1.3-1.5-3.2-2-5.1-1.3c-1.6,0.6-2.3,1.8-2.2,4c0,0.6,0.1,1.2,0.2,1.8c1.3,5.1,2.6,10.3,3.9,15.4
	c0,0,0,0,0,0c3.8,14.8,15.1,57,15,57.6c-0.1,0.6-20.5,85.3-25.2,104.8c-0.6,2.2-0.1,4.1,1.5,5.7c2,2,4.5,2.5,7.2,1.7
	c2.7-0.8,4.4-2.5,5-5.3c5.8-27.4,17.5-82.1,17.9-83.1c5.8,22.2,20.8,79.4,22.5,85.6c1.1,3.8,5.1,5.9,9.1,4.7
	C186.1,219.3,187.8,216.1,186.6,212.1z"/>
<path class="st1" d="M134.6,34c0.8,0,1.4,0.7,1.8,1.2c1.4,2.1,3.4,2.9,5.8,2.8c1.3-0.1,2.3,0.4,2.9,1.5c0.4,0.7,0.6,0.6,1.2,0.1
	c2-1.7,1.7-3.9,1.4-6c-0.3-1.8-0.2-3.4,0.9-4.9c1-1.4,1.1-2.8,0.6-4.4c-0.4-1.3-0.9-2.7-0.6-4.2c0.2,0,0.3,0,0.5,0
	c0.2,0.8,0.4,1.6,0.6,2.4c0.7,2.5,1,5-0.8,7.3c-0.7,0.9-0.6,2.1-0.5,3.2c0.2,1.2,0.3,2.4,0.5,3.7c0.6-0.1,1.1-0.6,1.6-0.9
	c0.3-0.2,0.2-0.4,0.1-0.7c-0.9-1.9-0.7-2.9,0.6-4.2c1.3-1.3,2.5-1.5,4.2-0.6c0.5,0.2,0.5,0.2,0.7-0.3c0.2-0.5,0.6-1.3,0.7-2
	c0-0.2,0-0.5,0.3-0.4c0.3,0,0.5,0.2,0.8,0.3c0.3,0.2,0.1,0.4,0,0.6c-0.6,0.7-1,1.5-1.2,2.4c1.3,0,2.8,1.5,3,2.9
	c0.3,1.4-0.7,3.2-2.2,3.8c-0.4,0.2-1-0.1-1.1,0.5c0,0.6,0.1,1.2,0.3,1.8s0.5,0.1,0.7-0.1c1.3-1.1,2.6-2.2,3.9-3.2l-0.4,1.6
	c-1.9,1.6-4.7,2.6-4.4,5.9c0,0.7,0.1,0.8,0.7,0.8c0.7,0,1.3-0.3,2,0.1c-0.1,0.4-0.2,0.7-0.3,1.1c-0.8-0.6-1.5-0.2-2.5-0.2
	c0.7,1.2,1.2,2.1,1.7,3.2l-4,16.3c-0.8-0.6-1.3-1.6-2.3-2.2c-0.7,1.6-0.9,3.2-0.6,4.8c0.3,1.7,1,3,1.1,4.7l-0.3,1.1
	c-0.5,0-0.4-0.4-0.5-0.8c-0.1-0.5-0.2-1-0.3-1.5c-0.7-2.9-1.5-5.8,0-8.7c0.2-0.3,0.1-0.6-0.1-0.9c-0.7-1-1.3-2.1-2-3.1
	c-1.7,2.1-3.1,4.3-5.5,5.5c-2.5,0.1-3.7-0.9-3.7-3.5c0-0.9,0.6-4.9,0.5-5.5c-0.6-0.7-1.8,0.3-2.8,0.3c-0.9,0-1.3,0.5-1.7,1.2
	c-0.8,1.5-1.6,3.1-3.4,3.9c-1.2,0.7-2.4,1.5-3.7,2.2c-0.4,0.2-0.9,0.8-1.2,0.3c-0.3-0.4,0.4-0.8,0.8-1.1c1.1-0.7,2.2-1.4,3.4-2
	c0.2-0.1,0.4-0.3,0.6-0.4c1.7-0.6,1.9-2.4,2.7-4c-1.5,0-2.8,0-4.1,0c-1-0.1-2.1-0.2-3.1-0.8c-1.4-0.8-1.3-1.7-0.6-3.1
	c0.6-1.1,1.2-2.1,2-3.1c2.3-2.4,4.9-4.2,8-5.6c2.4-1,5-1.6,7.6-2c-0.7-1.3-1.6-1.9-3-2c-2.2-0.1-4.3-0.6-5.7-2.6
	c-0.2-0.3-0.8-0.8-1.2-0.8C134.5,35.1,134.1,34.8,134.6,34z"/>
</svg>
