<?xml version="1.0" encoding="utf-8"?>
<!-- Generator: Adobe Illustrator 19.0.0, SVG Export Plug-In . SVG Version: 6.00 Build 0)  -->
<svg version="1.1" id="Logo" xmlns="http://www.w3.org/2000/svg" xmlns:xlink="http://www.w3.org/1999/xlink" x="0px" y="0px"
	 viewBox="148.7 9.9 82.7 219.8" style="enable-background:new 148.7 9.9 82.7 219.8;" xml:space="preserve">
<style type="text/css">
	.st0{fill:#05A0C6;}
	.st1{fill:#F36C44;}
</style>
<path class="st0" d="M172,24.9c0.8,0,1.3,0.7,1.7,1.2c1.4,2.1,3.4,2.9,5.8,2.8c1.3-0.1,2.3,0.4,2.9,1.5c0.4,0.7,0.6,0.6,1.2,0.1
	c2-1.7,1.7-3.9,1.4-6c-0.3-1.8-0.2-3.4,0.9-4.9c1-1.4,1.1-2.8,0.6-4.4c-0.4-1.3-0.9-2.7-0.6-4.2c0.2,0,0.3,0,0.5,0
	c0.2,0.8,0.4,1.6,0.6,2.4c0.7,2.5,1,5-0.8,7.3c-0.7,0.9-0.6,2.1-0.5,3.2c0.2,1.2,0.3,2.4,0.5,3.7c0.6-0.1,1.1-0.6,1.6-0.9
	c0.3-0.2,0.2-0.4,0.1-0.7c-0.9-1.9-0.7-2.9,0.6-4.2s2.5-1.5,4.2-0.6c0.5,0.2,0.6,0,0.7-0.3c0.4-0.6,0.6-1.3,0.7-2
	c0-0.2,0-0.5,0.3-0.4c0.3,0,0.5,0.2,0.8,0.3c0.3,0.2,0.1,0.4,0,0.6c-0.6,0.7-1,1.5-1.2,2.4c1.3,0,2.8,1.5,3,2.9
	c0.3,1.4-0.7,3.2-2.2,3.8c-0.4,0.2-1-0.1-1.1,0.5c0,0.6,0.1,1.2,0.3,1.8s0.5,0.1,0.7-0.1c1.3-1.1,2.7-2.2,4-3.2
	c0,0.6-0.1,1.1-0.5,1.6c-1.9,1.6-4.7,2.6-4.4,5.9c0,0.7,0.1,0.8,0.7,0.8c0.7,0,1.5-0.2,2.2,0.2c-0.1,0.4-0.2,0.7-0.3,1.1
	c-0.8-0.6-1.6-0.3-2.6-0.3c0.7,1.2,1.3,2.2,1.8,3.3c-0.3,1.2-0.6,2.5-0.9,3.7c-1,4.2-2.1,8.3-3.1,12.5c-0.8-0.6-1.3-1.6-2.3-2.2
	c-0.7,1.6-0.9,3.2-0.6,4.8c0.3,1.7,1,3.4,1.1,5.1c0,0.2-0.1,0.5-0.1,0.7c-0.5,0-0.6-0.4-0.7-0.8c-0.1-0.5-0.2-1-0.3-1.5
	c-0.7-2.9-1.5-5.8,0-8.7c0.2-0.3,0.1-0.6-0.1-0.9c-0.7-1-1.3-2.1-2-3.1c-1.7,2.1-3.1,4.3-5.5,5.5c-2.5,0.1-3.7-0.9-3.7-3.5
	c0-0.9,0-1.7,0.2-2.6c0.1-1,0.8-2.3,0.3-2.9c-0.6-0.7-1.8,0.3-2.8,0.3c-0.9,0-1.3,0.5-1.7,1.2c-0.8,1.5-1.6,3.1-3.4,3.9
	c-1.2,0.7-2.4,1.5-3.7,2.2c-0.4,0.2-0.9,0.8-1.2,0.3c-0.3-0.4,0.4-0.8,0.8-1.1c1.1-0.7,2.2-1.4,3.4-2c0.2-0.1,0.4-0.3,0.6-0.4
	c1.7-0.6,2.3-2.2,3.1-3.8c-1.5,0-2.8,0-4.1,0c-1-0.2-2.1-0.3-3.1-0.9c-1.4-0.8-1.7-1.8-1-3.2c0.6-1.1,1.4-2,2.1-3
	c2.3-2.4,4.9-4.2,8-5.6c2.4-1,4.9-1.7,7.5-2.1c-0.7-1.3-1.6-1.9-3-2c-2.2-0.1-4.3-0.6-5.7-2.6c-0.2-0.3-0.5-0.7-0.9-0.7
	C172.2,26.1,171.5,25.7,172,24.9z"/>
<path class="st1" d="M150.2,217.3c1.9-4.3,3.3-5.2,8.2-5c1.6,0.1,3.3,0.2,4.9,0.7c3.7,1,5.1,3,4.5,6.8c-0.8,5.8-6.5,9.6-11.7,7.9
	c-3-1-4.8-3.2-5.6-6.2c-0.1-0.3,0-0.6-0.3-0.8C150.2,219.6,150.2,218.5,150.2,217.3z"/>
<path class="st1" d="M189.7,64.6c0-0.2,0.1-0.5,0.1-0.7c0.8-2.6,1.4-5.2,1.9-7.8c1-4.2,2.1-8.3,3.1-12.5c0.3-1.2,0.6-2.5,0.9-3.7
	c0.2-1,0.5-2,0.7-3c0.1-0.4,0.2-0.7,0.3-1.1c0.5-2.3,1.3-4.5,1.5-6.8c0.3-0.5,0.4-1,0.5-1.6c0.6-2.5,1.3-5,1.9-7.5
	c0.3-1.3,0.8-2.5,1.5-3.6c1.1-1.7,2.6-2.2,4.5-1.6c1.8,0.5,2.8,1.7,2.9,3.7c0.2,2.9-0.8,5.7-1.4,8.5c-4.6,21.5-9.2,43.1-13.8,64.6
	c0,0.2-0.1,0.4-0.1,0.6c-1,3.1-0.7,6.1,0.2,9.3c10,33.8,19.8,67.6,29.7,101.5c1.2,4-0.5,7.2-4.2,8.3c-4,1.2-8-0.9-9.1-4.7
	c-1.7-6.2-3.3-12.4-4.9-18.6c-5.8-22.2-11.7-44.4-17.5-66.6c0-0.1-0.1-0.1-0.1-0.2c-0.4,0.2-0.3,0.5-0.4,0.8
	c-5.8,27.4-11.7,54.7-17.5,82.1c-0.6,2.8-2.3,4.5-5,5.3s-5.2,0.3-7.2-1.7c-1.6-1.6-2.1-3.5-1.5-5.7c4.7-19.5,9.4-38.9,14.1-58.4
	c3.7-15.2,7.3-30.3,11-45.5c0.1-0.6,0.2-1.2,0-1.8c-3.9-14.7-7.8-29.5-11.6-44.2c0-0.2-0.1-0.3-0.2-0.4c1.7-0.8,2.5-2.3,3.4-3.9
	c0.4-0.7,0.8-1.2,1.7-1.2c1,0,2.2-0.9,2.8-0.3c0.5,0.6-0.1,1.9-0.3,2.9c-0.1,0.9-0.2,1.7-0.2,2.6c0.1,2.6,1.2,3.6,3.7,3.5
	c2,6.8,3.9,13.6,5.9,20.4c0.1,0,0.1,0,0.2,0C188,71.8,188.8,68.2,189.7,64.6z"/>
<path class="st1" d="M230,220.7c0,5.1-4.2,8.7-9.4,8.2c-4.2-0.4-7.9-3.5-9.2-7.4c-0.7-2.2-0.2-4.1,1.7-5.4c3.4-2.2,7.1-3.5,11.2-3.2
	c1.8,0.1,3.2,1.1,4.1,2.6C229.5,216.9,230,218.7,230,220.7z"/>
<path class="st1" d="M172,24.9c-0.4,0.8,0.3,1.2,0.6,1.7c0.7,2.4,1.4,5.2,2.1,7.6c-3,1.3-5.6,3.3-7.9,5.7c-1.3-5.1-2.7-10.6-4-15.7
	c-0.1-0.6-0.2-1.2-0.2-1.8c-0.1-2.2,0.6-3.4,2.2-4c1.9-0.7,3.8-0.2,5.1,1.3c0.9,1.1,1.4,2.4,1.9,3.7C171.7,24,171.8,24.4,172,24.9z"
	/>
<path class="st1" d="M168.9,46.8c1.3,0,2.6,0,4.1,0c-0.8,1.6-1.4,3.2-3.1,3.8C169.6,49.4,169.2,48.1,168.9,46.8z"/>
</svg>
