<?xml version="1.0" encoding="utf-8"?>
<!-- Generator: Adobe Illustrator 19.0.0, SVG Export Plug-In . SVG Version: 6.00 Build 0)  -->
<svg version="1.1" id="Logo" xmlns="http://www.w3.org/2000/svg" xmlns:xlink="http://www.w3.org/1999/xlink" x="0px" y="0px"
	 viewBox="-485 -30.2 1350 300" style="enable-background:new -485 -30.2 1350 300;" xml:space="preserve">
<style type="text/css">
	.st0{fill:#05A0C6;}
	.st1{fill:#F36C44;}
</style>
<path class="st0" d="M114.8,68.8c0.5-0.5,1.3-0.4,1.9-0.3c2.3,0.5,4.2-0.3,5.7-2c0.8-0.9,1.8-1.3,2.9-0.9c0.7,0.2,0.8,0,0.9-0.7
	c0.2-2.5-1.5-3.7-3.1-4.9c-1.4-1-2.4-2.1-2.7-3.9c-0.3-1.6-1.1-2.6-2.5-3.3c-1.1-0.6-2.4-1.2-3.2-2.4c0.1-0.1,0.2-0.2,0.3-0.3
	c0.7,0.4,1.3,0.8,2,1.2c2.1,1.2,4,2.7,4.3,5.4c0.1,1.1,1,1.8,1.8,2.5c0.9,0.7,1.8,1.4,2.8,2.1c0.3-0.5,0.3-1.1,0.5-1.7
	c0.1-0.3-0.1-0.4-0.4-0.5c-1.9-0.7-2.4-1.5-2.4-3.2c0-1.7,0.7-2.7,2.4-3.2c0.5-0.2,0.4-0.4,0.3-0.7c-0.1-0.7-0.5-1.3-0.9-1.8
	c-0.1-0.1-0.3-0.3-0.1-0.5c0.2-0.2,0.5-0.2,0.7-0.3c0.3-0.1,0.3,0.2,0.4,0.4c0.1,0.9,0.3,1.7,0.8,2.4c0.9-0.9,2.9-0.9,3.9-0.1
	c1.1,0.7,1.7,2.6,1.1,4c-0.1,0.4-0.7,0.6-0.4,1.1c0.4,0.4,0.9,0.7,1.4,1c0.5,0.3,0.4-0.3,0.4-0.5c0.1-1.6,0.3-3.3,0.5-4.8
	c0.4,0.4,0.7,0.8,0.7,1.4c-0.2,2.3-1.4,4.9,1,6.9c0.5,0.5,0.6,0.5,1,0.1c0.5-0.5,0.9-1.1,1.6-1.3c0.2,0.3,0.3,0.6,0.5,0.9
	c-0.9,0.1-1.3,0.9-1.9,1.5c1.3,0.3,2.3,0.6,3.4,1c0.6,1,1.3,2.1,1.9,3.1c2.1,3.5,4.1,6.9,6.3,10.4c-0.9,0.1-1.9-0.2-3,0.1
	c0.6,1.5,1.5,2.7,2.8,3.6c1.3,0.9,2.9,1.6,4.1,2.7c0.1,0.1,0.3,0.4,0.4,0.5c-0.3,0.3-0.7,0.1-1-0.1c-0.4-0.3-0.8-0.5-1.2-0.8
	c-2.4-1.5-4.9-2.9-5.8-5.8c-0.1-0.3-0.3-0.5-0.7-0.5c-1.1-0.2-2.3-0.5-3.4-0.7c0.3,2.5,0.8,4.9,0,7.3c-1.6,1.7-3.1,1.9-4.8,0.1
	c-0.6-0.6-1.1-1.1-1.6-1.9c-0.6-0.7-1-2.1-1.7-2.1c-0.9-0.1-1,1.4-1.7,2.1c-0.6,0.6-0.5,1.2-0.3,1.9c0.5,1.5,1,3.1,0.3,4.9
	c-0.3,1.3-0.6,2.6-1,3.9c-0.1,0.4-0.1,1.1-0.6,1c-0.5-0.1-0.3-0.8-0.2-1.3c0.3-1.2,0.5-2.4,0.9-3.6c0.1-0.2,0.1-0.5,0.1-0.7
	c0.7-1.5,0.1-3-0.5-4.6c-1,1-1.9,1.9-2.7,2.7c-0.8,0.5-1.6,1.2-2.7,1.5c-1.5,0.4-2.3-0.1-2.8-1.5c-0.3-1.1-0.4-2.3-0.6-3.4
	c-0.1-3.1,0.5-6.1,1.6-9.1c0.9-2.3,2.1-4.4,3.6-6.4c-1.3-0.4-2.3-0.2-3.3,0.7c-1.5,1.4-3.3,2.5-5.5,2.1c-0.3-0.1-0.8-0.1-1.1,0.1
	C115.7,69.4,115,69.6,114.8,68.8z"/>
<path class="st1" d="M228.3,211.3c-1.6-4.1-1.3-5.7,2.1-8.8c1.1-1,2.3-2.1,3.7-2.8c3.1-1.8,5.4-1.4,7.5,1.5c3.3,4.4,2.1,10.7-2.5,13
	c-2.7,1.3-5.3,1.1-7.9-0.4c-0.3-0.1-0.4-0.4-0.7-0.3C229.9,212.9,229.1,212.1,228.3,211.3z"/>
<path class="st1" d="M153,83.4c-0.1-0.1-0.3-0.4-0.4-0.5c-1.2-2.3-2.5-4.4-3.9-6.5c-2.1-3.5-4.1-6.9-6.3-10.4
	c-0.6-1-1.3-2.1-1.9-3.1c-0.5-0.8-1-1.7-1.5-2.5c-0.2-0.3-0.3-0.6-0.5-0.9c-1.2-1.9-2.1-3.9-3.5-5.5c-0.1-0.5-0.4-0.9-0.7-1.4
	c-1.3-2.1-2.5-4.2-3.7-6.3c-0.7-1.1-1.1-2.2-1.4-3.4c-0.4-1.9,0.3-3.2,1.9-4.1c1.5-0.9,3-0.7,4.4,0.5c2.1,1.8,3.3,4.3,4.7,6.6
	c11.2,17.4,22.6,34.8,33.8,52.2c0.1,0.1,0.2,0.3,0.3,0.5c1.4,2.7,3.6,4.5,6.3,6.1c29.2,15.8,58.2,31.8,87.3,47.8
	c3.5,1.9,4.5,5.1,2.7,8.3c-1.9,3.5-5.9,4.7-9.2,2.9c-5.3-3-10.5-6.1-15.6-9.1c-18.6-10.9-37.3-21.8-56-32.7c-0.1-0.1-0.1,0-0.2-0.1
	c-0.1,0.4,0.1,0.5,0.3,0.8c14.4,22.1,28.6,44.2,43,66.3c1.5,2.3,1.5,4.5,0.2,6.9c-1.3,2.3-3.3,3.7-5.9,3.7c-2.1,0-3.7-0.9-4.8-2.8
	c-9.9-16.1-19.6-32.2-29.5-48.3c-7.7-12.6-15.3-25-23-37.6c-0.3-0.5-0.7-0.9-1.2-1.2c-12.4-7.2-24.8-14.4-37.1-21.7
	c-0.1-0.1-0.3-0.1-0.4-0.1c0.6-1.7,0.1-3.2-0.3-4.9c-0.2-0.7-0.3-1.3,0.3-1.9c0.7-0.7,0.9-2.1,1.7-2.1c0.7,0.1,1.2,1.3,1.7,2.1
	c0.5,0.7,1,1.3,1.6,1.9c1.8,1.7,3.2,1.6,4.8-0.1c5.9,3.2,11.6,6.5,17.5,9.7c0.1-0.1,0.1-0.1,0.1-0.1C156.6,89.3,154.8,86.4,153,83.4
	z"/>
<path class="st1" d="M283.7,160.5c3.4,3.4,3,8.6-0.8,11.7c-3.1,2.5-7.6,2.9-11,1.2c-1.9-1-2.9-2.6-2.5-4.7c0.8-3.7,2.4-7.1,5.3-9.6
	c1.3-1.1,2.9-1.4,4.5-1C280.8,158.3,282.4,159.2,283.7,160.5z"/>
<path class="st1" d="M114.8,68.8c0.3,0.8,1,0.6,1.5,0.7c2.1,1.1,4.4,2.5,6.5,3.7c-1.1,2.9-1.6,5.9-1.5,9c-4.3-2.5-8.8-5.2-13.1-7.8
	c-0.5-0.3-0.9-0.7-1.3-1.1c-1.5-1.4-1.9-2.7-1.2-4.1c0.8-1.7,2.4-2.7,4.3-2.5c1.3,0.1,2.5,0.7,3.7,1.2
	C114,68.4,114.3,68.6,114.8,68.8z"/>
<path class="st1" d="M127.3,85.4c0.9-0.9,1.7-1.7,2.7-2.7c0.5,1.6,1.2,3.1,0.5,4.6C129.5,86.7,128.3,86.1,127.3,85.4z"/>
</svg>
