<?xml version="1.0" encoding="utf-8"?>
<!-- Generator: Adobe Illustrator 19.0.0, SVG Export Plug-In . SVG Version: 6.00 Build 0)  -->
<svg version="1.1" id="Logo" xmlns="http://www.w3.org/2000/svg" xmlns:xlink="http://www.w3.org/1999/xlink" x="0px" y="0px"
	 viewBox="0 0 503 217.9" style="enable-background:new 0 0 503 217.9;" xml:space="preserve">
<style type="text/css">
	.st0{fill:#05A0C6;}
	.st1{fill:#FFFFFF;}
</style>
<path class="st0" d="M22,14.2c0.8,0,1.3,0.7,1.7,1.2c1.4,2.1,3.4,2.9,5.8,2.8c1.3-0.1,2.3,0.4,2.9,1.5c0.4,0.7,0.6,0.6,1.2,0.1
	c2-1.7,1.7-3.9,1.4-6c-0.3-1.8-0.2-3.4,0.9-4.9c1-1.4,1.1-2.8,0.6-4.4c-0.4-1.3-0.9-2.7-0.6-4.2c0.2,0,0.3,0,0.5,0
	c0.2,0.8,0.4,1.6,0.6,2.4c0.7,2.5,1,5-0.8,7.3c-0.7,0.9-0.6,2.1-0.5,3.2c0.2,1.2,0.3,2.4,0.5,3.7c0.6-0.1,1.1-0.6,1.6-0.9
	c0.3-0.2,0.2-0.4,0.1-0.7c-0.9-1.9-0.7-2.9,0.6-4.2c1.3-1.3,2.5-1.5,4.2-0.6c0.5,0.2,0.6,0,0.7-0.3c0.4-0.6,0.6-1.3,0.7-2
	c0-0.2,0-0.5,0.3-0.4c0.3,0,0.5,0.2,0.8,0.3c0.3,0.2,0.1,0.4,0,0.6c-0.6,0.7-1,1.5-1.2,2.4c1.3,0,2.8,1.5,3,2.9
	c0.3,1.4-0.7,3.2-2.2,3.8c-0.4,0.2-1-0.1-1.1,0.5c0,0.6,0.1,1.2,0.3,1.8c0.2,0.6,0.5,0.1,0.7-0.1c1.3-1.1,2.7-2.2,4-3.2
	c0,0.6-0.1,1.1-0.5,1.6c-1.9,1.6-4.7,2.6-4.4,5.9c0,0.7,0.1,0.8,0.7,0.8c0.7,0,1.5-0.2,2.2,0.2c-0.1,0.4-0.2,0.7-0.3,1.1
	c-0.8-0.6-1.6-0.3-2.6-0.3c0.7,1.2,1.3,2.2,1.8,3.3c-0.3,1.2-0.6,2.5-0.9,3.7c-1,4.2-2.1,8.3-3.1,12.5c-0.8-0.6-1.3-1.6-2.3-2.2
	c-0.7,1.6-0.9,3.2-0.6,4.8c0.3,1.7,1,3.4,1.1,5.1c0,0.2-0.1,0.5-0.1,0.7c-0.5,0-0.6-0.4-0.7-0.8c-0.1-0.5-0.2-1-0.3-1.5
	c-0.7-2.9-1.5-5.8,0-8.7c0.2-0.3,0.1-0.6-0.1-0.9c-0.7-1-1.3-2.1-2-3.1c-1.7,2.1-3.1,4.3-5.5,5.5c-2.5,0.1-3.7-0.9-3.7-3.5
	c0-0.9,0-1.7,0.2-2.6c0.1-1,0.8-2.3,0.3-2.9c-0.6-0.7-1.8,0.3-2.8,0.3c-0.9,0-1.3,0.5-1.7,1.2c-0.8,1.5-1.6,3.1-3.4,3.9
	c-1.2,0.7-2.4,1.5-3.7,2.2c-0.4,0.2-0.9,0.8-1.2,0.3c-0.3-0.4,0.4-0.8,0.8-1.1c1.1-0.7,2.2-1.4,3.4-2c0.2-0.1,0.4-0.3,0.6-0.4
	c1.7-0.6,2.3-2.2,3.1-3.8c-1.5,0-2.8,0-4.1,0c-1-0.2-2.1-0.3-3.1-0.9c-1.4-0.8-1.7-1.8-1-3.2c0.6-1.1,1.4-2,2.1-3
	c2.3-2.4,4.9-4.2,8-5.6c2.4-1,4.9-1.7,7.5-2.1c-0.7-1.3-1.6-1.9-3-2c-2.2-0.1-4.3-0.6-5.7-2.6c-0.2-0.3-0.5-0.7-0.9-0.7
	C22.2,15.4,21.5,15,22,14.2z"/>
<path class="st1" d="M0.2,206.6c1.9-4.3,3.3-5.2,8.2-5c1.6,0.1,3.3,0.2,4.9,0.7c3.7,1,5.1,3,4.5,6.8c-0.8,5.8-6.5,9.6-11.7,7.9
	c-3-1-4.8-3.2-5.6-6.2c-0.1-0.3,0-0.6-0.3-0.8C0.2,208.9,0.2,207.8,0.2,206.6z"/>
<path class="st1" d="M116.3,96.4c1.9-2.8,4-5.3,6.8-7.2c8.1-5.7,16.9-7.7,26.6-4.7c5.6,1.7,9.5,5.5,12,10.8c0.1,0.3,0.3,0.6,0.5,1.1
	c0.7-0.9,1.3-1.7,2-2.5c6.6-8,15.2-11.4,25.5-10.7c3,0.2,6,0.6,8.9,1.6c8.1,2.8,12.7,8.5,14.3,16.8c0.5,2.5,0.7,5,0.7,7.5
	c0,14.2,0,28.4,0,42.6c0,1.3-0.1,2.6-0.4,3.9c-0.8,3.8-3.1,6-6.9,6.8c-2.1,0.5-4.3,0.4-6.4,0.1c-4.3-0.8-6.9-3.6-7.4-7.8
	c-0.1-1.1-0.2-2.2-0.2-3.2c0-12.7,0-25.4,0-38c0-1.4-0.2-2.7-0.5-4c-1.6-6.9-6.8-9.6-13.1-8.6c-7.9,1.2-13.3,7.6-13.3,15.7
	c-0.1,11.8,0,23.6,0,35.4c0,1.2-0.1,2.5-0.3,3.7c-0.9,4.3-3.8,6.8-8.3,7.1c-1.6,0.1-3.2,0.2-4.8-0.1c-4.7-0.9-7.4-3.9-7.7-8.7
	c-0.1-0.9-0.1-1.8-0.1-2.8c0-12.1,0-24.2,0-36.2c0-1.9-0.1-3.8-0.6-5.7c-1.7-6.7-6.8-9.3-12.9-8.4c-8.2,1.2-13.4,7.7-13.5,16.4
	c0,11.4,0,22.9,0,34.3c0,1.2,0,2.4-0.2,3.6c-0.8,4.5-3.1,6.8-7.6,7.6c-2.1,0.4-4.3,0.3-6.4-0.2c-4.2-1-6.5-4-6.9-8.7
	c0-0.4,0-0.9,0-1.3c0-19.6,0-39.1,0-58.7c0-2.9,0.6-5.7,2.8-7.8c3.2-3.1,7.1-3.5,11.1-2.1c3.8,1.3,5.6,4.4,6,8.3
	c0.1,1.4,0,2.8,0,4.3C116.1,96.4,116.2,96.4,116.3,96.4z"/>
<path class="st1" d="M442.9,148.7c-3.7,4.8-8.4,7.9-14.1,9.3c-8.8,2.1-17.2,0.8-25-3.5c-8-4.5-12.5-11.7-14.3-20.5
	c-2.3-11-1.5-21.9,3.2-32.3c5.1-11.2,13.9-17.4,26.3-18.4c7.1-0.6,13.7,0.9,19.4,5.4c2.4,1.9,4.2,4.3,5.7,7.2c0.3-0.5,0.2-1,0.2-1.4
	c0-1.5,0-3,0.3-4.4c0.9-4.2,3.7-6.5,8.4-6.9c1.3-0.1,2.6,0,3.8,0.3c4.2,0.9,6.4,3.8,6.6,8.7c0,0.6,0,1.1,0,1.7c0,20.3,0,40.6,0,60.8
	c0,5.2-0.6,10.3-2.3,15.2c-3.3,9.7-9.7,16.4-19.4,19.6c-12.8,4.2-25.5,3.5-37.8-2.2c-3.1-1.5-5.9-3.5-8-6.4c-2-2.7-2.7-5.8-1.8-9.1
	c1.6-5.6,7.9-8,13.2-5.1c2.2,1.2,3.9,3,5.8,4.6c2.3,2,4.8,3.8,7.8,4.5c4.6,0.9,9.1,0.6,13.4-1.3c3.2-1.4,5.2-3.9,6.6-7
	C442.7,163.3,443.7,153.6,442.9,148.7z M443.1,121.2c0.1-1.6-0.1-3.5-0.3-5.4c-0.2-1.3-0.4-2.5-0.7-3.8c-1.8-7.6-6-11.7-13.3-12.3
	c-7.8-0.6-14.4,2.2-17.3,10.5c-2.2,6.4-2.6,13-1,19.6c1.9,7.5,6.9,12.9,15,13.3c6.7,0.4,12.6-3,15.3-9.1
	C442.6,130.1,443.1,125.9,443.1,121.2z"/>
<path class="st1" d="M39.5,54c0-0.2,0.1-0.5,0.1-0.7c0.8-2.6,1.4-5.2,1.9-7.8c1-4.2,2.1-8.3,3.1-12.5c0.3-1.2,0.6-2.5,0.9-3.7
	c0.2-1,0.5-2,0.7-3c0.1-0.4,0.2-0.7,0.3-1.1c0.5-2.3,1.3-4.5,1.5-6.8c0.3-0.5,0.4-1,0.5-1.6c0.6-2.5,1.3-5,1.9-7.5
	c0.3-1.3,0.8-2.5,1.5-3.6C53,4,54.5,3.5,56.4,4.1c1.8,0.5,2.8,1.7,2.9,3.7c0.2,2.9-0.8,5.7-1.4,8.5c-4.6,21.5-9.2,43.1-13.8,64.6
	c0,0.2-0.1,0.4-0.1,0.6c-1,3.1-0.7,6.1,0.2,9.3c10,33.8,19.8,67.6,29.7,101.5c1.2,4-0.5,7.2-4.2,8.3c-4,1.2-8-0.9-9.1-4.7
	c-1.7-6.2-3.3-12.4-4.9-18.6c-5.8-22.2-11.7-44.4-17.5-66.6c0-0.1-0.1-0.1-0.1-0.2c-0.4,0.2-0.3,0.5-0.4,0.8
	c-5.8,27.4-11.7,54.7-17.5,82.1c-0.6,2.8-2.3,4.5-5,5.3c-2.7,0.8-5.2,0.3-7.2-1.7c-1.6-1.6-2.1-3.5-1.5-5.7
	c4.7-19.5,9.4-38.9,14.1-58.4c3.7-15.2,7.3-30.3,11-45.5c0.1-0.6,0.2-1.2,0-1.8c-3.9-14.7-7.8-29.5-11.6-44.2c0-0.2-0.1-0.3-0.2-0.4
	c1.7-0.8,2.5-2.3,3.4-3.9c0.4-0.7,0.8-1.2,1.7-1.2c1,0,2.2-0.9,2.8-0.3c0.5,0.6-0.1,1.9-0.3,2.9c-0.1,0.9-0.2,1.7-0.2,2.6
	c0.1,2.6,1.2,3.6,3.7,3.5c2,6.8,3.9,13.6,5.9,20.4c0.1,0,0.1,0,0.2,0C37.8,61.2,38.6,57.6,39.5,54z"/>
<path class="st1" d="M353.3,150.8c-0.5,0.1-0.6,0.5-0.9,0.7c-8.9,9.2-19.9,12.5-32.2,10.8c-8.9-1.2-15.7-5.9-18.7-14.8
	c-4-11.8,1.7-23.1,13.7-27.6c5.2-1.9,10.6-2.7,16-3.4c5-0.6,10.1-0.8,15.1-1.9c3.6-0.8,5.3-2.5,5.7-5.7c0.5-3.4-0.6-6.1-3.5-7.9
	c-2.1-1.3-4.5-1.9-6.9-2.1c-7-0.7-13.2,1-18.3,6.2c-1.4,1.4-2.8,2.9-4.5,4c-5.1,3.2-12.1,0.5-13.4-5.3c-0.5-2.2,0-4.2,1-6.2
	c1.7-3.5,4.5-6.1,7.7-8.2c5.2-3.4,11.1-5.1,17.2-5.8c8.1-1,16.2-0.6,24.2,1.4c5.2,1.3,10,3.5,13.7,7.7c2.5,2.9,3.8,6.4,4.1,10.3
	c0.1,1,0.1,2,0.1,3c0,11.9,0,23.8,0.1,35.6c0,3.4,0.6,6.8,1.6,10c2.1,6.5-2.7,10.6-7.8,11.1c-1.7,0.2-3.4,0.1-5.1-0.3
	c-5-1.2-8-5-8.5-10.5C353.5,151.6,353.6,151.1,353.3,150.8z M352.2,125.2c-2.2,1.8-4.6,2.5-7,2.9c-3.6,0.6-7.2,1.1-10.7,1.7
	c-3.2,0.5-6.4,1.2-9.1,3.1c-3.2,2.2-4.6,6.3-3.2,9.9c1.4,3.3,4.1,5.1,7.5,5.7c6.1,1.1,11.8,0,16.8-3.9c3-2.3,4.8-5.3,5.4-9.1
	C352.4,132.2,351.9,128.9,352.2,125.2z"/>
<path class="st1" d="M258.8,140.5c0.7-2.5,1.4-5.1,2.1-7.6c3.6-13.4,7.2-26.9,10.8-40.3c0.4-1.4,0.9-2.7,1.5-4
	c2.2-4.3,5.7-6,10.9-5.3c4.1,0.6,7.5,3.8,8.5,7.9c0.4,1.8,0.1,3.5-0.5,5.2c-2.4,6.9-4.8,13.9-7.2,20.8
	c-6.4,18.1-12.8,36.2-19.2,54.3c-1.5,4.2-3.4,8.3-6.2,11.8c-3.7,4.7-8.5,7.1-14.4,7.5c-3,0.2-6,0.1-8.9-0.8c-5-1.6-7.6-5.4-7-10.3
	c0.5-3.8,3.3-6.4,7.4-7c1.7-0.2,3.4-0.2,5.1-0.2c3.5-0.1,6.5-3.1,6.5-6.5c0-0.5-0.3-1.1-0.5-1.6c-7.5-21.5-15.1-42.9-22.6-64.4
	c-0.7-2.1-1.5-4.2-1.6-6.5c-0.2-6.2,5-11,11.1-10.5c5.5,0.5,8.8,3.3,10.2,8.6c4.4,16,8.8,32,13.2,48c0.1,0.3,0.2,0.5,0.3,0.8
	C258.6,140.5,258.7,140.5,258.8,140.5z"/>
<path class="st1" d="M502.6,123c0,9.4,0,18.9,0,28.3c0,1.4,0,2.7-0.3,4.1c-0.7,3.9-3.2,6.4-7.1,7.2c-1.9,0.4-3.9,0.4-5.8,0.1
	c-5-0.9-7.7-3.9-7.9-9c0-0.7,0-1.4,0-2c0-19,0-38.1,0-57.1c0-1.5,0-3,0.4-4.4c0.9-3.6,3.1-5.8,6.7-6.6c2.5-0.6,5-0.5,7.5,0.1
	c4,1,6.5,4.3,6.6,8.9c0.1,5.6,0,11.3,0.1,16.9C502.6,113.9,502.6,118.4,502.6,123z"/>
<path class="st1" d="M492.1,54c6.1,0,11,4.9,11,11.1c0,6-5,11-11,11c-6.1,0-11-5-11-11.1C481,58.8,485.9,53.9,492.1,54z"/>
<path class="st1" d="M80,210c0,5.1-4.2,8.7-9.4,8.2c-4.2-0.4-7.9-3.5-9.2-7.4c-0.7-2.2-0.2-4.1,1.7-5.4c3.4-2.2,7.1-3.5,11.2-3.2
	c1.8,0.1,3.2,1.1,4.1,2.6C79.5,206.2,80,208,80,210z"/>
<path class="st1" d="M22,14.2c-0.4,0.8,0.3,1.2,0.6,1.7c0.7,2.4,1.4,4.9,2.1,7.3c-3,1.3-5.7,3.2-8,5.6c-1.3-5.1-2.6-10.2-3.9-15.3
	c-0.1-0.6-0.2-1.2-0.2-1.8c-0.1-2.2,0.6-3.4,2.2-4c1.9-0.7,3.8-0.2,5.1,1.3c0.9,1.1,1.4,2.4,1.9,3.7C21.7,13.3,21.8,13.7,22,14.2z"
	/>
<path class="st1" d="M18.5,35.9c1.3,0,2.6,0,4.1,0c-0.8,1.6-1.4,3.2-3.1,3.8C19.2,38.5,18.8,37.2,18.5,35.9z"/>
</svg>
