<?xml version="1.0" encoding="utf-8"?>
<!-- Generator: Adobe Illustrator 19.0.0, SVG Export Plug-In . SVG Version: 6.00 Build 0)  -->
<svg version="1.1" id="Logo" xmlns="http://www.w3.org/2000/svg" xmlns:xlink="http://www.w3.org/1999/xlink" x="0px" y="0px"
	 viewBox="125.5 29 204.6 200" style="enable-background:new 125.5 29 204.6 200;" xml:space="preserve">
<style type="text/css">
	.st0{clip-path:url(#SVGID_2_);}
	.st1{clip-path:url(#SVGID_4_);}
	.st2{fill:#DBDBDB;}
	.st3{fill:#CECECE;}
	.st4{fill:#FFFFFF;}
</style>
<g>
	<defs>
		<rect id="SVGID_1_" x="125.5" y="29" width="204.6" height="199.9"/>
	</defs>
	<clipPath id="SVGID_2_">
		<use xlink:href="#SVGID_1_"  style="overflow:visible;"/>
	</clipPath>
	<g class="st0">
		<g>
			<defs>
				<rect id="SVGID_3_" x="50" y="29" width="355.6" height="200"/>
			</defs>
			<clipPath id="SVGID_4_">
				<use xlink:href="#SVGID_3_"  style="overflow:visible;"/>
			</clipPath>
			<g class="st1">
				<rect id="background" x="-3.2" y="29" class="st2" width="517.3" height="200"/>
				<polygon id="shadow" class="st3" points="215.3,229 159.5,173.3 177.3,103.5 289.6,88.2 431.2,228.8 327.8,229 				"/>
				<path id="m" class="st4" d="M180,95.6c2.3-3.4,4.8-6.4,8.2-8.7c9.7-6.9,20.3-9.3,32-5.7c6.7,2,11.4,6.6,14.4,13
					c0.1,0.4,0.4,0.7,0.6,1.3c0.8-1.1,1.6-2,2.4-3c7.9-9.6,18.3-13.7,30.7-12.9c3.6,0.2,7.2,0.7,10.7,1.9
					c9.7,3.4,15.3,10.2,17.2,20.2c0.6,3,0.8,6,0.8,9c0,17.1,0,34.2,0,51.3c0,1.6-0.1,3.1-0.5,4.7c-1,4.6-3.7,7.2-8.3,8.2
					c-2.5,0.6-5.2,0.5-7.7,0.1c-5.2-1-8.3-4.3-8.9-9.4c-0.1-1.3-0.2-2.6-0.2-3.9c0-15.3,0-30.6,0-45.7c0-1.7-0.2-3.2-0.6-4.8
					c-1.9-8.3-8.2-11.6-15.8-10.3c-9.5,1.4-16,9.1-16,18.9c-0.1,14.2,0,28.4,0,42.6c0,1.4-0.1,3-0.4,4.5c-1.1,5.2-4.6,8.2-10,8.5
					c-1.9,0.1-3.9,0.2-5.8-0.1c-5.7-1.1-8.9-4.7-9.3-10.5c-0.1-1.1-0.1-2.2-0.1-3.4c0-14.6,0-29.1,0-43.6c0-2.3-0.1-4.6-0.7-6.9
					c-2-8.1-8.2-11.2-15.5-10.1c-9.9,1.4-16.1,9.3-16.2,19.7c0,13.7,0,27.6,0,41.3c0,1.4,0,2.9-0.2,4.3c-1,5.4-3.7,8.2-9.1,9.1
					c-2.5,0.5-5.2,0.4-7.7-0.2c-5.1-1.2-7.8-4.8-8.3-10.5c0-0.5,0-1.1,0-1.6c0-23.6,0-47,0-70.6c0-3.5,0.7-6.9,3.4-9.4
					c3.9-3.7,8.5-4.2,13.4-2.5c4.6,1.6,6.7,5.3,7.2,10c0.1,1.7,0,3.4,0,5.2C179.7,95.6,179.8,95.6,180,95.6z"/>
			</g>
		</g>
	</g>
</g>
</svg>
