<?xml version="1.0" encoding="iso-8859-1"?>
<!-- Generator: Adobe Illustrator 19.0.0, SVG Export Plug-In . SVG Version: 6.00 Build 0)  -->
<svg version="1.1" xmlns="http://www.w3.org/2000/svg" xmlns:xlink="http://www.w3.org/1999/xlink" x="0px" y="0px"
	 viewBox="0 0 630 276.585" style="enable-background:new 0 0 630 276.585;" xml:space="preserve">
<g id="adidas">
	<g id="XMLID_100_">
		<g id="XMLID_39_">
			<g id="XMLID_102_">
				<path id="XMLID_181_" style="fill:#1F1F1F;" d="M449.128,187.201h-8.274h-4.286c-0.39-2.083-0.996-3.55-1.822-4.375
					c-1.344-1.343-3.635-2.036-6.801-2.036c-3.118,0-5.282,0.517-6.493,1.558c-0.912,0.781-1.389,1.862-1.389,3.205
					c0,1.903,2.646,3.422,7.882,4.591c5.981,1.298,10.27,2.425,12.91,3.333c0.694,0.261,1.299,0.477,1.734,0.692
					c5.331,2.513,7.971,6.33,7.971,11.438c0,6.237-2.598,10.786-7.754,13.643c-0.651,0.349-1.257,0.651-1.95,0.955
					c-3.333,1.43-7.231,2.164-11.606,2.164c-6.54,0-11.827-1.17-15.854-3.466c-2.534-1.473-4.427-3.324-5.688-5.556
					c-1.261-2.232-1.892-4.837-1.892-7.827h13.166c0,2.252,0.825,4.03,2.426,5.241c1.606,1.258,4.334,1.909,8.186,1.909
					c2.903,0,5.067-0.61,6.499-1.821c1.128-0.955,1.645-1.996,1.645-3.207c0-2.036-2.594-3.635-7.754-4.764
					c-7.708-1.647-12.561-2.99-14.552-3.945c-5.282-2.467-7.882-6.276-7.882-11.566c0-4.241,1.344-7.836,4.114-10.781
					c3.466-3.683,8.661-5.503,15.551-5.503c5.673,0,10.221,0.825,13.643,2.426c0.302,0.128,0.564,0.261,0.825,0.436
					c2.467,1.339,4.329,3.118,5.576,5.33C448.502,181.482,449.128,184.128,449.128,187.201z"/>
				<path id="XMLID_178_" style="fill:#1F1F1F;" d="M442.414,156.533c0-0.261-0.041-0.477-0.174-0.651
					c-0.128-0.215-0.303-0.349-0.56-0.43c-0.174-0.047-0.436-0.088-0.827-0.134h-0.476h-1.514v2.426h1.601c0.128,0,0.302,0,0.389,0
					c0.566-0.041,0.955-0.128,1.17-0.345C442.286,157.18,442.414,156.876,442.414,156.533z M443.455,155.231
					c0.261,0.349,0.389,0.738,0.389,1.17c0,0.605-0.215,1.128-0.651,1.558c-0.431,0.436-0.994,0.699-1.686,0.738
					c0.302,0.128,0.517,0.262,0.692,0.431l1.211,1.606l0.953,1.599h-1.56l-0.738-1.298c-0.471-0.82-0.861-1.43-1.211-1.732
					c-0.041-0.041-0.087-0.089-0.174-0.13l-1.035-0.302h-0.781v3.461h-1.302v-8.14h2.815c0.175,0,0.349,0.041,0.477,0.041
					c0.692,0,1.211,0.089,1.56,0.217C442.845,154.585,443.193,154.841,443.455,155.231z"/>
				<path id="XMLID_171_" style="fill:#1F1F1F;" d="M447.138,158.18c0-1.128-0.262-2.165-0.825-3.164
					c-0.566-0.996-1.344-1.775-2.339-2.339c-0.996-0.518-2.037-0.822-3.079-0.822c-0.041,0-0.041,0-0.041,0
					c-1.04,0-2.077,0.303-3.071,0.822c-1,0.564-1.78,1.344-2.344,2.339c-0.56,0.999-0.863,2.036-0.863,3.164
					c0,1.083,0.303,2.118,0.863,3.118c0.523,0.95,1.302,1.734,2.297,2.292c0.996,0.566,2.037,0.827,3.118,0.827c0,0,0,0,0.041,0
					c1.087,0,2.124-0.262,3.125-0.827c0.994-0.558,1.775-1.342,2.293-2.292C446.876,160.298,447.138,159.263,447.138,158.18z
					 M448.395,158.18c0,1.257-0.308,2.513-1.001,3.724c-0.646,1.211-1.56,2.124-2.769,2.769c-1.215,0.699-2.426,1-3.73,1
					c-0.041,0-0.041,0-0.041,0c-1.298,0-2.511-0.302-3.722-1c-1.217-0.647-2.124-1.558-2.775-2.769
					c-0.692-1.211-0.994-2.467-0.994-3.724c0-1.345,0.302-2.6,0.994-3.815c0.692-1.211,1.606-2.118,2.817-2.771
					c1.215-0.651,2.425-0.953,3.681-0.994c0,0,0,0,0.041,0c1.258,0,2.474,0.345,3.683,0.994c1.217,0.653,2.17,1.56,2.816,2.771
					C448.086,155.58,448.395,156.835,448.395,158.18z"/>
				<polygon id="XMLID_170_" style="fill:#1F1F1F;" points="374.709,96.975 410.275,156.231 374.709,156.231 353.142,156.231 
					319.182,99.617 293.455,56.777 319.182,41.313 335.38,31.568 				"/>
				<path id="XMLID_167_" style="fill:#1F1F1F;" d="M400.529,197.376v24.303h-11.827v-2.687c-3.986,2.6-8.752,4.117-13.86,4.117
					c-0.046,0-0.087,0-0.133,0c-14.121-0.087-25.6-11.612-25.6-25.733c0-14.119,11.48-25.64,25.6-25.727c0.046,0,0.087,0,0.133,0
					c5.108,0,9.874,1.519,13.86,4.113v-2.815h11.827V197.376z M388.702,200.065v-5.371c-1.257-6.498-7.016-11.438-13.86-11.438
					c-0.046,0-0.087,0-0.133,0c-7.751,0.047-14.034,6.371-14.034,14.121c0,7.756,6.283,14.08,14.034,14.166c0.046,0,0.087,0,0.133,0
					C381.686,211.543,387.446,206.562,388.702,200.065z"/>
				<path id="XMLID_163_" style="fill:#1F1F1F;" d="M344.997,197.376v24.303h-11.823v-2.687c-4.031,2.6-8.751,4.117-13.864,4.117
					c-0.041,0-0.087,0-0.128,0c-14.121-0.087-25.599-11.612-25.599-25.733c0-14.119,11.479-25.64,25.599-25.727
					c0.041,0,0.087,0,0.128,0c5.114,0,9.833,1.519,13.864,4.113v-19.531h11.823V197.376z M333.174,200.065v-5.371
					c-1.257-6.498-7.022-11.438-13.864-11.438c-0.041,0-0.087,0-0.128,0c-7.755,0.047-14.034,6.371-14.034,14.121
					c0,7.756,6.279,14.08,14.034,14.166c0.041,0,0.087,0,0.128,0C326.153,211.543,331.918,206.562,333.174,200.065z"/>
				<polygon id="XMLID_162_" style="fill:#1F1F1F;" points="319.182,132.923 333.128,156.231 319.182,156.231 276.036,156.231 
					244.333,103.473 242.949,101.175 244.333,100.355 284.92,75.919 				"/>
				<rect id="XMLID_161_" x="276.082" y="171.648" style="fill:#1F1F1F;" width="12.864" height="50.031"/>
				<rect id="XMLID_160_" x="276.082" y="156.487" style="fill:#1F1F1F;" width="12.864" height="11.304"/>
				<path id="XMLID_142_" style="fill:#1F1F1F;" d="M270.189,197.376v24.303h-11.823v-2.687c-4.026,2.6-8.791,4.117-13.905,4.117
					c-0.041,0-0.087,0-0.128,0c-14.12-0.087-25.599-11.612-25.599-25.733c0-14.119,11.479-25.64,25.599-25.727
					c0.041,0,0.087,0,0.128,0c5.114,0,9.879,1.519,13.905,4.113v-19.531h11.823V197.376z M258.366,200.065v-5.371
					c-1.257-6.498-7.016-11.438-13.905-11.438c-0.041,0-0.087,0-0.128,0c-7.755,0.047-14.033,6.371-14.033,14.121
					c0,7.756,6.278,14.08,14.033,14.166c0.041,0,0.087,0,0.128,0C251.35,211.543,257.11,206.562,258.366,200.065z"/>
				<polygon id="XMLID_141_" style="fill:#1F1F1F;" points="244.333,136.735 256.028,156.231 244.333,156.231 198.895,156.231 
					192.483,145.531 234.455,120.322 				"/>
				<path id="XMLID_103_" style="fill:#1F1F1F;" d="M214.097,197.376v24.303h-11.823v-2.687c-4.032,2.6-8.797,4.117-13.905,4.117
					c-0.046,0-0.087,0-0.134,0c-14.074-0.087-25.553-11.612-25.553-25.733c0-14.119,11.479-25.64,25.553-25.727
					c0.046,0,0.087,0,0.134,0c5.108,0,9.873,1.519,13.905,4.113v-2.815h11.823V197.376z M202.275,200.065v-5.371
					c-1.257-6.498-7.017-11.438-13.905-11.438c-0.046,0-0.087,0-0.134,0c-7.709,0.047-13.987,6.371-13.987,14.121
					c0,7.756,6.278,14.08,13.987,14.166c0.046,0,0.087,0,0.134,0C195.258,211.543,201.018,206.562,202.275,200.065z"/>
			</g>
		</g>
	</g>
</g>
<g id="Layer_1">
</g>
</svg>
