<?xml version="1.0" encoding="iso-8859-1"?>
<!-- Generator: Adobe Illustrator 19.0.0, SVG Export Plug-In . SVG Version: 6.00 Build 0)  -->
<svg version="1.1" xmlns="http://www.w3.org/2000/svg" xmlns:xlink="http://www.w3.org/1999/xlink" x="0px" y="0px"
	 viewBox="0 0 630 276.585" style="enable-background:new 0 0 630 276.585;" xml:space="preserve">
<g id="asics">
	<g id="XMLID_211_">
		<path id="XMLID_224_" style="fill:#1F1F1F;" d="M153.396,160.152c-7.485,0-11.082-5.754-9.204-12.411
			c3.879-13.796,28.803-34.241,45.788-34.241c12.386,0,11.443,11.082,4.182,20.535l-4.013,4.443
			C175.753,152.605,162.408,160.152,153.396,160.152 M214.103,67.118c-21.677,0.008-45.547,13.269-60.539,25.828l1.184,1.715
			c23.269-16.311,55.557-26.918,64.458-11.008c4.7,8.392-3.278,25.342-14.513,38.737c2.687-5.916,0.912-17.274-14.754-17.274
			c-26.044,0-77.315,34.5-77.315,69.808c0,14.143,9.811,23.37,25.973,23.37c43.259,0,101.926-70.909,101.926-106.524
			C240.522,79.19,233.285,67.118,214.103,67.118"/>
		<path id="XMLID_221_" style="fill:#1F1F1F;" d="M269.796,160.152c-2.519,0-4.614-0.879-5.926-2.483
			c-1.367-1.682-1.774-4.066-1.126-6.527c1.439-5.34,7.195-9.535,13.114-9.535h13.923l-4.975,18.545H269.796z M309.81,104.556
			c-3.981-4.896-10.428-7.086-15.04-7.086h-25.3l-4.295,16.017h23.86l2.286,0.241c0.024,0,2.19,0.253,3.399,1.879
			c0.976,1.36,1.12,3.38,0.418,6.03l-1.128,4.215h-15.034c-12.939,0-30.978,9.283-35,24.276c-2,7.476-0.247,13.953,3.638,18.712
			c3.855,4.724,11.131,7.332,18.992,7.332h13.923h-0.008h17.695l8.3-30.995l6.109-22.783
			C315.024,113.436,312.424,107.746,309.81,104.556"/>
		<path id="XMLID_205_" style="fill:#1F1F1F;" d="M483.601,97.47c-6.845,0-13.205,2.025-18.377,5.859
			c-5.222,3.867-8.103,8.513-9.82,14.923c-3.726,13.891,7.19,20.594,15.961,25.347c6.291,3.407,11.732,6.347,10.554,10.7
			c-0.832,3.125-2.197,5.859-9.936,5.859h-23.625l-4.286,16.015h26.15c7.012,0,13.483-1.46,18.697-5.463
			c5.219-4.017,8.168-9.613,9.992-16.443c1.751-6.5,0.571-12.709-3.613-17.342c-3.487-3.891-8.502-6.593-12.921-8.98
			c-5.663-3.047-11.003-5.923-10.071-9.407c0.571-2.109,2.663-5.05,7.237-5.05h22.981l4.296-16.017H483.601z"/>
		<path id="XMLID_204_" style="fill:#1F1F1F;" d="M346.497,97.47c-6.843,0-13.202,2.025-18.375,5.859
			c-5.222,3.867-8.103,8.513-9.837,14.923c-3.717,13.891,7.207,20.594,15.976,25.347c6.295,3.407,11.722,6.347,10.556,10.7
			c-0.84,3.125-2.199,5.859-9.938,5.859h-23.621l-4.295,16.015h26.148c7.02,0,13.49-1.46,18.704-5.463
			c5.227-4.017,8.17-9.613,9.993-16.443c1.744-6.5,0.562-12.709-3.604-17.342c-3.487-3.891-8.51-6.593-12.938-8.98
			c-5.655-3.047-10.988-5.923-10.054-9.407c0.561-2.109,2.662-5.05,7.227-5.05h22.968l4.303-16.017H346.497z"/>
		<polygon id="XMLID_203_" style="fill:#1F1F1F;" points="382.177,97.47 361.667,176.172 378.995,176.172 399.488,97.47 		"/>
		<path id="XMLID_202_" style="fill:#1F1F1F;" d="M445.588,97.47c-30.507,0.109-46.471,20.426-51.539,39.352
			c-6.003,22.441,5.943,39.352,27.79,39.352h14.64l4.286-16.015H426.13c-8.177,0-19.421-6.434-14.889-23.337
			c3.599-13.434,16.699-23.333,31.067-23.333h9.296l4.295-16.017h-10.311V97.47z"/>
		<path id="XMLID_212_" style="fill:#1F1F1F;" d="M505.598,172.583h1.518v-3.407h1.207c0.806,0,1.377,0.088,1.69,0.269
			c0.54,0.328,0.823,0.992,0.823,1.987v0.69l0.022,0.278c0.017,0.035,0.017,0.062,0.025,0.101c0.008,0.025,0.017,0.049,0.025,0.084
			h1.424l-0.051-0.113c-0.029-0.071-0.052-0.224-0.071-0.449c-0.017-0.229-0.034-0.438-0.025-0.636v-0.641
			c-0.008-0.433-0.15-0.882-0.47-1.337c-0.313-0.456-0.815-0.739-1.493-0.848c0.532-0.088,0.956-0.221,1.251-0.424
			c0.571-0.359,0.85-0.929,0.842-1.699c0.008-1.082-0.443-1.813-1.328-2.189c-0.503-0.204-1.286-0.308-2.367-0.308h-3.022v8.643
			H505.598z M509.938,167.916c-0.318,0.125-0.8,0.195-1.446,0.195h-1.374v-3.133h1.303c0.84,0,1.455,0.108,1.83,0.32
			c0.391,0.221,0.588,0.641,0.588,1.269C510.837,167.231,510.529,167.684,509.938,167.916 M514.354,162.727
			c-1.544-1.53-3.407-2.29-5.588-2.29c-2.16,0-4.017,0.759-5.552,2.29c-1.535,1.535-2.293,3.392-2.293,5.552
			c0,2.189,0.758,4.052,2.278,5.588c1.535,1.535,3.392,2.31,5.577,2.31c2.18,0,4.035-0.774,5.572-2.31
			c1.544-1.549,2.318-3.404,2.318-5.588C516.663,166.106,515.889,164.249,514.354,162.727 M513.562,163.488
			c1.327,1.328,1.981,2.918,1.981,4.791c0,1.884-0.655,3.495-1.981,4.827c-1.31,1.332-2.906,1.993-4.79,1.993
			c-1.88,0-3.478-0.662-4.806-1.993c-1.295-1.332-1.951-2.943-1.951-4.827c0-1.872,0.658-3.463,1.968-4.791
			c1.328-1.332,2.926-1.993,4.783-1.993C510.641,161.497,512.253,162.157,513.562,163.488"/>
	</g>
</g>
<g id="Layer_1">
</g>
</svg>
