<?xml version="1.0" encoding="iso-8859-1"?>
<!-- Generator: Adobe Illustrator 19.0.0, SVG Export Plug-In . SVG Version: 6.00 Build 0)  -->
<svg version="1.1" xmlns="http://www.w3.org/2000/svg" xmlns:xlink="http://www.w3.org/1999/xlink" x="0px" y="0px"
	 viewBox="0 0 630 276.585" style="enable-background:new 0 0 630 276.585;" xml:space="preserve">
<g id="blacks">
	<g id="JWklOr.tif">
		<g id="XMLID_283_">
			<path id="XMLID_334_" style="fill:#1F1F1F;" d="M100.383,131.211c0.162-1.139,0.324-2.277,0.488-3.416
				c1.123-7.842,4.061-14.941,8.751-21.317c4.206-5.718,9.446-10.264,15.686-13.625c5.841-3.147,12.079-4.989,18.714-5.481
				c7.74-0.574,15.19,0.591,22.334,3.631c6.751,2.873,12.518,7.108,17.317,12.656c3.993,4.617,6.99,9.814,8.959,15.59
				c2.084,6.114,2.857,12.402,2.397,18.847c-0.314,4.406-1.207,8.689-2.746,12.824c-2.281,6.133-5.654,11.591-10.19,16.331
				c-5.286,5.524-11.525,9.555-18.73,12.085c-5.759,2.023-11.707,2.854-17.795,2.579c-6.689-0.303-13.044-1.939-19.034-4.967
				c-8.728-4.411-15.458-10.91-20.241-19.416c-3.255-5.79-5.105-12.033-5.746-18.64c-0.03-0.311-0.108-0.618-0.163-0.927
				C100.383,135.715,100.383,133.463,100.383,131.211z M191.501,151.627l-0.01,0.01c-0.165-0.236-0.317-0.483-0.496-0.707
				c-6.599-8.278-13.194-16.559-19.803-24.83c-7.401-9.262-14.81-18.517-22.226-27.767c-1.189-1.484-0.961-1.772-2.382,0.006
				c-6.898,8.631-13.787,17.27-20.686,25.9c-6.846,8.564-13.7,17.12-20.549,25.681c-0.472,0.59-0.929,1.191-1.394,1.788
				c0.039,0.036,0.078,0.072,0.118,0.107c11.776-8.722,23.552-17.444,35.481-26.28c2.735,13.226,5.419,26.202,8.102,39.179
				c0.08-0.006,0.16-0.011,0.24-0.017c2.687-12.99,5.373-25.981,8.082-39.08c0.364,0.235,0.561,0.348,0.743,0.482
				c4.106,3.035,8.212,6.07,12.314,9.11c7.115,5.272,14.227,10.549,21.347,15.814C190.72,151.273,191.127,151.428,191.501,151.627z"
				/>
			<path id="XMLID_330_" style="fill:#1F1F1F;" d="M264.267,131.665c1.165,0.252,2.111,0.387,3.015,0.662
				c7.399,2.255,11.612,7.35,12.891,14.862c0.727,4.268,0.368,8.547-1.081,12.634c-2.22,6.263-6.888,9.93-13.121,11.759
				c-3.818,1.12-7.756,1.556-11.712,1.587c-11.545,0.09-23.09,0.07-34.635,0.121c-0.855,0.004-0.814-0.444-0.813-1.033
				c0.007-21.909,0.006-43.819,0.005-65.728c0-2.771,0.023-5.543-0.016-8.313c-0.01-0.698,0.219-0.865,0.884-0.864
				c11.777,0.018,23.555-0.003,35.332,0.021c4.35,0.009,8.569,0.758,12.463,2.783c6.293,3.271,9.377,8.569,9.575,15.594
				c0.093,3.318-0.471,6.506-2.281,9.362c-2.218,3.5-5.557,5.345-9.479,6.296C265.016,131.475,264.739,131.547,264.267,131.665z
				 M233.206,149.516c0,3.347,0.019,6.693-0.015,10.04c-0.008,0.752,0.142,1.054,0.989,1.049c6.001-0.038,12.002,0.012,18.002-0.034
				c2.807-0.022,5.574-0.39,8.189-1.528c2.569-1.118,4.148-3.024,4.724-5.771c0.463-2.207,0.427-4.407-0.009-6.611
				c-0.596-3.012-2.264-5.169-5.059-6.476c-2.511-1.174-5.181-1.587-7.903-1.611c-6-0.053-12.001-0.005-18.002-0.031
				c-0.724-0.003-0.937,0.222-0.93,0.935C233.224,142.823,233.207,146.17,233.206,149.516z M243.014,127.768
				c2.51,0,5.021,0.018,7.531-0.005c2.296-0.022,4.554-0.319,6.629-1.377c3.733-1.903,5.494-5.713,4.7-10.054
				c-0.665-3.632-2.807-5.956-6.347-6.874c-1.548-0.401-3.179-0.64-4.777-0.662c-5.539-0.079-11.079-0.019-16.619-0.045
				c-0.714-0.003-0.941,0.203-0.938,0.926c0.026,5.713,0.03,11.426-0.001,17.139c-0.004,0.78,0.251,0.978,0.993,0.969
				C237.128,127.748,240.071,127.769,243.014,127.768z"/>
			<path id="XMLID_329_" style="fill:#1F1F1F;" d="M477.846,119.342c-0.339,0.354-0.563,0.597-0.796,0.831
				c-6.515,6.544-13.024,13.094-19.56,19.618c-0.493,0.492-0.32,0.794-0.018,1.228c4.226,6.056,8.444,12.117,12.662,18.179
				c3.082,4.428,6.161,8.857,9.24,13.287c0.128,0.185,0.234,0.385,0.432,0.713c-0.408,0.033-0.706,0.077-1.004,0.077
				c-4.676,0.004-9.351-0.011-14.027,0.017c-0.665,0.004-1.039-0.23-1.396-0.769c-5.001-7.552-10.023-15.091-15.042-22.631
				c-0.141-0.212-0.301-0.412-0.513-0.699c-1.33,1.298-2.624,2.561-3.917,3.825c-0.97,0.948-1.97,1.868-2.887,2.864
				c-0.271,0.294-0.432,0.804-0.435,1.216c-0.029,5.051-0.034,10.102-0.005,15.152c0.004,0.767-0.173,1.055-1.003,1.045
				c-3.694-0.043-7.389-0.038-11.083-0.003c-0.794,0.008-1.1-0.169-1.099-1.042c0.023-24.619,0.021-49.238,0.006-73.858
				c0-0.753,0.16-1.056,0.997-1.046c3.723,0.046,7.446,0.042,11.169,0.003c0.799-0.008,1.016,0.227,1.015,1.02
				c-0.022,13.276-0.015,26.553-0.014,39.829c0,0.306,0,0.612,0,1.139c0.442-0.405,0.739-0.659,1.016-0.933
				c6.275-6.211,12.545-12.428,18.832-18.627c0.26-0.256,0.675-0.503,1.019-0.505c5.31-0.031,10.621-0.02,15.932-0.017
				C477.45,119.253,477.534,119.283,477.846,119.342z"/>
			<path id="XMLID_326_" style="fill:#1F1F1F;" d="M362.086,173.209c-0.297,0.023-0.572,0.063-0.846,0.063
				c-4.012,0.004-8.025-0.015-12.037,0.018c-0.7,0.006-1.108-0.244-1.285-0.871c-0.349-1.237-0.665-2.484-1.013-3.797
				c-0.192,0.135-0.417,0.291-0.638,0.451c-6.726,4.861-14.172,6.695-22.269,4.738c-6.983-1.688-11.411-6.181-12.56-13.387
				c-1.225-7.687,1.894-13.882,9.288-17.449c3.548-1.712,7.384-2.382,11.2-3.162c4.712-0.963,9.4-2.049,14.103-3.056
				c0.786-0.168,1.139-0.525,1.03-1.357c-0.086-0.655,0-1.335-0.111-1.984c-0.317-1.866-1.319-3.241-3.103-3.965
				c-4.202-1.706-8.494-1.725-12.805-0.535c-2.489,0.687-3.513,2.63-3.895,5.012c-0.055,0.342-0.086,0.687-0.122,1.032
				c-0.14,1.335-0.137,1.292-1.442,1.23c-3.602-0.172-7.205-0.323-10.809-0.439c-0.709-0.023-0.923-0.211-0.899-0.949
				c0.236-7.065,3.988-11.657,10.206-14.456c3.739-1.683,7.743-2.238,11.806-2.325c4.046-0.087,8.089,0.085,12.034,1.062
				c4.46,1.105,8.122,3.392,10.382,7.555c1.429,2.633,1.874,5.507,1.884,8.444c0.033,9.612,0.032,19.224,0.002,28.836
				c-0.01,3.129,0.315,6.162,1.851,8.96C362.076,172.945,362.064,173.037,362.086,173.209z M346.973,146.487
				c-3.728,1.49-7.598,2.013-11.374,2.915c-2.294,0.547-4.621,1.058-6.815,1.895c-3.592,1.37-4.388,4.691-3.518,7.752
				c0.641,2.256,2.403,3.605,4.543,4.128c5.632,1.377,10.751,0.254,15.073-3.753c1.168-1.083,1.985-2.506,2.055-4.096
				C347.064,152.423,346.973,149.509,346.973,146.487z"/>
			<path id="XMLID_325_" style="fill:#1F1F1F;" d="M528.5,127.901c-3.017,2.838-6.015,5.658-9.047,8.511
				c-0.138-0.175-0.237-0.275-0.307-0.393c-2.714-4.604-6.798-6.914-12.082-7.189c-2.522-0.131-5.041-0.043-7.414,0.916
				c-0.914,0.37-1.833,0.907-2.534,1.59c-1.824,1.779-1.403,4.712,0.937,5.695c2.187,0.918,4.513,1.569,6.835,2.085
				c4.105,0.912,8.281,1.512,12.373,2.473c3.221,0.757,6.176,2.189,8.718,4.411c2.626,2.295,3.805,5.189,3.989,8.606
				c0.506,9.378-5.108,15.334-12.365,17.989c-4.793,1.754-9.771,2.175-14.831,1.871c-4.49-0.27-8.88-1.001-13.016-2.873
				c-3.388-1.534-6.546-3.416-9.186-6.081c-0.162-0.164-0.326-0.328-0.48-0.499c-0.076-0.085-0.133-0.187-0.262-0.371
				c3.261-2.518,6.517-5.033,9.761-7.538c0.869,0.902,1.621,1.821,2.51,2.58c2.821,2.413,6.214,3.458,9.828,3.885
				c2.86,0.338,5.703,0.361,8.451-0.701c1.608-0.621,3.102-1.423,4.193-2.804c1.772-2.242,1.192-4.611-1.406-5.8
				c-2.567-1.175-5.324-1.668-8.061-2.245c-3.692-0.779-7.397-1.518-11.047-2.463c-2.346-0.607-4.522-1.71-6.492-3.178
				c-2.996-2.233-4.877-5.094-5.201-8.89c-0.367-4.313,0.332-8.34,3.07-11.843c2.05-2.623,4.691-4.496,7.807-5.529
				c8.873-2.941,17.716-3.154,26.403,0.774c3.342,1.511,6.116,3.789,8.52,6.536C528.275,127.553,528.36,127.701,528.5,127.901z"/>
			<path id="XMLID_324_" style="fill:#1F1F1F;" d="M419.318,133.409c-0.814,0.379-1.539,0.722-2.267,1.056
				c-2.858,1.307-5.721,2.603-8.573,3.925c-0.486,0.225-0.715,0.243-0.942-0.351c-1.824-4.752-5.255-7.558-10.354-7.933
				c-5.161-0.379-9.211,1.788-11.999,6.13c-2.324,3.619-2.843,7.689-2.554,11.89c0.181,2.639,0.812,5.171,1.994,7.561
				c4.307,8.706,16.497,9.194,21.749,0.904c0.799-1.262,1.441-2.627,2.104-3.97c0.219-0.444,0.4-0.54,0.841-0.305
				c3.359,1.792,6.73,3.56,10.081,5.366c0.186,0.1,0.389,0.539,0.316,0.693c-2.197,4.643-4.905,8.889-9.264,11.851
				c-4.339,2.948-9.155,4.256-14.363,4.321c-6.084,0.076-11.733-1.295-16.701-4.942c-4.13-3.032-6.972-7.059-8.629-11.859
				c-2.944-8.531-2.83-17.034,1-25.277c3.648-7.852,10.015-12.324,18.435-13.92c4.41-0.836,8.85-0.846,13.229,0.247
				c6.748,1.686,11.56,5.782,14.624,11.986C418.463,131.631,418.87,132.484,419.318,133.409z"/>
			<path id="XMLID_323_" style="fill:#1F1F1F;" d="M302.375,135.372c0,12.266,0,24.532,0,36.798c0,1.099-0.001,1.103-1.066,1.103
				c-3.694,0.002-7.389-0.019-11.083,0.017c-0.768,0.008-0.967-0.23-0.967-0.984c0.018-24.676,0.017-49.353-0.001-74.029
				c0-0.712,0.192-0.934,0.918-0.928c3.752,0.033,7.504,0.037,11.256-0.003c0.768-0.008,0.961,0.208,0.96,0.968
				C302.368,110.667,302.375,123.02,302.375,135.372z"/>
		</g>
	</g>
</g>
<g id="Layer_1">
</g>
</svg>
