<?xml version="1.0" encoding="iso-8859-1"?>
<!-- Generator: Adobe Illustrator 19.0.0, SVG Export Plug-In . SVG Version: 6.00 Build 0)  -->
<svg version="1.1" xmlns="http://www.w3.org/2000/svg" xmlns:xlink="http://www.w3.org/1999/xlink" x="0px" y="0px"
	 viewBox="0 0 630 276.585" style="enable-background:new 0 0 630 276.585;" xml:space="preserve">
<g id="breezer">
	<path id="XMLID_89_" style="fill:#1F1F1F;" d="M79.235,101.808c0.36-0.055,0.719-0.161,1.078-0.159
		c13.653,0.049,27.319-0.239,40.956,0.268c12.749,0.473,20.532,12.435,16.504,24.45c-1.43,4.266-4.151,7.41-8.259,9.316
		c-0.637,0.295-1.256,0.627-2.251,1.127c0.717,0.416,1.108,0.714,1.548,0.887c7.721,3.034,12.202,10.9,11.374,19.157
		c-1.124,11.209-9.066,17.301-19.107,17.573c-10.462,0.284-20.936,0.081-31.405,0.082c-0.259,0-0.518-0.099-0.952-0.187
		c0-17.252,0-34.506,0-51.983c4.637,0,9.298,0,14.271,0c0,2.696,0,5.299,0,8.393c1.887,0,3.476,0.044,5.063-0.009
		c3.081-0.103,6.211,0.037,9.228-0.471c3.839-0.646,5.902-3.548,5.899-7.395c-0.004-3.754-2.202-6.611-5.919-7.481
		c-1.313-0.307-2.699-0.41-4.053-0.418c-6.463-0.042-12.927-0.006-19.391-0.022c-7.868-0.02-12.51-3.831-14.168-11.579
		c-0.074-0.347-0.275-0.668-0.417-1.001C79.235,102.173,79.235,101.991,79.235,101.808z M103.208,162.741
		c5.272-0.278,10.185-0.239,15.008-0.88c4.411-0.586,7.243-4.057,7.521-8.131c0.311-4.559-2.033-8.396-6.353-9.661
		c-5.304-1.552-10.745-0.605-16.175-0.691C103.208,149.863,103.208,156.005,103.208,162.741z"/>
	<path id="XMLID_86_" style="fill:#1F1F1F;" d="M535.087,101.262c-0.018,14.916,0.022,29.832-0.069,44.747
		c-0.098,16.106-13.587,29.217-29.69,28.989c-15.647-0.222-28.554-12.824-28.74-28.439c-0.18-15.097-0.005-30.198,0.014-45.297
		C496.097,101.262,515.592,101.262,535.087,101.262z M480.187,105.16c-0.141,0.563-0.262,0.82-0.262,1.077
		c-0.007,13.559-0.33,27.129,0.084,40.676c0.49,16.049,15.758,27.406,31.429,23.893c11.605-2.602,19.885-12.67,20.029-24.757
		c0.152-12.83,0.049-25.663,0.041-38.495c-0.001-0.776-0.151-1.551-0.238-2.394C514.127,105.16,497.229,105.16,480.187,105.16z"/>
	<path id="XMLID_83_" style="fill:#1F1F1F;" d="M145.95,101.862c0.539-0.098,0.884-0.217,1.229-0.215
		c9.923,0.05,19.857-0.143,29.768,0.243c10.383,0.405,18.196,7.444,20.039,17.641c1.781,9.855-3.696,20.645-12.11,23.642
		c-0.325,0.116-0.61,0.345-1.158,0.664c5.579,10.137,11.116,20.198,16.844,30.606c-5.443,0-10.351-0.042-15.258,0.024
		c-1.623,0.022-1.886-1.236-2.402-2.216c-3.643-6.917-7.253-13.851-10.849-20.792c-3.165-6.11-3.151-6.12-10-5.913
		c-0.526,0.016-1.05,0.107-1.875,0.195c0,9.524,0,18.943,0,28.531c-4.898,0-9.481,0-14.227,0
		C145.95,150.129,145.95,126.126,145.95,101.862z M160.26,133.993c4.255,0,8.173,0.177,12.062-0.075
		c1.937-0.126,3.927-0.816,5.707-1.649c2.594-1.214,4.253-3.314,4.66-6.294c0.991-7.245-2.404-11.674-9.723-12.178
		c-3.984-0.274-8.002-0.068-12.005-0.054c-0.23,0.001-0.46,0.228-0.702,0.357C160.26,120.658,160.26,127.173,160.26,133.993z"/>
	<path id="XMLID_80_" style="fill:#1F1F1F;" d="M471.137,174.26c-3.511,0-6.701,0.303-9.81-0.067
		c-5.338-0.637-9.208-3.626-11.62-8.455c-3.007-6.019-6.069-12.011-8.986-18.074c-0.784-1.63-1.732-2.321-3.56-2.165
		c-1.974,0.168-3.973,0.038-6.282,0.038c0,9.665,0,19.088,0,28.707c-4.904,0-9.487,0-14.263,0c0-24.137,0-48.205,0-72.41
		c0.521-0.078,0.951-0.201,1.381-0.199c9.742,0.048,19.498-0.201,29.22,0.261c8.467,0.403,15.34,4.271,18.826,12.322
		c3.619,8.36,2.458,16.486-3.323,23.556c-2.051,2.509-5.055,4.239-8.007,6.636C459.962,153.949,465.496,164.007,471.137,174.26z
		 M430.97,113.949c0,6.791,0,13.357,0,20.066c4.059,0,7.867,0.04,11.673-0.026c1.075-0.019,2.166-0.266,3.213-0.547
		c5.215-1.396,7.92-4.918,7.785-10.052c-0.135-5.125-3.01-8.722-8.48-9.335C440.523,113.537,435.781,113.949,430.97,113.949z"/>
	<path id="XMLID_79_" style="fill:#1F1F1F;" d="M220.222,143.829c0,6.132,0,11.824,0,17.903c9.884,0,19.66,0,29.601,0
		c0,4.351,0,8.318,0,12.5c-14.669,0-29.271,0-44.078,0c0-24.091,0-48.16,0-72.426c14.671,0,29.269,0,44.052,0
		c0,4.173,0,8.201,0,12.485c-9.899,0-19.605,0-29.527,0c0,5.736,0,11.216,0,16.941c9.567,0,19.005,0,28.666,0
		c0,4.265,0,8.295,0,12.597C239.461,143.829,230.032,143.829,220.222,143.829z"/>
	<path id="XMLID_78_" style="fill:#1F1F1F;" d="M299.859,131.356c0,4.214,0,8.18,0,12.437c-9.533,0-19.042,0-28.844,0
		c0,6.021,0,11.76,0,17.873c9.758,0,19.529,0,29.479,0c0,4.402,0,8.438,0,12.628c-14.653,0-29.179,0-43.935,0
		c0-24.073,0-48.134,0-72.437c14.539,0,29.125,0,43.917,0c0,4.031,0,8.069,0,12.436c-9.844,0-19.621,0-29.537,0
		c0,5.824,0,11.32,0,17.064C280.678,131.356,290.2,131.356,299.859,131.356z"/>
	<path id="XMLID_77_" style="fill:#1F1F1F;" d="M409.828,161.622c0,4.551,0,8.518,0,12.653c-14.67,0-29.195,0-43.947,0
		c0-24.057,0-48.119,0-72.421c14.54,0,29.126,0,43.903,0c0,4.05,0,8.089,0,12.384c-9.79,0-19.493,0-29.47,0
		c0,5.72,0,11.193,0,16.966c9.541,0,19.048,0,28.766,0c0,4.32,0,8.348,0,12.678c-9.597,0-19.109,0-28.829,0
		c0,5.986,0,11.674,0,17.74C390.046,161.622,399.818,161.622,409.828,161.622z"/>
	<path id="XMLID_76_" style="fill:#1F1F1F;" d="M307.212,174.281c0-3.576-0.182-6.863,0.048-10.12
		c0.261-3.706,1.817-6.975,4.072-9.955c9.334-12.334,18.618-24.707,27.915-37.069c0.532-0.707,1.017-1.45,1.859-2.655
		c-11.521,0-22.534,0-33.771,0c0-4.375,0-8.406,0-12.654c17.166,0,34.318,0,51.774,0c0.573,5.701,0.222,11.103-3.471,15.942
		c-8.389,10.993-16.686,22.056-25.015,33.094c-2.567,3.402-5.118,6.815-8.079,10.759c12.491,0,24.419,0,36.561,0
		c0,4.435,0,8.463,0,12.657C341.824,174.281,324.668,174.281,307.212,174.281z"/>
	<path id="XMLID_73_" style="fill:#1F1F1F;" d="M492.665,119.565c6.107,0,12.018-0.201,17.906,0.078
		c3.382,0.16,6.028,2.029,7.056,5.51c1.019,3.451-0.121,6.352-3.324,8.738c-0.281,0.209-0.663,0.283-1.293,0.54
		c1.096,0.756,1.599,1.096,2.095,1.447c2.907,2.06,4.002,4.914,3.341,8.338c-0.668,3.457-2.782,5.997-6.325,6.244
		c-5.054,0.352-10.151,0.089-15.47,0.089c0-7.048,0-14.35,0-21.845c1.787,0,3.553,0,5.512,0c0.116,0.965,0.231,1.923,0.385,3.205
		c2.139,0,4.286,0.174,6.389-0.053c1.793-0.193,2.544-1.646,2.574-3.354c0.031-1.778-1.124-3.155-2.996-3.261
		c-3.176-0.179-6.366-0.086-9.549-0.181C495.249,124.951,493.405,123.399,492.665,119.565z M502.506,145.565
		c2.541-0.136,4.737-0.063,6.859-0.424c2.022-0.344,2.847-1.744,2.76-3.787c-0.081-1.9-1.206-3.377-3.122-3.549
		c-2.126-0.191-4.282-0.044-6.498-0.044C502.506,140.443,502.506,142.762,502.506,145.565z"/>
</g>
<g id="Layer_1">
</g>
</svg>
