<?xml version="1.0" encoding="iso-8859-1"?>
<!-- Generator: Adobe Illustrator 19.0.0, SVG Export Plug-In . SVG Version: 6.00 Build 0)  -->
<svg version="1.1" xmlns="http://www.w3.org/2000/svg" xmlns:xlink="http://www.w3.org/1999/xlink" x="0px" y="0px"
	 viewBox="0 0 630 276.585" style="enable-background:new 0 0 630 276.585;" xml:space="preserve">
<g id="fuji">
	<path id="XMLID_41_" style="fill-rule:evenodd;clip-rule:evenodd;fill:#1F1F1F;" d="M357.987,170.178c35.758,0,71.516,0,107.274,0
		l25.887-63.771h-41.533l-17.258,42.514h-42.203l6.953-17.129h-41.533l-9.637,23.741L357.987,170.178L357.987,170.178z
		 M474.074,170.178h41.533l25.887-63.771h-41.533L474.074,170.178L474.074,170.178z M137.984,150.606h56.166l7.338-18.727h-55.903
		l2.738-6.746h70.172l7.338-18.727c-37.147,0-74.294,0-111.441,0l-25.887,63.771h41.533L137.984,150.606L137.984,150.606z
		 M225.388,170.178c35.7,0,71.4,0,107.099,0l25.887-63.771h-41.533l-17.259,42.514h-42.028l17.259-42.514H233.28l-19.942,49.126
		L225.388,170.178L225.388,170.178z"/>
</g>
<g id="Layer_1">
</g>
</svg>
