<?xml version="1.0" encoding="iso-8859-1"?>
<!-- Generator: Adobe Illustrator 19.0.0, SVG Export Plug-In . SVG Version: 6.00 Build 0)  -->
<svg version="1.1" xmlns="http://www.w3.org/2000/svg" xmlns:xlink="http://www.w3.org/1999/xlink" x="0px" y="0px"
	 viewBox="0 0 630 276.585" style="enable-background:new 0 0 630 276.585;" xml:space="preserve">
<g id="intersport">
	<path id="XMLID_304_" style="fill-rule:evenodd;clip-rule:evenodd;fill:#1F1F1F;" d="M124.019,128.005
		c0,6.072-4.923,10.993-10.996,10.993c-6.072,0-10.993-4.921-10.993-10.993c0-6.073,4.921-10.994,10.993-10.994
		C119.096,117.011,124.019,121.933,124.019,128.005L124.019,128.005z"/>
	<path id="XMLID_303_" style="fill-rule:evenodd;clip-rule:evenodd;fill:#1F1F1F;" d="M113.407,138.999
		c0,0,8.087,1.902,19.805-11.994c9.33-11.058,24.651-10.526,24.651-10.526v22.521c0,0-10.393-1.466-19.188,10.927
		c-8.795,12.392-25.319,11.326-25.319,11.326L113.407,138.999L113.407,138.999z"/>
	<path id="XMLID_302_" style="fill-rule:evenodd;clip-rule:evenodd;fill:#1F1F1F;" d="M168.708,121.267
		c0-2.861,1.68-4.789,4.302-4.789c2.623,0,4.302,1.928,4.302,4.789v33.988c0,2.863-1.678,4.79-4.302,4.79
		c-2.621,0-4.302-1.927-4.302-4.79V121.267L168.708,121.267z"/>
	<path id="XMLID_301_" style="fill-rule:evenodd;clip-rule:evenodd;fill:#1F1F1F;" d="M185.652,122.086
		c0-3.973,1.73-5.608,5.402-5.608c1.783,0,3.357,0.759,4.302,2.512l15.055,27.039h0.104v-24.936c0-3.097,1.572-4.615,4.144-4.615
		c2.571,0,4.146,1.518,4.146,4.615v32.997c0,3.795-1.471,5.955-5.09,5.955c-2.727,0-3.618-0.643-4.721-2.571l-14.949-26.278h-0.106
		v24.237c0,3.094-1.574,4.612-4.144,4.612c-2.569,0-4.143-1.519-4.143-4.612V122.086L185.652,122.086z"/>
	<path id="XMLID_299_" style="fill-rule:evenodd;clip-rule:evenodd;fill:#1F1F1F;" d="M234.803,125.297h-8.131
		c-2.465,0-4.458-1.402-4.458-4.03c0-2.628,1.994-4.03,4.458-4.03h24.864c2.464,0,4.458,1.402,4.458,4.03
		c0,2.628-1.993,4.03-4.458,4.03h-8.131v29.958c0,2.863-1.679,4.79-4.302,4.79c-2.623,0-4.302-1.927-4.302-4.79V125.297
		L234.803,125.297z"/>
	<path id="XMLID_298_" style="fill-rule:evenodd;clip-rule:evenodd;fill:#1F1F1F;" d="M259.247,122.844
		c0-4.264,1.993-5.607,5.036-5.607h20.195c2.519,0,4.354,0.818,4.354,3.856c0,3.036-1.835,3.853-4.354,3.853h-16.63v9.11h14.584
		c2.254,0,4.039,0.701,4.039,3.681c0,2.978-1.785,3.678-4.039,3.678h-14.584v10.161H284.9c2.516,0,4.353,0.818,4.353,3.856
		c0,3.036-1.837,3.853-4.353,3.853h-20.617c-3.043,0-5.036-1.343-5.036-5.608V122.844L259.247,122.844z"/>
	<path id="XMLID_340_" style="fill-rule:evenodd;clip-rule:evenodd;fill:#1F1F1F;" d="M304.622,124.595h8.867
		c3.776,0,6.24,1.168,6.24,5.665c0,4.73-3.253,5.665-6.503,5.665h-8.604V124.595L304.622,124.595L304.622,124.595z M296.018,155.255
		c0,2.863,1.678,4.79,4.302,4.79c2.623,0,4.302-1.927,4.302-4.79v-12.322h8.497c4.723,0,5.928,2.979,5.928,10.339
		c0,1.693,0.367,6.773,5.088,6.773c1.993,0,4.041-1.519,4.041-3.739c0-1.985-1.157-3.794-1.157-8.641
		c0-4.264-0.786-7.826-5.192-8.527v-0.117c4.093-1.053,6.506-5.548,6.506-10.104c0-5.431-2.727-11.68-12.957-11.68h-14.32
		c-3.044,0-5.037,1.343-5.037,5.607V155.255L296.018,155.255z"/>
	<path id="XMLID_295_" style="fill-rule:evenodd;clip-rule:evenodd;fill:#1F1F1F;" d="M364.302,128.199
		c-3.209-1.249-7.006-2.083-11.07-2.083c-2.244,0-6.149,0.06-6.149,2.739c0,5.416,19.623,0.298,19.623,16.312
		c0,11.132-9.89,13.93-18.177,13.93c-5.509,0-10.052-0.597-15.401-1.966v-10.774c3.849,1.786,8.555,2.739,12.834,2.739
		c3.366,0,6.417-0.776,6.417-2.859c0-5.595-19.624-0.536-19.624-16.667c0-11.429,10.693-13.454,19.194-13.454
		c4.013,0,8.449,0.536,12.353,1.429V128.199L364.302,128.199z"/>
	<path id="XMLID_322_" style="fill-rule:evenodd;clip-rule:evenodd;fill:#1F1F1F;" d="M379.13,127.723h1.293
		c2.236,0,5.018,0.165,5.018,3.428c0,3.373-2.584,3.815-4.97,3.815h-1.341V127.723L379.13,127.723L379.13,127.723z M366.019,158.026
		h13.111v-12.551h6.954c7.603,0,12.369-5.311,12.369-13.827c0-10.341-6.458-15.317-15.199-15.317h-17.236V158.026L366.019,158.026z"
		/>
	<path id="XMLID_319_" style="fill-rule:evenodd;clip-rule:evenodd;fill:#1F1F1F;" d="M418.032,129.382
		c4.321,0,7.004,3.705,7.004,8.13c0,4.755-2.882,8.018-7.004,8.018c-4.124,0-7.004-3.263-7.004-8.018
		C411.028,133.087,413.712,129.382,418.032,129.382L418.032,129.382L418.032,129.382z M418.032,115.667
		c-11.375,0-20.714,8.516-20.714,21.624c0,13.383,9.29,21.401,20.714,21.401c11.425,0,20.712-8.018,20.712-21.401
		C438.744,124.183,429.407,115.667,418.032,115.667L418.032,115.667z"/>
	<path id="XMLID_316_" style="fill-rule:evenodd;clip-rule:evenodd;fill:#1F1F1F;" d="M451.627,127.723h1.043
		c2.335,0,4.37,0.386,4.37,3.594c0,3.097-2.234,3.483-4.471,3.483h-0.943V127.723L451.627,127.723L451.627,127.723z
		 M438.315,158.026h13.312v-13.381h0.248l5.959,13.381h15.696l-8.145-13.548c-0.747-1.216-1.589-1.879-2.288-2.488v-0.332
		c5.071-1.881,7.255-4.535,7.255-10.839c0-10.507-7.152-14.489-15.596-14.489h-16.441V158.026L438.315,158.026z"/>
	<polygon id="XMLID_288_" style="fill-rule:evenodd;clip-rule:evenodd;fill:#1F1F1F;" points="468.776,116.331 497.387,116.331 
		497.387,129.88 489.887,129.493 489.887,158.026 476.274,158.026 476.274,129.493 468.776,129.88 468.776,116.331 	"/>
	<path id="XMLID_306_" style="fill-rule:evenodd;clip-rule:evenodd;fill:#1F1F1F;" d="M504.437,123.358
		c-1.787,0-3.12-1.448-3.12-3.472c0-2.047,1.332-3.494,3.12-3.494c1.754,0,3.117,1.447,3.117,3.494
		C507.555,121.91,506.191,123.358,504.437,123.358L504.437,123.358L504.437,123.358z M504.437,124.439
		c2.27,0,4.089-2.035,4.089-4.553c0-2.541-1.819-4.576-4.089-4.576c-2.284,0-4.091,2.035-4.091,4.576
		C500.346,122.404,502.154,124.439,504.437,124.439L504.437,124.439L504.437,124.439z M505.365,120.197
		c0.755-0.057,1.157-0.414,1.157-1.287c0-1.254-0.671-1.45-1.654-1.45h-2.064v4.736h0.951v-2h0.661l0.949,2h1.033L505.365,120.197
		L505.365,120.197L505.365,120.197z M503.755,119.483v-1.195h0.919c0.411,0,0.96,0,0.96,0.483c0,0.597-0.269,0.712-0.745,0.712
		H503.755L503.755,119.483z"/>
</g>
<g id="Layer_1">
</g>
</svg>
