<?xml version="1.0" encoding="iso-8859-1"?>
<!-- Generator: Adobe Illustrator 19.0.0, SVG Export Plug-In . SVG Version: 6.00 Build 0)  -->
<svg version="1.1" xmlns="http://www.w3.org/2000/svg" xmlns:xlink="http://www.w3.org/1999/xlink" x="0px" y="0px"
	 viewBox="0 0 630 276.585" style="enable-background:new 0 0 630 276.585;" xml:space="preserve">
<g id="marriott">
	<g id="XMLID_34_">
		<path id="XMLID_30_" style="fill:#1F1F1F;" d="M129.013,171.884c-2.703,9.083-29.53,3.119-37.952-11.785
			c11.051,1.228,23.504-8.558,23.713-19.709L129.013,171.884z"/>
		<path id="XMLID_29_" style="fill:#1F1F1F;" d="M139.993,170.709c1.228-0.543,3.699-1.773,4.311-4.4l-28.865-62.61
			c-1.93-0.248-3.33-0.422-5.786,1.329L139.993,170.709z"/>
		<path id="XMLID_28_" style="fill:#1F1F1F;" d="M152.969,157.118c12.275-18.59,1.93-49.103-24.519-53.385L152.969,157.118z"/>
		<path id="XMLID_27_" style="fill:#1F1F1F;" d="M382.708,115.675c2.901-2.438,8.018-2.499,11.331-0.927
			c1.392,0.694,2.724,1.628,3.605,2.846l-6.399,9.936c-0.811-0.638-1.393-0.93-2.437-1.452c-3.17-1.365-6.512-0.566-8.426,1.161
			v28.998c-0.042,5.011,0.828,9.587,3.43,11.968h-14.525c-3.025-2.323-3.778-6.044-4.07-9.297l-0.119-38.553
			c0.133-3.123-0.665-4.502-1.919-6.246l15.052,0.056c1.217,0.872,1.277,2.386,1.915,3.549L382.708,115.675z"/>
		<path id="XMLID_26_" style="fill:#1F1F1F;" d="M401.068,125.206c-0.116-3.662,0.698-8.047-1.699-11.213h13.959
			c0.93,0.697,1.455,1.859,1.743,2.963c0.755,0.987,0.699,2.382,1.049,3.545l0.116,41.08c0.579,2.442,1.509,4.911,3.312,6.826
			l-14.937,0.032c-4.883-4.721-3.282-12.493-3.658-20.514L401.068,125.206z"/>
		<path id="XMLID_46_" style="fill:#1F1F1F;" d="M423.153,125.613c1.508-4.183,6.212-6.278,9.636-8.54
			c5.234-1.919,10.986-6.683,16.852-2.791c4.884,3.196,9.184,6.796,12.264,11.739c0.758,1.915,1.105,4.063,1.627,6.098
			c0,2.733,0.579,4.766,0.523,7.496c0.176,2.966,0.176,5.64,0,8.544c-0.171,4.935-2.497,9.354-6.392,12.779
			c-5.808,5.172-13.129,11.045-21.033,7.036c-7.089-3.316-15.463-9.878-14.932-18.885c-0.292-6.393-0.587-11.913,0.29-18.132
			C422.332,129.156,422.157,127.181,423.153,125.613 M437.676,154.667c0.695,2.557,2.035,5.695,5.115,6.044
			c1.8,0.056,3.136-1.455,4.177-2.731c3.26-6.395,2.793-13.369,2.793-20.628c-1.045-5.406,0.231-12.783-5.578-16.097
			c-2.034-0.756-3.602,0.638-4.879,1.915c-2.27,3.429-2.53,7.351-2.673,11.713C435.877,141.853,436.69,147.635,437.676,154.667"/>
		<path id="XMLID_23_" style="fill:#1F1F1F;" d="M474.399,168.321c-4.506-2.354-5.204-9.007-5.099-25.173l0.1-24.783l-8.542-0.015
			l1.919-4.592h6.622v-11.736l15.866-5.868l-0.011,17.214l7.272,0.011l-1.919,5.085l-5.343-0.008l-0.03,42.893
			c0.348,3.455,1.508,5.488,3.166,6.972H474.399z"/>
		<path id="XMLID_22_" style="fill:#1F1F1F;" d="M329.364,120.355c-0.097-3.13-0.664-4.502-1.919-6.246l15.048,0.056
			c1.221,0.872,1.277,2.386,1.92,3.549l2.56-2.038c2.901-2.438,8.016-2.499,11.331-0.927c1.392,0.694,2.729,1.628,3.602,2.846
			l-6.391,9.936c-0.814-0.638-1.4-0.93-2.442-1.452c-3.17-1.365-6.51-0.566-8.426,1.161v28.998
			c-0.041,5.011,0.829,9.587,3.431,11.968h-14.533c-3.021-2.323-3.879-5.788-4.062-9.297L329.364,120.355z"/>
		<path id="XMLID_21_" style="fill:#1F1F1F;" d="M215.531,135.607l-5.496,11.25c-3.736,6.642-8.978,14.779-17.012,16.802
			c-3.113,1.089-5.861,0.108-8.87-0.103l-9.699,15.868c0.728,0.78,1.754,1.434,2.751,1.817c17.061,6.511,23.934-0.493,40.733-38.454
			l15.873,33.814h21.134l-9.987-22.82l5.657-11.797l15.609,34.096l20.226,0.13l-35.398-77.791l-16.303,8.105l12.779,29.026
			l-5.6,11.413L218.51,96.408l-17.177,8.751L215.531,135.607z"/>
		<path id="XMLID_40_" style="fill:#1F1F1F;" d="M280.496,149.32c0.403-5.634,3.487-10.926,8.713-13.771
			c5.175-3.195,11.219-4.476,16.562-7.263c0.929-0.756,2.094-1.686,2.15-2.904c0.06-1.51-0.695-2.673-2.034-3.196
			c-8.131-1.743-14.874,3.371-20.799,8.425c0.755-3.718,1.337-7.786,3.081-11.273c0.866-0.929,1.392-2.21,2.553-2.906
			c5.753-2.846,12.958-3.658,19.409-3.196c5.287,0.349,10.169,4.125,11.972,8.95c0.926,2.267,0.866,4.823,1.045,7.144l0.06,31.497
			c0.056,2.729,1.333,5.286,2.957,7.496h-15.049c-1.799-1.627-2.688-3.662-3.195-6.219c-4.207,3.72-13.003,9.239-18.244,5.581
			C284.245,165.241,279.275,157.049,280.496,149.32 M307.166,138.368c-0.116-2.181-1.683-2.412-2.788-2.412
			c-3.602,0.523-6.701,3.539-8.426,6.625c-1.539,2.758-1.901,5.084-2.036,7.496c-0.011,2.6-0.171,4.53,0.875,6.507
			c0.578,1.281,1.859,1.862,3.08,2.209c2.322,0.463,4.472-0.176,6.276-1.395c4.24-2.381,3.483-7.149,3.547-11.388L307.166,138.368z"
			/>
		<path id="XMLID_35_" style="fill:#1F1F1F;" d="M529.838,167.492c-2.405,0-4.353-1.943-4.353-4.351
			c0-2.378,1.949-4.323,4.353-4.323c2.396,0,4.326,1.945,4.326,4.323C534.164,165.55,532.234,167.492,529.838,167.492
			 M529.838,168.416c2.913,0,5.249-2.35,5.249-5.275c0-2.897-2.336-5.248-5.249-5.248c-2.92,0-5.271,2.348-5.271,5.248
			C524.567,166.067,526.918,168.416,529.838,168.416 M529.532,163.491c0.339,0.03,0.662,0,0.896,0.252
			c0.281,0.295,0.281,0.784,0.351,1.314c0.044,0.364,0.138,0.758,0.209,1.105h1.231c-0.209-0.559-0.279-1.204-0.366-1.789
			c-0.096-0.669-0.197-1.047-1.045-1.217v-0.03c0.821-0.164,1.255-0.727,1.255-1.441c0-1.4-1.173-1.704-2.308-1.704h-2v6.181h0.97
			v-2.671H529.532z M528.725,162.528v-1.583h1.162c0.766,0,0.974,0.241,0.974,0.7c0,0.478-0.208,0.855-1.116,0.883H528.725z"/>
	</g>
	<g id="XMLID_67_">
		<path id="XMLID_32_" style="fill:#1F1F1F;" d="M506.878,168.321c-4.498-2.354-5.2-9.007-5.099-25.173l0.101-24.783l-8.538-0.015
			l1.918-4.592h6.62v-11.736l15.865-5.868l-0.007,17.214l7.272,0.011l-1.915,5.085l-5.35-0.008l-0.03,42.893
			c0.348,3.455,1.508,5.488,3.166,6.972H506.878z"/>
		<path id="XMLID_31_" style="fill:#1F1F1F;" d="M108.074,126.147c1.613,4.418,5.264,8.98,2.666,14.098
			c-1.262,5.191-6.171,9.4-11.364,10.242c-5.398,0.493-10.591-0.418-14.59-3.717c-2.878-15.013,3.226-28.905,15.082-37.181
			L108.074,126.147z"/>
	</g>
</g>
<g id="Layer_1">
</g>
</svg>
