<?xml version="1.0" encoding="iso-8859-1"?>
<!-- Generator: Adobe Illustrator 19.0.0, SVG Export Plug-In . SVG Version: 6.00 Build 0)  -->
<svg version="1.1" xmlns="http://www.w3.org/2000/svg" xmlns:xlink="http://www.w3.org/1999/xlink" x="0px" y="0px"
	 viewBox="0 0 630 276.585" style="enable-background:new 0 0 630 276.585;" xml:space="preserve">
<g id="merrell">
	<g id="XMLID_430_">
		<g>
			<path style="fill:#1F1F1F;" d="M266.869,125.389c0.051-7.175-6.303-12.104-13.912-12.105l-31.918,0.006l0.003,39.674
				l12.127-0.006l-0.001-14.96l8.5-0.008l11.307,14.973l13.753-0.006l-12.177-15.628
				C261.24,137.438,266.816,132.081,266.869,125.389z M247.881,131.694l-14.762,0.003v-12.188l15.029-0.002
				c3.563-0.051,6.521,2.858,6.416,6.319C254.456,129.243,251.386,131.901,247.881,131.694z"/>
		</g>
	</g>
	<g id="XMLID_404_">
		<g>
			<path style="fill:#1F1F1F;" d="M319.946,125.389c0.052-7.175-6.301-12.104-13.912-12.105h-31.918l0.005,39.68l12.126-0.006
				l-0.002-14.96l8.5-0.008l11.312,14.973l13.754-0.006l-12.184-15.628C314.319,137.438,319.893,132.081,319.946,125.389z
				 M300.958,131.694l-14.761,0.003v-12.188l15.028-0.002c3.564-0.051,6.522,2.858,6.418,6.319
				C307.533,129.243,304.463,131.901,300.958,131.694z"/>
		</g>
	</g>
	<polygon id="XMLID_376_" style="fill:#1F1F1F;" points="186.937,135.31 210.281,135.306 210.281,129.503 187.026,129.506 
		187.033,119.345 214.095,119.344 214.095,113.284 174.808,113.286 174.812,152.964 214.336,152.958 214.332,146.887 
		186.937,146.893 	"/>
	<polygon id="XMLID_375_" style="fill:#1F1F1F;" points="339.147,135.31 362.487,135.306 362.487,129.503 339.232,129.506 
		339.24,119.345 366.302,119.344 366.302,113.284 327.013,113.286 327.017,152.964 366.542,152.958 366.538,146.887 
		339.147,146.893 	"/>
	<polygon id="XMLID_374_" style="fill:#1F1F1F;" points="137.353,143.368 124.861,113.284 109.066,113.284 109.07,152.964 
		116.403,152.962 116.401,120.451 128.5,152.958 141.601,152.964 153.672,120.427 153.682,152.962 166.09,152.96 166.085,113.284 
		148.501,113.284 	"/>
	<polygon id="XMLID_373_" style="fill:#1F1F1F;" points="385.263,113.287 373.229,113.287 373.226,152.964 411.232,152.952 
		411.235,146.941 385.263,146.939 	"/>
	<polygon id="XMLID_372_" style="fill:#1F1F1F;" points="428.881,113.278 416.848,113.278 416.848,152.952 454.85,152.952 
		454.854,146.941 428.885,146.939 	"/>
	<path id="XMLID_392_" style="fill:#1F1F1F;" d="M494.901,97.81c-19.672,0-35.625,15.959-35.625,35.624
		c0,19.686,15.953,35.626,35.625,35.626c19.679,0,35.617-15.939,35.617-35.626C530.518,113.769,514.58,97.81,494.901,97.81z
		 M517,145.428v-21.429l-7.371,23.543l-9.785,2.876L489,122.39v31.202l-15,4.523v-50.069l23.439,3.663l7.995,22.589l6.006-20.371
		L523,115.728v27.835L517,145.428z"/>
</g>
<g id="Layer_1">
</g>
</svg>
