<?xml version="1.0" encoding="iso-8859-1"?>
<!-- Generator: Adobe Illustrator 19.0.0, SVG Export Plug-In . SVG Version: 6.00 Build 0)  -->
<svg version="1.1" xmlns="http://www.w3.org/2000/svg" xmlns:xlink="http://www.w3.org/1999/xlink" x="0px" y="0px"
	 viewBox="0 0 630 276.585" style="enable-background:new 0 0 630 276.585;" xml:space="preserve">
<g id="mikes-bikes">
	<path id="XMLID_510_" style="fill:#1F1F1F;" d="M520.528,129.066c-0.53,2.486-1.883,4.596-3.065,6.788
		c-0.248,0.46-0.531,0.608-1.031,0.594c-1.182-0.033-2.366-0.011-3.603-0.011c0.043,0.174,0.046,0.278,0.092,0.359
		c1.468,2.605,1.338,5.23,0.063,7.846c-2.073,4.251-5.486,7.016-9.819,8.724c-3.731,1.47-7.638,1.906-11.61,1.813
		c-1.592-0.037-3.192-0.187-4.767-0.427c-2.833-0.431-5.374-1.461-7.075-4.04c-3.857,2.741-8.213,3.956-12.824,4.326
		c-4.553,0.366-9.072,0.291-13.361-1.756c-0.086,0.447-0.162,0.846-0.253,1.32c-0.268,0.012-0.545,0.035-0.821,0.035
		c-17.702,0.002-35.403,0.003-53.105-0.007c-0.316,0-0.821,0.235-0.826-0.489c-1.917,0.614-3.87,0.51-5.823,0.506
		c-7.999-0.019-15.998-0.008-23.998-0.008c-0.299,0-0.598,0-1.03,0c0.606-1.198,1.146-2.267,1.756-3.475
		c-0.251,0.109-0.385,0.146-0.495,0.218c-3.399,2.244-7.198,3.27-11.198,3.656c-2.781,0.269-5.567,0.245-8.333-0.151
		c-2.972-0.426-5.743-1.305-7.625-3.946c-3.854,2.616-8.146,3.768-12.681,4.107c-4.505,0.337-8.969,0.26-13.21-1.792
		c-0.087,0.47-0.164,0.888-0.248,1.34c-33.86,0-67.681,0-101.626,0c0.146-0.294,0.254-0.535,0.382-0.766
		c4.347-7.874,8.687-15.752,13.06-23.611c0.322-0.58,0.236-0.871-0.214-1.29c-2.872-2.668-5.72-5.362-8.574-8.049
		c-0.109-0.103-0.205-0.22-0.388-0.416c0.31-0.025,0.525-0.058,0.74-0.058c17.134-0.002,34.268-0.01,51.402,0.014
		c1.098,0.002,2.212,0.168,3.289,0.395c1.782,0.375,3.331,1.223,4.6,2.749c0.493-0.864,0.993-1.632,1.378-2.454
		c0.277-0.591,0.66-0.719,1.265-0.719c17.418,0.014,34.835,0.028,52.253-0.011c1.975-0.004,3.946-0.38,5.924-0.484
		c3.47-0.183,6.909,0.007,10.191,1.31c0.425,0.169,0.647,0.054,0.914-0.25c1.48-1.687,2.968-3.368,4.477-5.029
		c0.199-0.219,0.538-0.441,0.813-0.442c6.502-0.025,13.004-0.019,19.726-0.019c-1.839,1.474-3.538,2.836-5.32,4.265
		c1.654,0.189,3.168,0.289,4.655,0.547c2.463,0.427,4.734,1.301,6.338,3.357c0.407,0.521,0.732,1.126,0.992,1.736
		c0.249,0.585,0.365,1.227,0.562,1.924c0.127-0.187,0.244-0.332,0.332-0.492c1.267-2.303,2.521-4.613,3.804-6.907
		c0.238-0.426,0.239-0.673-0.15-1.038c-2.746-2.576-5.462-5.184-8.185-7.784c-0.181-0.172-0.342-0.365-0.559-0.598
		c11.435,0,22.786,0,34.274,0c-1.709,3.169-3.352,6.216-5.039,9.346c3.43,0.009,6.612,0.414,8.942,3.318
		c0.415-0.757,0.816-1.411,1.139-2.102c0.229-0.488,0.531-0.65,1.071-0.647c3.948,0.024,7.896,0.013,11.844,0.013
		c13.418,0,26.836,0.023,40.254-0.024c2.181-0.008,4.359-0.371,6.543-0.493c3.053-0.172,6.088,0.002,9.035,0.89
		c2.308,0.696,4.282,1.901,5.57,4.069c0.149-0.076,0.271-0.116,0.366-0.19c3.432-2.679,7.38-4.047,11.655-4.561
		c3.556-0.428,7.101-0.419,10.598,0.473c1.724,0.44,3.289,1.191,4.553,2.493c0.922,0.951,1.519,2.069,1.828,3.35
		c0.04,0.167,0.117,0.325,0.176,0.488C520.528,127.621,520.528,128.344,520.528,129.066z M252.711,150.611c0.414,0,0.687,0,0.961,0
		c2.993,0,5.987-0.022,8.979,0.017c0.655,0.009,1.007-0.186,1.323-0.762c3.411-6.232,6.858-12.444,10.272-18.674
		c0.466-0.85,0.903-1.739,1.185-2.661c0.446-1.457-0.117-2.738-1.525-3.289c-0.984-0.385-2.084-0.66-3.133-0.663
		c-13.779-0.043-27.558-0.029-41.337-0.027c-0.214,0-0.427,0.033-0.78,0.062c1.51,1.425,2.91,2.747,4.324,4.081
		c-4.019,7.286-8.022,14.543-12.09,21.918c0.421,0,0.651,0,0.881,0c3.071,0,6.141-0.014,9.212,0.013
		c0.558,0.005,0.86-0.153,1.138-0.66c3.076-5.622,6.19-11.224,9.278-16.84c0.824-1.499,2.068-2.233,3.765-2.248
		c1.845-0.016,2.185,0.545,1.303,2.176c-0.012,0.023-0.021,0.047-0.034,0.07c-2.975,5.384-5.951,10.767-8.925,16.152
		c-0.22,0.398-0.423,0.806-0.7,1.334c0.404,0,0.677,0,0.95,0c3.019,0,6.038-0.019,9.057,0.016c0.628,0.007,0.948-0.199,1.246-0.746
		c3.037-5.556,6.103-11.096,9.164-16.639c1.043-1.888,2.543-2.617,4.699-2.297c0.841,0.125,1.113,0.567,0.807,1.349
		c-0.121,0.31-0.282,0.607-0.443,0.899c-3.048,5.521-6.099,11.04-9.148,16.56C253.012,149.99,252.898,150.238,252.711,150.611z
		 M392.079,118.511c-5.854,10.687-11.686,21.337-17.56,32.061c0.294,0.021,0.446,0.041,0.597,0.041
		c6.011,0.001,12.022,0.01,18.032-0.01c0.768-0.002,1.546-0.095,2.302-0.241c4.293-0.826,7.343-3.332,9.432-7.091
		c2.341-4.211,4.678-8.424,6.98-12.656c0.426-0.784,0.769-1.637,0.996-2.499c0.409-1.554-0.116-2.754-1.394-3.416
		c-0.384-0.199-0.804-0.373-1.227-0.447c-3.818-0.665-7.437-0.158-10.779,1.902c-0.226,0.14-0.456,0.274-0.684,0.411
		c-0.039-0.038-0.078-0.076-0.118-0.114c2.106-3.902,4.211-7.805,6.386-11.835c-5.719,0-11.28,0-17.02,0
		C389.452,115.988,390.747,117.232,392.079,118.511z M283.902,150.454c0.245,0.042,0.367,0.081,0.489,0.081
		c3.277,0.004,6.554-0.005,9.831,0.015c0.498,0.003,0.662-0.304,0.849-0.646c1.823-3.344,3.644-6.689,5.47-10.032
		c0.451-0.827,0.916-1.646,1.374-2.469c0.031,0.014,0.062,0.028,0.093,0.042c-0.361,4.337-0.722,8.674-1.086,13.037
		c3.763,0,7.385,0,11.09,0c0.156-1.478,0.298-2.909,0.458-4.337c0.35-3.118,0.714-6.234,1.059-9.352
		c0.059-0.533,0.227-0.96,0.645-1.337c3.77-3.404,7.524-6.826,11.282-10.244c0.192-0.174,0.372-0.361,0.681-0.661
		c-3.744,0-7.278-0.007-10.811,0.016c-0.243,0.002-0.525,0.184-0.72,0.359c-2.878,2.583-5.744,5.181-8.615,7.772
		c-0.902,0.814-1.81,1.621-2.715,2.431c-0.027-0.028-0.055-0.056-0.082-0.084c1.891-3.464,3.782-6.928,5.701-10.445
		c-0.225-0.026-0.327-0.048-0.428-0.048c-3.303-0.002-6.606,0.011-9.909-0.017c-0.496-0.004-0.665,0.25-0.858,0.605
		c-3.238,5.945-6.484,11.885-9.725,17.827C286.633,145.429,285.296,147.893,283.902,150.454z M446.535,124.55
		c-0.425,0-0.698,0-0.971,0c-2.993,0-5.987,0.028-8.979-0.021c-0.708-0.012-1.038,0.243-1.358,0.832
		c-4.396,8.11-8.816,16.208-13.229,24.309c-0.143,0.263-0.27,0.536-0.467,0.927c0.404,0,0.678,0,0.952,0
		c2.993,0,5.987-0.018,8.979,0.015c0.625,0.007,0.967-0.189,1.263-0.74c2.162-4.016,4.356-8.014,6.542-12.018
		c0.096-0.176,0.212-0.342,0.318-0.513c0.03,0.018,0.06,0.036,0.09,0.054c-0.361,4.376-0.723,8.752-1.085,13.14
		c3.752,0,7.374,0,11.033,0c0.133-1.182,0.259-2.308,0.386-3.434c0.39-3.457,0.792-6.913,1.157-10.373
		c0.055-0.524,0.219-0.902,0.615-1.259c3.77-3.406,7.522-6.832,11.283-10.247c0.197-0.178,0.437-0.308,0.658-0.461
		c-0.057-0.061-0.115-0.121-0.173-0.182c-0.101-0.01-0.203-0.028-0.304-0.028c-3.354-0.002-6.709-0.015-10.063,0.018
		c-0.336,0.003-0.733,0.217-0.996,0.452c-2.848,2.541-5.674,5.108-8.507,7.665c-0.924,0.833-1.853,1.661-2.779,2.491
		c-0.038-0.031-0.077-0.062-0.115-0.092C442.677,131.619,444.569,128.152,446.535,124.55z M344.514,140.861
		c-0.131-0.02-0.229-0.049-0.327-0.049c-3.302-0.003-6.605-0.014-9.907,0.017c-0.261,0.002-0.617,0.235-0.762,0.466
		c-0.506,0.805-0.991,1.631-1.388,2.494c-0.79,1.718-2.1,2.428-3.963,2.314c-1.352-0.083-1.663-0.553-1.01-1.752
		c0.874-1.605,1.812-3.177,2.624-4.812c0.369-0.743,0.827-0.942,1.614-0.936c4.566,0.035,9.133,0.024,13.699,0.002
		c0.315-0.001,0.792-0.123,0.918-0.345c1.396-2.462,2.823-4.912,4.069-7.45c1.274-2.595,0.366-4.705-2.302-5.794
		c-1.491-0.609-3.058-0.826-4.657-0.956c-3.841-0.31-7.622-0.015-11.291,1.155c-3.686,1.176-6.796,3.152-8.695,6.707
		c-1.637,3.064-3.365,6.079-5.018,9.135c-0.72,1.33-1.475,2.661-1.995,4.073c-0.663,1.798,0.005,3.364,1.629,4.376
		c1.456,0.907,3.099,1.221,4.764,1.402c2.597,0.282,5.192,0.217,7.785-0.128c2.776-0.369,5.417-1.124,7.892-2.464
		C341.265,146.651,343.166,144.022,344.514,140.861z M482.083,140.809c-3.454,0-6.857-0.009-10.26,0.021
		c-0.233,0.002-0.547,0.251-0.68,0.472c-0.583,0.971-1.122,1.969-1.661,2.966c-0.963,1.78-2.506,2.042-4.385,1.775
		c-0.631-0.089-0.821-0.526-0.603-1.156c0.084-0.241,0.205-0.472,0.328-0.697c0.882-1.602,1.806-3.183,2.635-4.811
		c0.334-0.656,0.748-0.827,1.444-0.822c4.617,0.029,9.234,0.013,13.851,0.018c0.397,0,0.723-0.006,0.96-0.444
		c1.248-2.312,2.567-4.586,3.793-6.909c1.512-2.867,0.628-5.124-2.398-6.303c-0.239-0.093-0.484-0.192-0.735-0.231
		c-1.42-0.224-2.837-0.526-4.267-0.626c-3.945-0.276-7.831,0.104-11.564,1.479c-3.531,1.301-6.382,3.427-8.061,6.916
		c-0.424,0.88-0.945,1.714-1.417,2.571c-1.628,2.956-3.303,5.887-4.869,8.876c-1.47,2.805-0.57,5.037,2.374,6.186
		c0.215,0.084,0.434,0.176,0.66,0.215c1.342,0.228,2.679,0.531,4.031,0.643c3.917,0.324,7.771-0.057,11.514-1.309
		C477.208,148.156,480.357,145.293,482.083,140.809z M366.964,132.176c0.116,0.077,0.157,0.127,0.198,0.127
		c3.019,0.009,6.038,0.02,9.056,0.006c0.187-0.001,0.46-0.156,0.546-0.318c0.467-0.884,0.99-1.759,1.304-2.701
		c0.645-1.932-0.042-3.383-1.88-4.248c-0.301-0.142-0.614-0.286-0.938-0.347c-1.233-0.232-2.465-0.511-3.711-0.626
		c-4.195-0.388-8.273,0.121-12.14,1.867c-2.799,1.264-5.09,3.117-6.486,5.927c-1.036,2.085-0.807,4.022,0.918,5.551
		c1.437,1.274,3.093,2.3,4.632,3.463c0.592,0.447,1.17,0.93,1.676,1.47c0.526,0.562,0.565,1.241,0.164,1.924
		c-0.731,1.244-1.815,1.833-3.258,1.824c-1.895-0.012-2.278-0.649-1.364-2.321c0.261-0.477,0.515-0.958,0.835-1.553
		c-3.239,0-6.281-0.005-9.324,0.013c-0.189,0.001-0.468,0.144-0.55,0.301c-0.555,1.07-1.172,2.124-1.573,3.253
		c-0.709,1.998-0.037,3.371,1.918,4.231c1.433,0.63,2.958,0.801,4.503,0.932c3.652,0.309,7.255,0.101,10.774-0.966
		c3.845-1.167,6.973-3.285,8.842-6.967c1.138-2.241,0.856-4.039-1.068-5.674c-1.488-1.263-3.141-2.331-4.712-3.498
		c-0.557-0.413-1.133-0.816-1.621-1.303c-0.762-0.759-0.772-1.48-0.11-2.33c0.801-1.027,1.901-1.337,3.152-1.298
		c1.284,0.039,1.612,0.569,1.031,1.726C367.515,131.163,367.232,131.671,366.964,132.176z M494.497,142.373
		c-0.154-0.059-0.222-0.107-0.29-0.107c-2.966-0.007-5.932-0.016-8.898,0.004c-0.208,0.001-0.505,0.173-0.605,0.352
		c-0.5,0.899-1.023,1.796-1.399,2.749c-0.932,2.36-0.186,3.934,2.195,4.801c0.338,0.123,0.681,0.255,1.034,0.308
		c1.246,0.187,2.492,0.414,3.746,0.496c3.866,0.253,7.676-0.048,11.333-1.441c3.295-1.255,5.932-3.303,7.554-6.5
		c1.144-2.254,0.779-4.084-1.093-5.764c-0.345-0.309-0.704-0.608-1.081-0.876c-1.238-0.882-2.497-1.735-3.727-2.627
		c-0.56-0.407-1.122-0.833-1.595-1.334c-0.628-0.665-0.636-1.27-0.136-2.036c0.755-1.156,1.895-1.521,3.204-1.506
		c1.43,0.017,1.768,0.585,1.107,1.841c-0.248,0.47-0.498,0.938-0.774,1.457c0.184,0.05,0.276,0.098,0.369,0.098
		c2.94,0.005,5.881,0.01,8.821-0.007c0.194-0.001,0.489-0.13,0.564-0.284c0.505-1.036,1.073-2.061,1.411-3.155
		c0.446-1.443-0.088-2.666-1.385-3.44c-0.611-0.364-1.293-0.685-1.984-0.827c-5.473-1.13-10.814-0.775-15.918,1.644
		c-2.057,0.975-3.795,2.377-5.112,4.262c-2.205,3.156-1.855,5.614,1.195,7.953c1.061,0.814,2.217,1.505,3.312,2.277
		c0.567,0.4,1.141,0.809,1.63,1.295c0.913,0.906,0.929,1.72,0.137,2.742c-0.916,1.182-2.171,1.489-3.585,1.355
		c-1.122-0.106-1.51-0.726-1.056-1.749C493.761,143.697,494.129,143.075,494.497,142.373z M293.275,124.61
		c-0.197-0.026-0.317-0.056-0.437-0.056c-3.277-0.003-6.554,0.009-9.831-0.015c-0.495-0.004-0.663,0.27-0.856,0.619
		c-4.551,8.218-9.107,16.434-13.66,24.651c-0.13,0.235-0.242,0.479-0.407,0.806c3.564,0,6.995,0.011,10.424-0.024
		c0.243-0.002,0.574-0.296,0.71-0.54c4.569-8.208,9.12-16.427,13.672-24.646C293.022,125.165,293.129,124.913,293.275,124.61z
		 M430.685,124.55c-0.425,0-0.681,0-0.936,0c-3.017,0-6.034,0.019-9.05-0.016c-0.627-0.007-0.959,0.197-1.259,0.739
		c-4.509,8.161-9.039,16.309-13.563,24.462c-0.143,0.258-0.271,0.526-0.452,0.88c0.363,0,0.593,0,0.823,0
		c3.068,0,6.137-0.015,9.205,0.014c0.567,0.005,0.863-0.18,1.136-0.675c4.096-7.414,8.215-14.817,12.328-22.222
		C429.476,126.724,430.037,125.717,430.685,124.55z M352.321,124.824c0.03,0.07,0.06,0.14,0.091,0.21
		c1.353,0,2.706,0.011,4.058-0.014c0.175-0.003,0.361-0.177,0.518-0.301c1.677-1.321,3.352-2.645,5.023-3.974
		c0.408-0.324,0.799-0.669,1.233-1.033c-0.146-0.068-0.189-0.104-0.232-0.105c-1.39-0.006-2.787,0.082-4.167-0.037
		c-1.351-0.117-2.304,0.279-3.138,1.377C354.671,122.309,353.458,123.537,352.321,124.824z"/>
	<path id="XMLID_502_" style="fill:#1F1F1F;" d="M153.407,85.402c0.446,1.007,0.92,2.002,1.325,3.026
		c0.165,0.417,0.367,0.606,0.823,0.637c0.951,0.065,1.895,0.217,2.846,0.273c0.213,0.013,0.516-0.17,0.647-0.355
		c0.477-0.672,0.917-1.372,1.333-2.084c0.301-0.515,0.665-0.711,1.275-0.565c2.128,0.509,1.928,0.119,2.101,2.17
		c0.136,1.617,0.876,2.239,2.366,2.709c1.337,0.422,2.222,0.357,2.981-0.805c0.028-0.042,0.071-0.074,0.108-0.11
		c1.536-1.493,0.972-1.417,3.13-0.485c0.438,0.189,0.619,0.495,0.596,0.969c-0.041,0.85-0.042,1.702-0.087,2.552
		c-0.023,0.429,0.086,0.711,0.503,0.925c0.801,0.412,1.58,0.871,2.343,1.351c0.337,0.212,0.589,0.202,0.906-0.019
		c0.719-0.501,1.435-1.016,2.203-1.432c0.275-0.149,0.696-0.027,1.05-0.026c0.021,0,0.042,0.028,0.063,0.044
		c1.852,1.365,1.776,0.901,1.121,3.026c-0.416,1.349-0.19,2.133,0.865,3.147c1.19,1.145,2.122,1.249,3.528,0.583
		c1.792-0.849,1.468-0.738,2.758,0.635c0.475,0.505,0.585,0.953,0.217,1.575c-0.406,0.685-0.705,1.433-1.078,2.139
		c-0.182,0.343-0.137,0.596,0.1,0.899c0.541,0.689,1.077,1.388,1.548,2.126c0.282,0.442,0.588,0.575,1.084,0.466
		c0.704-0.156,1.421-0.248,2.127-0.397c0.658-0.138,1.108,0.012,1.454,0.656c0.917,1.712,1.056,1.51-0.266,2.918
		c-1.066,1.136-1.16,2.057-0.475,3.485c0.616,1.284,1.213,2.029,2.679,1.763c0.025-0.004,0.052,0,0.077,0.003
		c2.161,0.17,1.725-0.219,2.47,1.985c0.161,0.477,0.058,0.843-0.34,1.159c-0.687,0.545-1.378,1.088-2.021,1.683
		c-0.177,0.163-0.294,0.524-0.254,0.764c0.154,0.939,0.413,1.862,0.567,2.801c0.067,0.409,0.263,0.563,0.621,0.65
		c0.801,0.194,1.597,0.408,2.395,0.614c0.149,0.039,0.313,0.054,0.444,0.126c0.697,0.381,0.722,2.691,0.023,3.083
		c-0.786,0.441-1.586,0.861-2.397,1.254c-0.331,0.161-0.434,0.36-0.424,0.719c0.026,0.954,0.03,1.91-0.003,2.864
		c-0.013,0.374,0.121,0.557,0.44,0.708c0.792,0.374,1.564,0.791,2.357,1.163c0.465,0.218,0.631,0.54,0.58,1.048
		c-0.203,1.996-0.177,2.084-2.16,2.493c-1.327,0.274-1.863,0.879-2.185,2.23c-0.378,1.586-0.103,2.518,1.26,3.433
		c1.519,1.019,1.438,0.711,0.817,2.694c-0.224,0.714-0.606,0.991-1.341,0.979c-0.771-0.012-1.548,0.054-2.312,0.158
		c-0.244,0.033-0.559,0.244-0.668,0.461c-0.428,0.851-0.757,1.751-1.184,2.601c-0.189,0.376-0.109,0.609,0.13,0.889
		c0.552,0.648,1.077,1.319,1.633,1.964c0.33,0.383,0.381,0.748,0.114,1.192c-1.214,2.018-0.736,1.826-2.901,1.398
		c-1.365-0.27-2.36-0.15-2.986,1.247c-0.277,0.618-1.019,1.124-1.069,1.721c-0.048,0.567,0.516,1.195,0.835,1.783
		c0.949,1.745,0.818,1.466-0.412,2.892c-0.418,0.485-0.842,0.606-1.427,0.365c-0.762-0.314-1.531-0.616-2.317-0.859
		c-0.234-0.072-0.609-0.014-0.794,0.137c-0.759,0.618-1.486,1.278-2.185,1.964c-0.157,0.154-0.256,0.492-0.209,0.708
		c0.188,0.854,0.422,1.7,0.682,2.535c0.165,0.529,0.015,0.874-0.423,1.187c-1.815,1.297-1.388,1.364-3.158,0.088
		c-1.192-0.859-2.182-1.075-3.299-0.045c-0.037,0.034-0.088,0.058-0.136,0.072c-1.476,0.441-1.683,1.47-1.497,2.851
		c0.288,2.132,0.387,1.725-1.718,2.696c-0.433,0.2-0.784,0.104-1.115-0.234c-0.596-0.607-1.231-1.177-1.816-1.794
		c-0.289-0.305-0.549-0.378-0.95-0.23c-0.844,0.313-1.699,0.605-2.568,0.841c-0.451,0.122-0.634,0.342-0.681,0.791
		c-0.083,0.794-0.228,1.581-0.322,2.374c-0.067,0.563-0.338,0.848-0.912,0.967c-2.305,0.479-1.901,0.512-2.872-1.176
		c-0.764-1.327-1.586-1.642-3.112-1.482c-1.466,0.154-2.233,0.59-2.542,2.005c-0.139,0.637-0.493,1.227-0.749,1.838
		c-0.826,0-1.652,0-2.477,0c-0.455-1.03-0.927-2.052-1.354-3.094c-0.145-0.353-0.311-0.524-0.715-0.551
		c-0.976-0.065-1.946-0.215-2.923-0.272c-0.215-0.012-0.521,0.168-0.653,0.353c-0.478,0.67-0.917,1.37-1.337,2.08
		c-0.285,0.481-0.621,0.684-1.204,0.556c-2.276-0.497-1.848-0.183-2.203-2.186c-0.009-0.051-0.031-0.101-0.03-0.152
		c0.017-1.432-0.704-2.037-2.082-2.487c-1.451-0.474-2.329-0.351-3.345,0.83c-1.358,1.578-0.92,1.443-3.027,0.546
		c-0.504-0.215-0.694-0.55-0.663-1.082c0.048-0.823,0.043-1.65,0.093-2.473c0.027-0.433-0.08-0.706-0.502-0.918
		c-0.781-0.393-1.54-0.837-2.275-1.311c-0.382-0.246-0.661-0.264-1.036,0.009c-0.687,0.499-1.392,0.983-2.134,1.393
		c-0.261,0.144-0.724,0.184-0.972,0.048c-1.786-0.977-1.921-1.137-1.293-3.011c0.477-1.425,0.234-2.298-0.951-3.326
		c-1.12-0.972-1.94-1.157-3.26-0.538c-1.985,0.931-1.57,0.825-3.012-0.684c-0.394-0.413-0.481-0.8-0.198-1.312
		c0.398-0.721,0.729-1.479,1.122-2.203c0.21-0.388,0.197-0.681-0.091-1.038c-0.55-0.681-1.07-1.39-1.553-2.121
		c-0.272-0.411-0.571-0.511-1.035-0.41c-0.755,0.163-1.522,0.264-2.282,0.403c-0.574,0.104-0.974-0.058-1.269-0.604
		c-0.984-1.818-1.166-1.507,0.249-3.032c1.041-1.121,1.089-2.022,0.468-3.422c-0.619-1.396-1.338-1.837-2.819-1.842
		c-2.079-0.007-1.67,0.321-2.402-1.818c-0.192-0.56-0.09-0.983,0.397-1.351c0.658-0.497,1.268-1.057,1.924-1.557
		c0.314-0.239,0.38-0.476,0.287-0.854c-0.229-0.924-0.381-1.868-0.627-2.787c-0.062-0.233-0.324-0.511-0.553-0.585
		c-0.757-0.246-1.536-0.439-2.318-0.592c-0.706-0.139-0.998-0.535-1.009-1.231c-0.005-0.296-0.112-0.589-0.172-0.884
		c0-0.206,0-0.413,0-0.619c0.278-0.215,0.536-0.466,0.838-0.639c0.689-0.395,1.388-0.778,2.108-1.115
		c0.392-0.183,0.501-0.42,0.481-0.837c-0.038-0.794-0.057-1.595,0.002-2.387c0.048-0.649-0.14-1.003-0.766-1.284
		c-0.923-0.415-1.779-0.98-2.663-1.481c0-0.258,0-0.516,0-0.774c0.039-0.064,0.119-0.132,0.112-0.191
		c-0.165-1.43,0.714-1.885,1.904-2.054c0.025-0.004,0.049-0.02,0.074-0.021c1.531-0.088,2.02-0.954,2.341-2.415
		c0.33-1.5,0.018-2.313-1.204-3.156c-1.727-1.192-1.455-0.86-0.868-2.896c0.166-0.575,0.503-0.847,1.112-0.862
		c0.824-0.019,1.646-0.122,2.469-0.135c0.404-0.006,0.594-0.162,0.74-0.518c0.352-0.857,0.711-1.715,1.13-2.54
		c0.201-0.396,0.138-0.647-0.132-0.954c-0.528-0.6-1.01-1.24-1.538-1.841c-0.392-0.446-0.449-0.842-0.124-1.384
		c1.101-1.843,0.709-1.737,2.802-1.309c1.405,0.288,2.453,0.139,3.041-1.298c0.009-0.023,0.028-0.044,0.047-0.061
		c1.133-0.999,1.058-1.987,0.274-3.251c-1.129-1.82-1.045-1.493,0.4-3.12c0.367-0.413,0.744-0.487,1.235-0.295
		c0.816,0.318,1.632,0.638,2.466,0.901c0.212,0.067,0.557,0.004,0.727-0.136c0.754-0.625,1.486-1.28,2.179-1.971
		c0.17-0.169,0.274-0.537,0.223-0.773c-0.19-0.879-0.501-1.734-0.672-2.616c-0.055-0.284,0.083-0.731,0.295-0.923
		c1.521-1.373,1.654-1.471,3.264-0.227c1.266,0.979,2.173,0.742,3.464,0.04c1.309-0.712,1.682-1.493,1.49-2.893
		c-0.297-2.169-0.364-1.735,1.705-2.702c0.433-0.202,0.784-0.117,1.117,0.219c0.599,0.605,1.231,1.177,1.818,1.793
		c0.285,0.299,0.541,0.39,0.947,0.241c0.87-0.319,1.752-0.609,2.644-0.86c0.428-0.12,0.566-0.364,0.612-0.767
		c0.09-0.793,0.226-1.581,0.324-2.373c0.069-0.553,0.324-0.848,0.904-0.977c1.864-0.417,1.859-0.44,2.913,1.146
		c0.029,0.043,0.065,0.082,0.085,0.129c0.543,1.308,1.433,1.476,2.841,1.401c1.731-0.092,2.444-0.802,2.811-2.317
		c0.132-0.546,0.518-1.031,0.788-1.544C151.859,85.402,152.633,85.402,153.407,85.402z M134.713,142.25c0.442,0,0.698,0,0.954,0
		c3.51,0,7.02-0.019,10.529,0.018c0.619,0.006,0.912-0.222,1.183-0.73c3.601-6.742,7.213-13.479,10.838-20.208
		c0.829-1.539,1.621-3.113,2.604-4.552c1.088-1.596,2.718-2.229,4.657-1.939c0.88,0.132,1.25,0.699,0.958,1.541
		c-0.2,0.579-0.471,1.14-0.766,1.678c-1.583,2.89-3.184,5.77-4.777,8.655c-7.155,12.956-14.309,25.913-21.462,38.87
		c-0.417,0.755-0.825,1.514-1.28,2.351c0.83,0.343,1.551,0.678,2.297,0.943c4.146,1.467,8.418,2.024,12.812,1.886
		c3.568-0.112,7.078-0.516,10.491-1.578c3.464-1.078,6.566-2.775,8.767-5.748c0.975-1.316,1.746-2.789,2.552-4.222
		c0.794-1.411,1.554-2.845,2.253-4.305c0.427-0.891,0.576-1.865,0.314-2.858c-0.435-1.648-1.712-2.378-3.185-2.841
		c-0.774-0.243-1.586-0.364-2.422-0.549c0.788-0.077,1.529-0.122,2.263-0.225c2.537-0.356,5.007-1.01,6.822-2.921
		c2.48-2.611,3.946-5.864,5.313-9.15c0.039-0.095,0.067-0.195,0.089-0.296c0.353-1.668-0.229-2.874-1.772-3.621
		c-0.39-0.189-0.802-0.382-1.223-0.451c-1.342-0.218-2.689-0.489-4.041-0.538c-2.654-0.097-5.313-0.058-7.97-0.078
		c-0.268-0.002-0.536-0.023-0.863-0.038c0.129-0.267,0.208-0.454,0.305-0.63c2.653-4.799,5.32-9.59,7.954-14.4
		c0.714-1.304,1.458-2.616,1.959-4.006c0.649-1.8-0.093-3.245-1.834-4.039c-1.341-0.612-2.771-0.746-4.221-0.744
		c-15.973,0.022-31.946,0.045-47.919,0.068c-0.103,0-0.207-0.008-0.309,0.003c-0.19,0.02-0.378,0.052-0.567,0.079
		c-0.016,0.052-0.032,0.105-0.049,0.157c2.295,1.486,4.591,2.971,6.923,4.481c-5.395,9.993-10.742,19.897-16.131,29.878
		c0.298,0.03,0.447,0.059,0.595,0.059c3.69,0.002,7.381-0.009,11.071,0.015c0.519,0.003,0.703-0.254,0.912-0.644
		c3.681-6.874,7.369-13.745,11.067-20.61c0.744-1.381,1.451-2.793,2.321-4.093c1.089-1.626,2.681-2.359,4.668-2.092
		c0.989,0.133,1.347,0.67,1.051,1.602c-0.116,0.365-0.266,0.725-0.447,1.062c-3.781,7.055-7.569,14.105-11.355,21.157
		C136.022,139.794,135.409,140.946,134.713,142.25z M131.185,146.537c-3.946,0-7.892-0.003-11.838,0.002
		c-1.131,0.001-1.491,0.554-1.04,1.585c3.149,7.204,8.066,12.882,14.735,17.041c1.067,0.666,1.425,0.572,2.025-0.512
		c2.046-3.696,4.088-7.394,6.131-11.091c1.009-1.826,2.028-3.647,3.019-5.483c0.447-0.829,0.05-1.488-0.885-1.539
		c-0.206-0.011-0.413-0.003-0.619-0.003C138.871,146.537,135.028,146.537,131.185,146.537z M144.349,103.339c0-0.023,0-0.046,0-0.07
		c7.196,0,14.392,0,21.588,0c1.316,0,2.631,0.002,3.947-0.002c0.257-0.001,0.566,0.062,0.761-0.055
		c0.325-0.194,0.706-0.466,0.815-0.789c0.08-0.236-0.189-0.647-0.395-0.905c-0.166-0.207-0.468-0.309-0.717-0.445
		c-6.281-3.434-12.985-4.996-20.143-4.576c-4.845,0.284-9.447,1.493-13.815,3.596c-0.881,0.424-1.732,0.911-2.589,1.384
		c-0.421,0.232-0.653,0.594-0.54,1.09c0.122,0.533,0.515,0.741,1.027,0.766c0.206,0.01,0.413,0.005,0.619,0.005
		C138.054,103.339,141.202,103.339,144.349,103.339z M115.341,131.732c-0.009,0.448,0.02,1.013,0.676,1.207
		c0.589,0.174,0.956-0.131,1.236-0.65c3.147-5.846,6.308-11.684,9.459-17.528c0.396-0.734,0.292-1.068-0.433-1.535
		c-0.801-0.515-1.608-1.022-2.417-1.525c-0.76-0.472-1.105-0.42-1.624,0.307C118.049,117.88,115.774,124.426,115.341,131.732z
		 M189.165,128.209c-0.218-1.048-0.45-2.314-0.748-3.566c-0.658-2.768-1.662-5.414-2.983-7.932c-0.166-0.317-0.581-0.687-0.89-0.695
		c-0.31-0.008-0.636,0.4-0.943,0.641c-0.075,0.059-0.107,0.174-0.157,0.264c-1.568,2.842-3.137,5.683-4.703,8.527
		c-0.597,1.084-0.289,1.685,0.932,1.74c2.857,0.128,5.641,0.495,8.133,2.075C188.409,129.645,189.16,129.138,189.165,128.209z
		 M182.085,153.156c-0.019,0.003-0.038,0.006-0.056,0.009c-0.007,0.103-0.006,0.207-0.022,0.308
		c-0.071,0.457-0.093,0.911,0.455,1.084c0.543,0.171,0.711-0.308,0.926-0.634c1.437-2.178,2.627-4.486,3.584-6.913
		c0.131-0.332,0.33-0.701-0.147-0.926c-0.414-0.195-0.672,0.044-0.897,0.369c-0.993,1.437-2.209,2.651-3.666,3.615
		c-0.448,0.296-0.574,0.648-0.447,1.183C181.962,151.872,182,152.52,182.085,153.156z"/>
	<path id="XMLID_498_" style="fill:#1F1F1F;" d="M390.683,145.653c-1.375-0.002-1.84-0.606-1.409-1.907
		c0.185-0.558,0.447-1.097,0.73-1.613c1.744-3.182,3.498-6.358,5.26-9.529c0.754-1.357,1.696-2.541,3.246-3.033
		c0.455-0.144,0.962-0.184,1.443-0.171c1.062,0.028,1.406,0.654,0.893,1.589c-1.572,2.865-3.155,5.724-4.734,8.585
		c-0.796,1.442-1.599,2.879-2.388,4.324C393.065,145.106,392.03,145.645,390.683,145.653z"/>
	<path id="XMLID_497_" style="fill:#1F1F1F;" d="M333.025,133.653c0.757-1.283,1.385-2.523,2.179-3.644
		c0.87-1.227,2.903-1.284,3.97-0.941c0.538,0.173,0.684,0.587,0.381,1.191c-0.541,1.079-1.141,2.13-1.737,3.18
		c-0.069,0.122-0.274,0.235-0.417,0.238c-1.236,0.019-2.473,0.013-3.71,0.011C333.521,133.688,333.351,133.671,333.025,133.653z"/>
	<path id="XMLID_496_" style="fill:#1F1F1F;" d="M470.571,133.703c0.8-1.341,1.444-2.602,2.262-3.738
		c0.727-1.01,2.733-1.393,3.929-0.95c0.569,0.211,0.709,0.641,0.478,1.108c-0.558,1.131-1.18,2.232-1.799,3.331
		c-0.07,0.124-0.285,0.23-0.437,0.235c-0.799,0.024-1.599,0.013-2.399,0.014C471.992,133.704,471.38,133.703,470.571,133.703z"/>
	<path id="XMLID_495_" style="fill:#1F1F1F;" d="M153.074,163.41c2.017-3.666,3.956-7.202,5.917-10.725
		c0.098-0.176,0.386-0.349,0.584-0.348c0.95,0.004,1.905,0.02,2.849,0.123c1.397,0.151,1.785,0.885,1.13,2.113
		c-0.98,1.836-2,3.651-3.003,5.475c-0.099,0.18-0.21,0.355-0.297,0.541c-0.834,1.789-2.317,2.638-4.208,2.807
		C155.105,163.479,154.151,163.41,153.074,163.41z"/>
	<path id="XMLID_494_" style="fill:#1F1F1F;" d="M162.45,146.381c0.423-0.776,0.798-1.47,1.177-2.161
		c1.089-1.984,2.192-3.96,3.259-5.955c0.215-0.401,0.463-0.546,0.905-0.528c0.824,0.033,1.651-0.015,2.475,0.023
		c1.465,0.068,1.971,0.949,1.288,2.246c-0.647,1.229-1.363,2.422-1.992,3.659c-0.869,1.708-2.337,2.491-4.139,2.697
		C164.485,146.469,163.524,146.381,162.45,146.381z"/>
</g>
<g id="Layer_1">
</g>
</svg>
