<?xml version="1.0" encoding="iso-8859-1"?>
<!-- Generator: Adobe Illustrator 19.0.0, SVG Export Plug-In . SVG Version: 6.00 Build 0)  -->
<svg version="1.1" xmlns="http://www.w3.org/2000/svg" xmlns:xlink="http://www.w3.org/1999/xlink" x="0px" y="0px"
	 viewBox="0 0 630 276.585" style="enable-background:new 0 0 630 276.585;" xml:space="preserve">
<g id="new-balance">
	<g id="layer1" transform="translate(-291.84746,-593.15508)">
		<g id="g12167" transform="matrix(3.0314991,0,0,-3.0314991,125.02367,2886.5171)">
			<g id="XMLID_101_">
				<g id="g12169">
					<g id="g12175" transform="translate(55.36,702.6114)">
						<path id="path12177" style="fill:#1F1F1F;" d="M51.375-17.315h2.203v4.374c0,0.779,0,1.74,0.399,2.303
							c0.397,0.612,1.11,0.811,1.508,0.811c1.856,0,1.856-2.188,1.856-2.948v-4.54h2.202v4.97c0,0.714,0,2.253-0.844,3.263
							c-0.761,0.929-1.972,1.279-2.766,1.279c-1.393,0-2.155-0.765-2.519-1.113v0.798l-2.039,0V-17.315"/>
					</g>
					<g id="g12179" transform="translate(73.5474,706.2231)">
						<path id="path12181" style="fill:#1F1F1F;" d="M51.375-17.315c0.063,0.297,0.132,0.679,0.132,1.109
							c0,2.318-1.84,4.841-4.756,4.841c-2.834,0-4.838-2.389-4.838-4.989c0-2.683,2.121-4.872,4.855-4.872
							c2.154,0,3.909,1.539,4.44,3.197h-2.321c-0.413-0.762-1.141-1.175-2.119-1.175c-1.574,0-2.436,1.292-2.536,1.889H51.375z
							 M44.166-15.542c0.414,1.707,1.79,2.154,2.602,2.154c1.094,0,2.236-0.679,2.485-2.154H44.166"/>
					</g>
					<g id="g12183" transform="translate(76.5066,702.6114)">
						<path id="path12185" style="fill:#1F1F1F;" d="M51.375-17.315h1.356l1.741,5.964h0.032l1.725-5.964h1.358l3.363,9.197h-2.352
							l-1.692-5.618h-0.032l-1.493,5.618h-1.754l-1.508-5.618h-0.033l-1.673,5.618H48.06L51.375-17.315z"/>
					</g>
					<g id="g12187" transform="translate(90.3468,702.6114)">
						<path id="path12189" style="fill:#1F1F1F;" d="M51.375-17.315h2.02v1.11c0.545-0.614,1.327-1.409,3.1-1.409
							c3.362,0,4.572,3.098,4.572,4.939c0,2.433-1.822,4.872-4.622,4.872c-1.028,0-2.106-0.383-2.868-1.146v3.895l-2.202,0V-17.315z
							 M53.444-12.594c0,1.342,1.044,2.767,2.734,2.767c1.393,0,2.686-1.075,2.686-2.867c0-1.787-1.21-2.899-2.652-2.899
							C54.92-15.593,53.444-14.632,53.444-12.594"/>
					</g>
					<g id="g12191" transform="translate(110.3256,711.808)">
						<path id="path12193" style="fill:#1F1F1F;" d="M51.375-17.315h-2.023v-1.163h-0.033c-0.067,0.134-1.178,1.479-3.048,1.479
							c-2.551,0-4.607-2.039-4.607-4.858c0-3.064,2.105-4.954,4.475-4.954c1.158,0,2.518,0.615,3.213,1.439v-1.14h2.023V-17.315z
							 M49.288-21.891c0-1.706-1.162-2.898-2.687-2.898c-1.573,0-2.734,1.276-2.734,2.833c0,1.375,0.928,2.932,2.734,2.932
							C47.911-19.024,49.288-19.984,49.288-21.891"/>
					</g>
					<path id="path12195" style="fill:#1F1F1F;" d="M165.075,697.557h-2.203v-12.261h2.203V697.557z"/>
					<g id="g12197" transform="translate(124.0712,711.808)">
						<path id="path12199" style="fill:#1F1F1F;" d="M51.375-17.315h-2.021v-1.163H49.32c-0.067,0.134-1.178,1.479-3.048,1.479
							c-2.554,0-4.607-2.039-4.607-4.858c0-3.064,2.105-4.954,4.474-4.954c1.159,0,2.517,0.615,3.215,1.439v-1.14h2.021V-17.315z
							 M49.287-21.891c0-1.706-1.159-2.898-2.684-2.898c-1.575,0-2.734,1.276-2.734,2.833c0,1.375,0.928,2.932,2.734,2.932
							C47.912-19.024,49.287-19.984,49.287-21.891"/>
					</g>
					<g id="g12201" transform="translate(125.2441,702.6114)">
						<path id="path12203" style="fill:#1F1F1F;" d="M51.375-17.315h2.202v4.374c0,0.779,0,1.74,0.399,2.303
							c0.397,0.612,1.112,0.811,1.508,0.811c1.855,0,1.855-2.188,1.855-2.948v-4.54h2.205v4.97c0,0.714,0,2.253-0.847,3.263
							c-0.762,0.929-1.97,1.279-2.766,1.279c-1.393,0-2.153-0.765-2.519-1.113v0.798l-2.037,0V-17.315"/>
					</g>
					<g id="g12205" transform="translate(141.2422,705.6097)">
						<path id="path12207" style="fill:#1F1F1F;" d="M51.375-17.315c-0.581-0.928-1.308-1.276-2.037-1.276
							c-1.659,0-2.768,1.309-2.768,2.883c0,1.889,1.326,2.883,2.667,2.883c1.359,0,1.874-0.878,2.138-1.341h2.487
							c-0.945,2.834-3.466,3.365-4.625,3.365c-2.535,0-4.87-2.058-4.87-4.872c0-3.05,2.532-4.939,4.888-4.939
							c2.154,0,3.859,1.243,4.607,3.297H51.375"/>
					</g>
					<g id="g12209" transform="translate(153.5302,706.2231)">
						<path id="path12211" style="fill:#1F1F1F;" d="M51.375-17.315c0.065,0.297,0.131,0.679,0.131,1.109
							c0,2.318-1.838,4.841-4.754,4.841c-2.834,0-4.839-2.389-4.839-4.989c0-2.683,2.121-4.872,4.855-4.872
							c2.153,0,3.911,1.539,4.44,3.197h-2.319c-0.415-0.762-1.142-1.175-2.121-1.175c-1.575,0-2.436,1.292-2.533,1.889H51.375z
							 M44.167-15.542c0.415,1.707,1.789,2.154,2.601,2.154c1.095,0,2.237-0.679,2.485-2.154H44.167"/>
					</g>
					<g id="g12213" transform="translate(92.8631,733.0946)">
						<path id="path12215" style="fill:#1F1F1F;" d="M51.375-17.315l-2.945-5.086l-16.301,0.917l1.632,2.833L51.375-17.315z
							 M63.159-1.109l1.477-5.613l-23.13,1.52l1.631,2.832L63.159-1.109z M47.825,5.771l13.539-0.01l1.022-3.838l-16.19,1.016
							C46.196,2.939,47.825,5.771,47.825,5.771z M46.635-25.564l-2.351-4.042l-16.843-0.018l1.631,2.831
							C29.072-26.793,46.635-25.564,46.635-25.564z M76.206-14.659l-4.077-7.067h3.883c1.799,0,5.023,0.898,6.015,3.46
							c0.919,2.381-0.77,3.61-1.949,3.61C80.078-14.656,76.206-14.659,76.206-14.659z M80.094-7.899l3.387,0.021
							c2.254,0.012,4.605,1.043,5.465,3.135c0.793,1.941-0.273,3.594-1.686,3.588l-3.276,0.004
							C83.984-1.151,80.094-7.899,80.094-7.899z M64.763-6.722l3.42,5.933l11.575,0.743l0.404,0.72L69.455,1.423l2.504,4.348
							l19.856,0.001c6.106,0,10.623-2.183,8.867-8.603c-0.528-1.945-3.01-6.841-10.289-8.892c1.545-0.184,5.393-1.889,4.73-6.309
							c-1.178-7.838-11.326-11.569-16.971-11.571L54.71-29.614l-1.155,4.535l12.278,0.866l0.417,0.718l-13.317,0.811l-1.435,5.376
							l18.949,1.106l0.412,0.712l-34.043,2.148l1.631,2.831l36.644,2.379l0.415,0.713L64.763-6.722"/>
					</g>
				</g>
			</g>
		</g>
	</g>
</g>
<g id="Layer_1">
</g>
</svg>
