<?xml version="1.0" encoding="iso-8859-1"?>
<!-- Generator: Adobe Illustrator 19.0.0, SVG Export Plug-In . SVG Version: 6.00 Build 0)  -->
<svg version="1.1" xmlns="http://www.w3.org/2000/svg" xmlns:xlink="http://www.w3.org/1999/xlink" x="0px" y="0px"
	 viewBox="0 0 630 276.585" style="enable-background:new 0 0 630 276.585;" xml:space="preserve">
<g id="orbea">
	<path id="XMLID_57_" style="fill:#1F1F1F;" d="M463.194,111.778c-1.138,2.835-2.225,5.545-3.392,8.453c-1.036,0-2,0-2.964,0
		c-12.337,0-24.675-0.033-37.012,0.016c-5.019,0.02-9.992,0.592-14.769,2.227c-3.824,1.309-7.308,3.197-10.203,6.817
		c16.081,0,31.744,0,47.797,0c-1.219,3.063-2.295,5.769-3.486,8.763c-15.946,0-31.905,0-47.965,0
		c-0.476,3.595,1.108,5.77,3.74,7.347c3.079,1.845,6.571,2.459,10.035,2.519c10.814,0.187,21.633,0.155,32.45,0.105
		c0.963-0.004,2.027-0.606,2.868-1.185c16.336-11.235,32.657-22.494,48.945-33.8c1.467-1.019,2.909-1.48,4.698-1.458
		c6.878,0.083,13.757,0.034,20.843,0.034c7.391,15.049,14.772,30.078,22.276,45.359c-7.45,0-14.626,0-22.167,0
		c-1.145-2.316-2.484-4.814-3.619-7.403c-0.669-1.527-1.579-2.045-3.255-2.038c-15.019,0.066-30.039,0.014-45.058,0.086
		c-1.154,0.005-2.456,0.449-3.431,1.084c-3.665,2.388-7.196,4.983-10.843,7.399c-0.836,0.554-1.937,0.996-2.917,0.998
		c-13.946,0.03-27.893,0.094-41.837-0.108c-7.41-0.107-14.854-0.59-21.917-3.125c-2.647-0.95-5.266-2.284-7.523-3.951
		c-3.89-2.874-5.091-7.033-4.075-11.693c2.16-9.91,8.669-16.132,17.565-20.219c7.984-3.668,16.493-5.508,25.165-5.777
		c16.254-0.503,32.526-0.438,48.791-0.603C462.277,111.621,462.622,111.706,463.194,111.778z M497.761,122.337
		c-7.886,5.452-15.56,10.758-23.235,16.064c0.085,0.124,0.17,0.248,0.256,0.372c10.249,0,20.497,0,31.061,0
		C503.092,133.178,500.48,127.867,497.761,122.337z"/>
	<path id="XMLID_53_" style="fill:#1F1F1F;" d="M353.534,133.533c1.363,0.321,2.726,0.64,4.088,0.963
		c0.435,0.103,0.875,0.192,1.299,0.33c7.041,2.277,8.681,7.834,4.022,13.719c-3.163,3.995-7.561,6.043-12.364,6.929
		c-4.808,0.887-9.729,1.553-14.608,1.596c-19.578,0.176-39.159,0.073-58.738,0.074c-0.353,0-0.707,0-1.542,0
		c6.183-15.3,12.267-30.357,18.398-45.528c1.007,0,1.893,0,2.779,0c19.043,0,38.087-0.089,57.129,0.074
		c3.883,0.033,7.861,0.628,11.612,1.644c5.816,1.576,7.174,5.722,4.031,10.946c-2.293,3.811-5.879,5.892-9.963,7.223
		c-2.016,0.656-4.088,1.139-6.134,1.7C353.54,133.312,353.537,133.422,353.534,133.533z M299.391,147.911
		c0.755,0.089,1.016,0.147,1.278,0.147c11.083,0.005,22.166,0.027,33.248-0.02c1.595-0.007,3.229-0.19,4.775-0.574
		c2.651-0.658,5.069-1.774,6.221-4.552c0.804-1.939,0.395-3.362-1.62-4.073c-1.645-0.58-3.465-0.905-5.21-0.918
		c-10.814-0.081-21.629-0.044-32.444-0.035c-0.693,0.001-1.385,0.094-2.176,0.151C302.115,141.308,300.802,144.492,299.391,147.911z
		 M307.161,128.996c0.938,0.088,1.458,0.18,1.978,0.18c10.362,0.009,20.723,0.028,31.084-0.016c1.416-0.006,2.866-0.19,4.236-0.542
		c1.922-0.494,3.698-1.345,4.76-3.191c1.239-2.152,0.652-3.93-1.702-4.571c-1.445-0.393-2.987-0.586-4.487-0.593
		c-10.004-0.05-20.008-0.029-30.012-0.019c-0.779,0.001-1.557,0.087-2.395,0.137C309.485,123.212,308.397,125.918,307.161,128.996z"
		/>
	<path id="XMLID_50_" style="fill:#1F1F1F;" d="M202.673,111.616c1.071,0,2.037,0,3.003,0c17.961,0,35.922-0.104,53.881,0.072
		c4.605,0.045,9.202,0.969,13.8,1.509c0.436,0.051,0.859,0.23,1.281,0.371c7.784,2.599,9.737,7.904,5.552,15.003
		c-1.931,3.276-4.768,5.515-8.107,7.17c-5.616,2.784-11.68,3.76-17.84,4.316c-1.03,0.093-2.062,0.166-3.093,0.248
		c-0.073,0.196-0.146,0.392-0.219,0.588c6.756,5.264,13.512,10.529,20.267,15.793c-0.049,0.153-0.099,0.306-0.148,0.459
		c-1.287,0-2.575,0-3.862,0c-5.719-0.001-11.438-0.04-17.156,0.023c-1.51,0.017-2.71-0.348-3.896-1.331
		c-5.708-4.728-11.5-9.355-17.224-14.063c-1.093-0.899-2.203-1.334-3.641-1.312c-4.64,0.073-9.282,0.027-14.149,0.027
		c-2.26,5.536-4.507,11.038-6.766,16.57c-6.624,0-13.126,0-19.984,0C190.498,141.848,196.547,126.828,202.673,111.616z
		 M214.65,131.877c1.432,0,2.377,0,3.321,0c9.46,0.001,18.92,0.027,28.38-0.019c2.043-0.01,4.11-0.129,6.119-0.473
		c2.85-0.488,5.529-1.459,7.265-4.032c2.049-3.038,1.151-5.644-2.353-6.475c-1.634-0.388-3.346-0.605-5.025-0.614
		c-10.263-0.055-20.526-0.03-30.789-0.023c-0.701,0-1.403,0.066-2.29,0.111C217.798,124.037,216.324,127.707,214.65,131.877z"/>
	<path id="XMLID_47_" style="fill:#1F1F1F;" d="M129.329,158.461c-9.754,0.037-18.77-0.259-27.512-2.879
		c-2.376-0.712-4.734-1.663-6.899-2.866c-6.037-3.353-8.249-8.735-6.526-15.421c2.32-9.005,8.191-15.058,16.202-19.282
		c6.635-3.498,13.796-5.301,21.157-6.412c11.187-1.688,22.435-1.748,33.684-0.963c5.52,0.385,11.011,1.21,16.238,3.176
		c1.746,0.657,3.49,1.411,5.08,2.377c5.859,3.56,7.915,8.686,6.179,15.354c-1.889,7.256-6.244,12.757-12.396,16.892
		c-6.725,4.52-14.317,6.761-22.179,8.214C144.512,158.101,136.582,158.54,129.329,158.461z M131.862,150.37
		c0.016-0.128,0.032-0.255,0.048-0.383c0.714,0,1.429,0.02,2.142-0.003c6.808-0.22,13.521-0.946,19.779-3.919
		c6.522-3.098,10.87-7.967,12.163-15.233c0.504-2.834-0.24-5.406-2.445-7.258c-1.402-1.178-3.053-2.317-4.78-2.795
		c-3.239-0.898-6.592-1.594-9.938-1.86c-9.056-0.72-18.033-0.213-26.536,3.392c-6.222,2.638-10.669,7.036-12.5,13.734
		c-1.41,5.162,0.271,8.924,5.096,11.229c1.275,0.609,2.639,1.177,4.02,1.391C123.214,149.329,127.543,149.815,131.862,150.37z"/>
</g>
<g id="Layer_1">
</g>
</svg>
