<?xml version="1.0" encoding="iso-8859-1"?>
<!-- Generator: Adobe Illustrator 19.0.0, SVG Export Plug-In . SVG Version: 6.00 Build 0)  -->
<svg version="1.1" xmlns="http://www.w3.org/2000/svg" xmlns:xlink="http://www.w3.org/1999/xlink" x="0px" y="0px"
	 viewBox="0 0 630 276.585" style="enable-background:new 0 0 630 276.585;" xml:space="preserve">
<g id="rohan">
	<path id="Fill-1" style="fill:#1F1F1F;" d="M124.825,96.532h64.738c16.371,0,23.248,5.23,23.248,22.065
		c0,4.81-0.315,10.142-2.919,14.323c-2.713,4.176-7.719,5.119-12.094,6.588c8.863,1.147,14.175,3.756,14.175,13.38v13.383H190.5
		v-6.69c0-7.635-0.31-11.191-9.175-11.191h-35.34v17.882h-21.16V96.532z M177.99,131.46h2.715c9.902,0,10.733-1.992,10.733-9.727
		c-0.104-3.663-0.211-6.486-4.173-7.635c-1.875-0.522-4.062-0.624-6.044-0.624h-1.664h-33.571v17.986H177.99z"/>
	<path id="Fill-3" style="fill:#1F1F1F;" d="M227.421,119.827c6.356-2.403,16.473-2.403,23.454-2.403
		c6.254,0,12.619,0.104,18.869,0.734c13.453,1.572,17.408,7.941,17.408,21.118v2.092c0,17.561-0.204,24.463-21.478,26.452
		c-6.56,0.423-13.235,0.423-19.802,0.423c-18.556,0-28.463-1.678-28.463-23.007v-2.927
		C217.41,133.314,217.621,123.486,227.421,119.827 M238.265,152.758c2.602,1.992,9.173,2.096,12.92,2.096h1.986
		c3.852,0,10.423-0.104,13.136-2.096c2.393-1.774,2.604-5.328,2.604-8.359v-3.661c0-2.721-0.211-5.857-2.502-7.528
		c-3.546-2.398-10.423-2.398-14.596-2.398c-3.752,0-10.633,0.204-13.548,2.607c-2.609,2.196-2.609,6.59-2.609,9.62
		C235.656,145.857,235.969,150.88,238.265,152.758"/>
	<path id="Fill-5" style="fill:#1F1F1F;" d="M307.195,125.809c4.069-8.884,11.886-9.411,20.54-9.411
		c16.682,0,27.732,3.45,27.732,22.58v27.293h-18.043v-24.363c-0.414-8.15,0.319-12.018-13.335-12.018h-1.15
		c-10.108,0-15.744,1.458-15.744,12.229v3.865v20.287h-18.031V96.532h18.031V125.809z"/>
	<path id="Fill-7" style="fill:#1F1F1F;" d="M362.998,132.265c0.213-12.334,11.261-14.214,21.378-14.423
		c6.254-0.313,12.615-0.418,18.869-0.418c12.298,0,23.452,2.092,23.452,16.941v32.929h-18.142v-7.944
		c-3.122,8.884-13.756,8.995-21.681,8.995h-3.335c-12.821,0-22.621-0.945-22.621-16.524c0-10.56,6.05-15.159,16.161-15.577
		c3.652-0.313,7.398-0.313,11.05-0.313h5.317c5.731,0,11.464,0.209,15.11,5.225v-5.335c0-6.061-2.602-7.004-8.233-7.424
		c-2.812-0.104-5.629-0.207-8.337-0.207l-5.942,0.207c-2.815,0-5.004,0.629-5.108,3.865H362.998z M388.128,156.842h3.018
		c4.173,0,8.448-0.104,12.513-0.734c3.231-0.525,4.687-1.883,4.895-5.123c0-4.39-4.583-4.914-8.027-4.914
		c-3.437-0.107-6.877-0.211-10.319-0.211c-3.646,0-11.464,0-11.464,5.332C378.745,156.317,383.851,156.842,388.128,156.842
		L388.128,156.842z"/>
	<path id="Fill-9" style="fill:#1F1F1F;" d="M448.387,118.469v10.04c3.335-9.727,11.779-11.085,20.954-11.085
		c18.45,0,27.206,4.079,27.206,24.254v25.617h-18.135v-25.617c0-9.093-3.546-10.247-12.511-10.247h-2.086
		c-9.279,0-15.429,1.052-15.429,12.856v1.158v21.849h-18.031v-48.826H448.387z"/>
</g>
<g id="Layer_1">
</g>
</svg>
