<?xml version="1.0" encoding="iso-8859-1"?>
<!-- Generator: Adobe Illustrator 19.0.0, SVG Export Plug-In . SVG Version: 6.00 Build 0)  -->
<svg version="1.1" xmlns="http://www.w3.org/2000/svg" xmlns:xlink="http://www.w3.org/1999/xlink" x="0px" y="0px"
	 viewBox="0 0 630 276.585" style="enable-background:new 0 0 630 276.585;" xml:space="preserve">
<g id="salomon">
	<g id="XMLID_213_">
		<path id="XMLID_217_" style="fill:#1F1F1F;" d="M178.433,200.585c0-2.23,1.352-3.741,9.355-3.741c5.3,0,10.808,0.156,17.616,2.287
			v-7.743c-3.376-0.987-8.834-1.87-17.408-1.87c-14.552,0-18.761,4.417-18.761,11.119c0,8.159,6.079,10.291,18.553,11.641
			c6.859,0.729,10.339,0.885,10.339,3.482c0,2.336-1.766,3.379-9.56,3.429c-5.508,0-12.056-0.621-18.188-2.807v8.213
			c6.391,1.664,11.589,2.183,18.292,2.183c10.964,0,18.709-2.183,18.709-11.277c0-8.628-6.237-9.771-18.295-11.068
			C183.216,203.808,178.433,203.392,178.433,200.585 M238.61,212.851c0,5.245-4.521,6.339-10.914,6.339
			c-7.43,0-8.886-1.402-8.886-3.532c0-2.287,2.39-2.755,8.419-3.637c4.939-0.676,10.185-1.874,11.381-3.121V212.851z
			 M246.821,214.513v-12.99c0-10.756-9.407-12.264-18.191-12.264c-4.31,0-10.495,0.934-15.485,2.13v7.691
			c6.237-1.246,11.902-2.027,15.485-2.027c4.002,0,9.147,0.261,9.147,3.172c0,2.49-3.063,3.324-9.147,4.105
			c-10.964,1.454-18.861,2.857-18.861,11.329c0,8.73,6.86,11.224,18.861,11.224C242.092,226.882,246.821,222.153,246.821,214.513
			 M266.373,226.269c3.013,0,6.864-0.098,9.631-0.505l-1.206-7.229c-2.29,0.262-5.722,0.418-8.373,0.418
			c-4.733,0-7.957-1.925-7.957-5.514v-23.663h-8.217v24.337c0,10.037,8.842,12.172,16.122,12.172V226.269z M306.005,208.381
			c-0.052,1.51-0.156,2.912-0.31,4.263c-0.571,4.365-3.172,6.495-7.953,6.495h-4.413c-4.784,0-7.384-2.13-7.953-6.495
			c-0.158-1.352-0.261-2.753-0.313-4.263c0.052-1.558,0.154-2.963,0.313-4.263c0.569-4.415,3.169-6.545,7.953-6.545h4.413
			c4.781,0,7.382,2.13,7.953,6.545C305.849,205.418,305.953,206.823,306.005,208.381 M313.749,216.022
			c0.417-2.182,0.569-4.573,0.623-7.068v-0.573v-0.572c-0.054-2.547-0.206-4.938-0.623-7.064
			c-1.091-7.538-6.339-11.226-16.008-11.226h-4.413c-9.669,0-14.919,3.689-16.01,11.226c-0.414,2.126-0.569,4.517-0.623,7.064v0.572
			v0.573c0.054,2.495,0.208,4.886,0.623,7.068c1.091,7.482,6.341,11.171,16.01,11.171h4.413
			C307.41,227.193,312.658,223.504,313.749,216.022 M371.848,225.997h8.365v-17.043c0-2.911-0.154-5.662-0.625-8.209
			c-1.089-7.486-6.339-11.176-16.004-11.176h-2.338c-5.612,0-9.772,1.249-12.472,3.794c-2.649-2.545-6.808-3.794-12.42-3.794h-2.339
			c-9.667,0-14.917,3.69-16.005,11.176c-0.469,2.547-0.625,5.298-0.625,8.209v17.043h8.369v-17.043c0-1.718,0.154-3.328,0.36-4.836
			c0.523-4.363,3.12-6.493,7.901-6.493h2.339c4.779,0,7.378,2.13,7.948,6.493c0.211,1.508,0.315,3.117,0.315,4.836v17.043h8.365
			v-17.043c0-1.718,0.104-3.328,0.314-4.836c0.569-4.363,3.168-6.493,7.949-6.493h2.338c4.782,0,7.378,2.13,7.899,6.493
			c0.26,1.508,0.364,3.117,0.364,4.836V225.997z M412.899,208.381c0,1.51-0.099,2.912-0.31,4.263
			c-0.518,4.365-3.167,6.495-7.95,6.495h-4.366c-4.779,0-7.43-2.13-7.948-6.495c-0.21-1.352-0.314-2.753-0.314-4.263
			c0-1.558,0.104-2.963,0.314-4.263c0.518-4.415,3.169-6.545,7.948-6.545h4.366c4.783,0,7.432,2.13,7.95,6.545
			C412.8,205.418,412.899,206.823,412.899,208.381 M420.698,216.022c0.362-2.182,0.519-4.573,0.569-7.068v-0.573v-0.572
			c-0.049-2.547-0.206-4.938-0.569-7.064c-1.093-7.538-6.392-11.226-16.059-11.226h-4.366c-9.716,0-14.966,3.689-16.056,11.226
			c-0.366,2.126-0.572,4.517-0.572,7.064v0.572v0.573c0,2.495,0.206,4.886,0.572,7.068c1.09,7.482,6.34,11.171,16.056,11.171h4.366
			C414.305,227.193,419.605,223.504,420.698,216.022 M461.333,225.945v-16.991c0-2.963-0.206-5.718-0.622-8.209
			c-1.091-7.538-6.341-11.226-16.005-11.226h-3.9c-9.667,0-14.964,3.689-16.056,11.226c-0.419,2.491-0.572,5.246-0.572,8.209v16.991
			h8.364v-16.991c0-1.768,0.107-3.377,0.315-4.836c0.57-4.415,3.169-6.545,7.948-6.545h3.9c4.777,0,7.376,2.13,7.897,6.545
			c0.21,1.458,0.312,3.068,0.312,4.836v16.991H461.333z"/>
		<path id="XMLID_214_" style="fill:#1F1F1F;" d="M371.353,42.71H259.126c0,0-8.968,0-8.968,8.968v112.225c0,0,0,8.97,8.968,8.97
			h112.227c0,0,8.966,0,8.966-8.97V51.678C380.319,51.678,380.319,42.71,371.353,42.71 M359.518,82.638
			c0,1.308-1.061,2.372-2.374,2.372h-11.791c-1.321,0-2.887-0.613-4.511-1.42l0.002,0.002l-11.823-5.803
			c-1.668-0.925-3.251-1.388-4.465-1.388h-20.1c-2.547,0-4.169,2.062-4.169,4.608c0,1.616,0.831,3.21,2.092,3.863
			c0,0,47.32,24.285,52.008,27.806c2.909,1.997,4.883,5.255,5.131,8.982v24.825c0,2.619-2.126,4.707-4.741,4.982
			c-26.502,2.574-52.591,2.574-79.09,0c-2.537-0.308-4.728-2.337-4.728-4.95v-13.57c0-1.31,1.063-2.372,2.375-2.372h11.791
			c1.324,0,2.887,0.613,4.511,1.421l-0.002-0.004l11.823,5.804c1.666,0.926,3.25,1.389,4.465,1.389h20.1
			c2.547,0,4.169-2.062,4.169-4.613c0-1.614-0.832-3.208-2.092-3.861c0,0-47.321-24.284-52.01-27.804
			c-2.909-1.998-4.882-5.257-5.13-8.984V69.096c0-2.618,2.126-4.705,4.741-4.977c26.5-2.577,52.589-2.577,79.092,0
			c2.533,0.308,4.725,2.336,4.725,4.948V82.638z"/>
	</g>
</g>
<g id="Layer_1">
</g>
</svg>
