<?xml version="1.0" encoding="iso-8859-1"?>
<!-- Generator: Adobe Illustrator 19.0.0, SVG Export Plug-In . SVG Version: 6.00 Build 0)  -->
<svg version="1.1" xmlns="http://www.w3.org/2000/svg" xmlns:xlink="http://www.w3.org/1999/xlink" x="0px" y="0px"
	 viewBox="0 0 630 276.585" style="enable-background:new 0 0 630 276.585;" xml:space="preserve">
<g id="sun-ski">
	<g id="XMLID_367_">
		<g id="XMLID_378_">
			<path id="XMLID_365_" style="fill:#1F1F1F;" d="M253.596,134.108c-0.44-3.089-2.896-5.226-9.76-5.226
				c-5.039,0-7.811,1.449-7.811,4.404c0,1.514,1.069,2.398,3.337,2.776c3.779,0.631,15.304,2.332,19.716,3.085
				c8.376,1.453,13.417,4.848,13.417,12.788c0,15.244-19.778,15.368-25.951,15.368c-15.242,0-26.264-2.709-27.149-15.242h17.766
				c0.378,3.401,2.265,5.54,10.076,5.54c3.781,0,7.873-0.882,7.873-4.723c0-2.392-1.889-3.216-7.117-4.032L233,146.578
				c-9.256-1.385-12.85-6.048-12.85-12.725c0-5.917,3.652-14.297,23.37-14.297c16.313,0,26.142,3.903,27.085,14.55h-17.008V134.108z
				"/>
			<path id="XMLID_364_" style="fill:#1F1F1F;" d="M277.82,131.778h13.354v17.64c0,5.793,2.458,7.809,6.928,7.809
				c4.725,0,8.315-2.583,8.315-8.187v-17.262h13.35v34.14h-12.97v-4.408h-0.127c-2.709,3.339-7.624,5.793-14.363,5.793
				c-8.187,0-14.486-3.53-14.486-13.795v-21.73H277.82z"/>
			<path id="XMLID_363_" style="fill:#1F1F1F;" d="M326.822,131.778H339.8v4.912h0.127c2.71-3.339,7.628-5.793,14.363-5.793
				c8.378,0,14.49,4.03,14.49,12.532v22.488h-13.354v-18.456c0-4.346-2.454-6.488-6.93-6.488c-4.725,0-8.315,2.581-8.315,8.189
				v16.753h-13.358C326.822,165.916,326.822,131.778,326.822,131.778z"/>
			<path id="XMLID_385_" style="fill:#1F1F1F;" d="M414.634,160.816c-3.401,4.157-9.702,6.235-16.004,6.235
				c-13.539,0-17.762-7.433-17.762-13.419c0-5.602,3.339-10.516,11.718-13.417c-3.972-3.523-4.916-6.611-4.916-9.131
				c0-6.046,4.225-10.138,11.656-10.138c7.055,0,11.401,4.408,11.401,9.761c0,3.528-2.078,7.809-8.687,10.456l11.901,11.025
				c1.256-2.078,1.825-3.907,2.078-6.993h5.921c-0.127,3.463-1.013,7.18-3.716,10.96l10.579,9.762h-8.753L414.634,160.816z
				 M396.176,143.742c-6.993,2.967-8.625,6.114-8.625,9.704c0,3.654,2.579,8.315,11.397,8.315c4.412,0,8.882-1.073,11.523-4.599
				L396.176,143.742z M398.317,137.824c4.725-1.95,6.488-4.47,6.488-6.739c0-2.585-2.265-4.848-5.415-4.848
				c-4.03,0-5.797,2.263-5.797,4.535C393.591,132.976,395.169,134.93,398.317,137.824"/>
			<path id="XMLID_359_" style="fill:#1F1F1F;" d="M469.368,134.108c-0.444-3.089-2.896-5.226-9.767-5.226
				c-5.035,0-7.809,1.449-7.809,4.404c0,1.514,1.069,2.398,3.339,2.776c3.777,0.631,15.302,2.332,19.712,3.085
				c8.382,1.453,13.417,4.848,13.417,12.788c0,15.244-19.778,15.368-25.949,15.368c-15.242,0-26.262-2.709-27.149-15.242h17.764
				c0.378,3.401,2.267,5.54,10.078,5.54c3.777,0,7.875-0.882,7.875-4.723c0-2.392-1.891-3.216-7.117-4.032l-14.99-2.267
				c-9.258-1.385-12.85-6.048-12.85-12.725c0-5.917,3.652-14.297,23.37-14.297c16.309,0,26.136,3.903,27.083,14.55h-17.007V134.108z
				"/>
			<polygon id="XMLID_358_" style="fill:#1F1F1F;" points="493.588,119.813 506.945,119.813 506.945,143.685 520.297,131.778 
				538.375,131.778 522.629,144.441 539.886,165.918 521.746,165.918 512.048,153.004 506.945,157.102 506.945,165.918 
				493.588,165.918 			"/>
			<path id="XMLID_379_" style="fill:#1F1F1F;" d="M542.847,119.813h13.352v8.062h-13.352V119.813z M542.847,131.778h13.352v34.14
				h-13.352V131.778z"/>
		</g>
		<g id="XMLID_368_">
			<g id="XMLID_370_">
				<polygon id="XMLID_355_" style="fill:#1F1F1F;" points="202.142,148.238 198.581,144.674 198.579,144.674 195.015,141.111 
					195.013,141.109 195.013,141.109 191.451,137.545 191.449,137.545 191.449,137.543 187.883,133.979 187.883,133.979 
					184.32,130.415 184.32,130.415 184.32,130.413 180.754,126.85 180.752,126.85 177.19,123.286 177.19,123.284 177.188,123.284 
					173.627,119.72 173.625,119.718 170.059,116.155 166.495,112.589 166.495,112.589 159.366,105.461 159.328,105.496 
					155.8,109.023 155.798,109.023 155.798,109.025 152.236,112.589 152.236,112.589 148.671,116.153 148.671,116.155 
					145.107,119.718 145.105,119.72 141.541,123.284 141.541,123.284 145.105,126.85 148.671,130.415 152.234,133.979 
					152.236,133.979 155.798,137.545 155.8,137.545 159.366,141.109 162.929,144.674 162.929,144.674 166.495,148.24 
					166.497,148.24 170.061,151.806 173.627,155.369 177.19,158.935 180.754,162.499 184.32,166.065 187.883,162.499 
					187.885,162.499 191.451,158.935 195.015,155.369 198.581,151.806 202.144,148.24 				"/>
				<g id="XMLID_371_">
					<polygon id="XMLID_354_" style="fill:#1F1F1F;" points="180.754,169.626 177.192,166.063 177.19,166.063 173.627,162.499 
						173.627,162.497 170.061,158.933 170.059,158.933 166.497,155.369 166.495,155.367 162.931,151.804 162.929,151.804 
						162.929,151.802 159.366,148.238 159.366,148.238 155.8,144.674 155.798,144.672 152.236,141.109 152.234,141.107 
						148.671,137.543 148.671,137.543 145.107,133.979 145.107,133.977 145.105,133.977 141.541,130.415 141.541,130.413 
						137.975,126.85 137.975,126.848 134.412,123.284 134.412,123.282 130.846,119.718 130.844,119.718 127.282,116.155 
						127.282,116.153 127.28,116.153 123.715,112.589 123.715,112.587 120.153,109.023 120.151,109.023 116.587,105.459 
						116.565,105.482 116.563,105.482 116.491,105.554 113.021,109.023 113.021,109.023 109.458,112.587 109.458,112.589 
						105.892,116.153 105.892,116.153 105.89,116.155 102.328,119.716 102.328,119.718 102.326,119.718 98.763,123.282 
						98.761,123.282 98.761,123.284 95.199,126.848 95.197,126.848 77.366,144.678 73.803,148.242 73.801,148.244 77.366,151.81 
						80.93,155.375 84.498,158.939 88.059,162.503 91.627,166.069 95.189,169.632 95.191,169.634 98.757,166.067 116.563,148.26 
						116.587,148.238 120.151,151.804 120.153,151.804 123.715,155.367 123.717,155.369 127.282,158.933 130.846,162.497 
						130.846,162.499 134.412,166.063 134.414,166.063 137.975,169.628 137.977,169.628 141.541,173.192 141.543,173.192 
						145.107,176.758 148.671,180.323 152.236,183.889 155.8,187.453 159.299,190.948 159.368,191.017 162.931,187.453 
						166.497,183.889 170.061,180.323 173.627,176.76 173.627,176.758 177.19,173.194 177.192,173.194 180.756,169.628 					"/>
					<polygon id="XMLID_353_" style="opacity:0.2;fill:#1F1F1F;enable-background:new    ;" points="155.8,109.023 155.798,109.023 
						155.798,109.025 152.236,112.589 152.236,112.589 148.671,116.153 148.671,116.155 145.107,119.718 145.105,119.72 
						141.541,123.284 141.541,123.284 145.105,126.85 148.671,130.415 152.234,133.979 152.236,133.979 155.798,137.545 
						155.8,137.545 159.366,141.109 159.366,141.109 162.929,144.674 162.929,144.674 166.495,148.24 166.497,148.24 
						170.061,151.806 173.627,155.369 177.19,158.935 180.754,162.499 184.32,166.065 184.32,166.065 159.328,105.496 					"/>
					<polygon id="XMLID_352_" style="opacity:0.2;fill:#1F1F1F;enable-background:new    ;" points="113.021,109.023 
						113.021,109.023 113.021,109.023 109.458,112.587 109.458,112.589 109.458,112.589 105.892,116.153 105.892,116.153 
						105.89,116.155 102.328,119.716 102.328,119.718 102.326,119.718 98.763,123.282 98.761,123.282 98.761,123.284 
						95.199,126.848 95.197,126.848 77.366,144.678 73.803,148.242 73.801,148.244 77.366,151.81 80.93,155.375 80.93,155.375 
						80.93,155.375 84.498,158.939 88.059,162.503 91.627,166.069 91.627,166.069 91.627,166.069 95.189,169.632 116.491,105.554 
											"/>
					<polygon id="XMLID_307_" style="opacity:0.2;fill:#1F1F1F;enable-background:new    ;" points="116.565,105.482 
						116.563,105.482 116.563,148.26 116.587,148.238 120.151,151.804 120.153,151.804 123.715,155.367 123.717,155.369 
						127.282,158.933 127.282,158.933 130.846,162.497 130.846,162.499 134.412,166.063 134.414,166.063 137.975,169.628 
						137.977,169.628 141.541,173.192 141.543,173.192 145.107,176.758 148.671,180.323 152.236,183.889 155.8,187.453 
						159.299,190.948 					"/>
				</g>
			</g>
			<path id="XMLID_305_" style="fill:#1F1F1F;" d="M178.517,117.453c8.585-3.011,14.739-11.182,14.739-20.791
				c0-12.168-9.863-22.033-22.033-22.033c-12.168,0-22.031,9.865-22.031,22.033c0,3.451,0.796,6.717,2.211,9.626l7.974-7.974
				L178.517,117.453z"/>
		</g>
	</g>
</g>
<g id="Layer_1">
</g>
</svg>
