<?xml version="1.0" encoding="iso-8859-1"?>
<!-- Generator: Adobe Illustrator 19.0.0, SVG Export Plug-In . SVG Version: 6.00 Build 0)  -->
<svg version="1.1" xmlns="http://www.w3.org/2000/svg" xmlns:xlink="http://www.w3.org/1999/xlink" x="0px" y="0px"
	 viewBox="0 0 630 276.585" style="enable-background:new 0 0 630 276.585;" xml:space="preserve">
<g id="taylormade">
	<path id="path3148" style="fill:#1F1F1F;" d="M144.78,96.161c-19.56,0.134-36.367,8.131-46.21,19.621
		c35.779-7.482,65.117-4.738,86.945-1.209c0.085-0.617,0.219-1.214,0.284-1.777c0.017-0.145-0.006-0.282,0-0.427v-0.427
		c0.139-2.747-1.319-5.363-3.768-6.612C169.239,98.799,156.515,96.081,144.78,96.161z M270.825,109.882l-11.019,49.124h12.868
		l11.019-49.124H270.825z M496.399,109.882l-4.479,20.545h-0.142c-1.908-3.665-6.358-6.327-12.796-6.327
		c-12.592,0-18.697,10.416-18.697,21.612c0,7.658,5.798,14.076,13.721,14.076c7.078,0,10.112-2.46,13.365-6.256h0.142l-0.995,5.474
		h11.73c0.142-1.373,0.358-3.088,0.782-5.119l9.882-44.006H496.399z M364.737,113.294l-10.735,45.712h12.014l8.602-37.465h0.142
		l1.777,37.465h12.512l19.337-37.465h0.142l-8.958,37.465h12.868l10.45-45.712h-21.043l-15.498,30.712h-0.142l-0.782-30.712H364.737
		z M548.438,116.636c-2.747,0-4.976,2.229-4.976,4.976c0,2.75,2.229,4.976,4.976,4.976c2.747,0,4.976-2.227,4.976-4.976
		C553.415,118.865,551.185,116.636,548.438,116.636z M548.438,117.56c2.232,0,3.981,1.826,3.981,4.052
		c0,2.227-1.749,4.052-3.981,4.052c-2.227,0-4.052-1.826-4.052-4.052C544.386,119.385,546.211,117.56,548.438,117.56z
		 M546.945,118.768l-1.066,5.119h1.066l0.427-1.991h1.066c0.796,0,0.785,0.293,0.64,0.995c-0.111,0.529-0.091,0.751-0.071,0.995
		h1.137l0.071-0.142c-0.205-0.085-0.23-0.245-0.071-0.995c0.208-0.955,0.028-1.101-0.355-1.28c0.546-0.173,0.947-0.646,1.066-1.209
		c0.094-0.444,0.082-1.493-1.28-1.493H546.945z M547.798,119.693h1.351c0.628,0,0.694,0.37,0.64,0.64
		c-0.111,0.506-0.438,0.711-0.995,0.711h-1.28L547.798,119.693z M205.065,124.1c-5.73,0-9.757,0.81-13.507,1.991l-1.28,8.531
		c4.243-2.028,7.345-2.63,11.943-2.63c4.172,0,6.825,1.914,6.825,4.337c0,0.458,0,0.964-0.142,1.422
		c-1.769-0.131-4.348-0.355-6.896-0.355c-11.247,0-20.261,4.135-20.261,12.512c0,6.612,4.376,9.882,12.299,9.882
		c4.951,0,9.683-1.618,12.37-5.545v-0.142l0.142,0.142l-0.569,4.763h10.379c1.416-10.277,4.692-17.949,4.692-23.318
		C221.061,127.308,213.838,124.1,205.065,124.1z M303.741,124.1c-14.432,0-23.816,8.141-23.816,20.119
		c0,8.576,5.542,15.569,19.195,15.569c13.795,0,23.745-6.199,23.745-20.403C322.864,130.811,316.261,124.1,303.741,124.1z
		 M351.443,124.1c-5.235,0-9.324,3.828-11.375,7.82h-0.142l1.422-7.038h-11.801c-0.353,3.077-0.927,5.94-1.564,8.886l-5.758,25.238
		h12.725l3.626-15.711c0.921-5.042,4.152-9.384,9.526-9.384c2.406,0,4.203,0.313,5.829,1.493l2.915-10.45
		C355.151,124.299,353.141,124.1,351.443,124.1z M441.729,124.1c-5.73,0-9.759,0.81-13.507,1.991l-1.28,8.531
		c4.243-2.028,7.345-2.63,11.943-2.63c4.174,0,6.754,1.914,6.754,4.337c0,0.458,0,0.964-0.142,1.422
		c-1.769-0.131-4.277-0.355-6.825-0.355c-11.25,0-20.332,4.135-20.332,12.512c0,6.612,4.448,9.882,12.37,9.882
		c4.951,0,9.68-1.618,12.37-5.545v-0.142l0.142,0.142l-0.569,4.763h10.379c1.416-10.277,4.692-17.949,4.692-23.318
		C457.725,127.308,450.502,124.1,441.729,124.1z M527.111,124.1c-16.411,0-22.038,12.199-22.038,20.119
		c0,8.576,6.677,15.569,18.981,15.569c3.683,0,8.412-0.674,12.868-1.919l1.635-8.318c-3.535,1.57-8.124,2.346-11.517,2.346
		c-7.783,0-9.811-2.875-9.953-6.54h26.091c0.498-2.028,0.924-5.022,0.924-6.398C544.101,128.619,536.802,124.1,527.111,124.1z
		 M222.554,124.882l8.104,33.982c-1.484,3.472-3.785,5.616-7.394,5.616c-2.406,0-4.203-0.537-5.83-0.995l-2.701,8.602
		c2.406,0.717,5.497,1.422,10.024,1.422c8.136,0,12.316-4.001,16.067-10.024l24.171-38.603h-13.507l-12.512,21.541h-0.142
		l-3.341-21.541H222.554z M129.921,130.925c-0.983,0.029-1.99,0.064-3.128,0.213c-15.16,2.002-26.947,5.901-33.2,8.318
		c0.287,1.322,0.594,2.141,0.64,2.275c0.003,0.009,0.071,0.284,0.071,0.284c2.601,8.701,11.125,18.754,25.309,29.858
		c0.535,0.418,1.052,0.819,1.564,1.209c8.358-12.418,12.93-21.828,16.138-31.778C139.808,133.564,136.803,130.72,129.921,130.925z
		 M175.491,131.209c-0.689,0.014-1.372,0.084-2.062,0.142c-8.818,0.745-12.171,6.742-16.991,14.432
		c-3.745,5.972-15.916,27.404-21.185,36.683c6.168,2.955,11.926,3.122,18.199,1.137c4.308-1.365,6.509-2.477,8.958-4.265
		c0.816-0.597,1.524-1.22,2.062-1.991l0.213-0.284c0.071-0.1,0.145-0.182,0.213-0.284c7.922-12.353,13.604-31.218,16.28-41.375
		c0.321-1.217,0.628-2.494,0.924-3.697C179.676,131.312,177.558,131.166,175.491,131.209z M527.253,131.991
		c4.666,0,6.256,3.017,6.256,6.683h-15.64C518.79,135.404,521.736,131.991,527.253,131.991z M303.101,132.347
		c4.951,0,6.612,3.364,6.612,6.896c0,7.726-3.725,12.299-9.668,12.299c-4.314,0.065-6.896-3.026-6.896-7.607
		C293.148,138.501,296.947,132.347,303.101,132.347z M483.105,133.129c4.246,0,6.043,3.563,6.043,6.967
		c0,4.516-3.583,10.664-9.597,10.664c-4.032,0-6.114-2.849-6.114-7.038C473.436,138.418,477.093,133.129,483.105,133.129z
		 M204.283,143.65c0.779,0,2.352,0.02,3.412,0.213c-0.919,4.584-4.152,8.033-9.597,8.033c-2.687,0-4.337-1.769-4.337-3.341
		C193.762,145.544,198.201,143.454,204.283,143.65z M440.947,143.65c0.776,0,2.352,0.02,3.412,0.213
		c-0.919,4.584-4.223,8.033-9.668,8.033c-2.687,0-4.266-1.769-4.266-3.341C430.426,145.544,434.865,143.454,440.947,143.65z"/>
</g>
<g id="Layer_1">
</g>
</svg>
