<?xml version="1.0" encoding="iso-8859-1"?>
<!-- Generator: Adobe Illustrator 19.0.0, SVG Export Plug-In . SVG Version: 6.00 Build 0)  -->
<svg version="1.1" xmlns="http://www.w3.org/2000/svg" xmlns:xlink="http://www.w3.org/1999/xlink" x="0px" y="0px"
	 viewBox="0 0 630 276.585" style="enable-background:new 0 0 630 276.585;" xml:space="preserve">
<g id="tifosi">
	<g id="XMLID_154_">
		<path id="XMLID_157_" style="fill:#1F1F1F;" d="M525.476,116.04l0.045,1.031h-0.123c-0.023-0.182-0.056-0.311-0.097-0.388
			c-0.067-0.126-0.155-0.218-0.266-0.277c-0.111-0.06-0.257-0.089-0.439-0.089h-0.617v3.353c0,0.27,0.03,0.439,0.088,0.506
			c0.083,0.092,0.209,0.137,0.379,0.137h0.152v0.12h-1.864v-0.12h0.156c0.187,0,0.318-0.057,0.396-0.169
			c0.048-0.07,0.071-0.228,0.071-0.474v-3.353h-0.527c-0.205,0-0.351,0.015-0.437,0.045c-0.112,0.041-0.208,0.12-0.288,0.236
			c-0.08,0.117-0.128,0.275-0.142,0.473h-0.123l0.054-1.031H525.476z"/>
		<path id="XMLID_155_" style="fill:#1F1F1F;" d="M528.397,120.431l-1.695-3.695v2.933c0,0.27,0.029,0.439,0.087,0.506
			c0.079,0.092,0.206,0.137,0.379,0.137h0.156v0.12h-1.529v-0.12h0.155c0.186,0,0.318-0.057,0.396-0.169
			c0.047-0.07,0.071-0.228,0.071-0.474v-2.866c0-0.195-0.022-0.335-0.065-0.423c-0.03-0.062-0.086-0.114-0.167-0.157
			c-0.082-0.042-0.211-0.064-0.39-0.064v-0.12h1.245l1.589,3.435l1.572-3.435h1.242v0.12h-0.152c-0.188,0-0.322,0.056-0.399,0.169
			c-0.048,0.07-0.07,0.228-0.07,0.474v2.866c0,0.27,0.029,0.439,0.09,0.506c0.08,0.092,0.207,0.137,0.38,0.137h0.152v0.12h-1.867
			v-0.12h0.156c0.188,0,0.32-0.057,0.395-0.169c0.048-0.07,0.071-0.228,0.071-0.474v-2.933l-1.693,3.695H528.397z"/>
	</g>
	<g id="XMLID_149_">
		<path id="XMLID_152_" style="fill:#1F1F1F;" d="M512.632,161.03l0.033,0.708h-0.085c-0.017-0.125-0.039-0.213-0.067-0.267
			c-0.046-0.086-0.107-0.149-0.183-0.19c-0.076-0.041-0.177-0.061-0.301-0.061h-0.424v2.301c0,0.185,0.02,0.301,0.06,0.347
			c0.057,0.063,0.143,0.094,0.26,0.094h0.104v0.082h-1.286v-0.082h0.108c0.129,0,0.221-0.039,0.275-0.116
			c0.033-0.048,0.049-0.156,0.049-0.325v-2.301h-0.362c-0.141,0-0.241,0.011-0.3,0.031c-0.077,0.028-0.143,0.083-0.197,0.163
			c-0.055,0.08-0.088,0.188-0.098,0.325h-0.084l0.033-0.708H512.632z"/>
		<path id="XMLID_150_" style="fill:#1F1F1F;" d="M514.642,164.045l-1.167-2.536v2.013c0,0.185,0.02,0.301,0.061,0.347
			c0.055,0.063,0.144,0.094,0.264,0.094h0.108v0.082h-1.06v-0.082h0.108c0.129,0,0.221-0.039,0.275-0.116
			c0.033-0.048,0.049-0.156,0.049-0.325v-1.967c0-0.133-0.015-0.23-0.045-0.29c-0.021-0.042-0.06-0.079-0.117-0.107
			c-0.056-0.03-0.147-0.044-0.272-0.044v-0.082h0.86l1.095,2.361l1.078-2.361h0.86v0.082h-0.107c-0.13,0-0.223,0.039-0.277,0.116
			c-0.033,0.048-0.05,0.157-0.05,0.325v1.967c0,0.185,0.021,0.301,0.064,0.347c0.055,0.063,0.143,0.094,0.263,0.094h0.107v0.082
			h-1.295v-0.082h0.108c0.131,0,0.222-0.039,0.275-0.116c0.033-0.048,0.05-0.156,0.05-0.325v-2.013l-1.163,2.536H514.642z"/>
	</g>
	<g id="XMLID_137_">
		<path id="XMLID_147_" style="fill:#1F1F1F;" d="M226.312,115.012c-2.293,4.09-7.261,11.364-13.649,11.364H135.53l2.116-4.855
			c1.786-5.095,7.488-9.231,12.737-9.231h69.369c-12.09-4.432-27.338-7.086-43.927-7.086c-39.231,0-71.031,14.793-71.031,33.043
			c0,14.484,20.04,26.783,47.914,31.245l12.094-35.934h27.31l-8.049,24.722c0,0-3.332,12.441-14.716,12.869
			c2.136,0.089,4.292,0.142,6.478,0.142c39.226,0,71.03-14.795,71.03-33.045C246.855,129.187,239.008,120.981,226.312,115.012z"/>
		<g id="XMLID_138_">
			<g>
				<path id="XMLID_20_" style="fill:#1F1F1F;" d="M251.275,138.248c0,17.477-33.845,31.697-75.45,31.697
					c-41.606,0-75.455-14.22-75.455-31.697c0-17.477,33.849-31.695,75.455-31.695C217.43,106.553,251.275,120.771,251.275,138.248z
					 M253.972,138.248c0-19.285-34.328-34.392-78.147-34.392c-43.824,0-78.152,15.106-78.152,34.392s34.328,34.394,78.152,34.394
					C219.644,172.642,253.972,157.533,253.972,138.248z"/>
			</g>
		</g>
	</g>
	<g id="XMLID_126_">
		<path id="XMLID_136_" style="fill:#1F1F1F;" d="M307.335,124.904h-43.768l1.2-2.815c1.014-2.957,4.252-5.352,7.226-5.352h43.878
			C315.871,116.736,312.37,124.904,307.335,124.904"/>
		<path id="XMLID_135_" style="fill:#1F1F1F;" d="M280.176,129.238l-7.185,20.811h9.433c6.739,0,8.684-7.141,8.684-7.141
			l4.566-13.669H280.176"/>
		<path id="XMLID_134_" style="fill:#1F1F1F;" d="M337.476,150.049c6.733,0,8.682-7.141,8.682-7.141l2.097-5.501h28.444
			c5.035,0,8.54-8.169,8.54-8.169h-50.013l-7.188,20.811H337.476"/>
		<path id="XMLID_133_" style="fill:#1F1F1F;" d="M345.06,116.736c-2.977,0-6.214,2.396-7.227,5.352l-1.201,2.815h43.769
			c5.034,0,8.539-8.168,8.539-8.168H345.06"/>
		<path id="XMLID_132_" style="fill:#1F1F1F;" d="M334.828,116.736h-9.434c-6.736,0-8.685,7.137-8.685,7.137l-1.792,5.365h-0.005
			l-7.185,20.811h9.432c6.734,0,8.686-7.141,8.686-7.141l1.789-5.365h0.002L334.828,116.736"/>
		<path id="XMLID_131_" style="fill:#1F1F1F;" d="M518.487,116.736h-9.432c-6.738,0-8.683,7.137-8.683,7.137l-1.792,5.365h-0.005
			l-7.187,20.811h9.435c6.739,0,8.681-7.141,8.681-7.141l1.796-5.365h0.002L518.487,116.736"/>
		<path id="XMLID_128_" style="fill:#1F1F1F;" d="M399.403,116.736c-2.98,0-6.217,2.396-7.23,5.352l-9.347,27.96h43.877
			c2.977,0,6.212-2.399,7.228-5.356l9.348-27.957H399.403L399.403,116.736z M423.181,140.186h-25.683l4.331-13.776h25.689
			L423.181,140.186"/>
		<path id="XMLID_127_" style="fill:#1F1F1F;" d="M493.234,129.226H454.93l1.516-4.322h32.737c5.034,0,8.534-8.168,8.534-8.168
			h-43.877c-2.975,0-6.209,2.396-7.224,5.352l-4.874,14.576h40.022l-1.609,5.212h-34.887c-5.032,0-8.535,8.173-8.535,8.173h44.409
			c2.977,0,6.214-2.399,7.23-5.356L493.234,129.226"/>
	</g>
	<g id="XMLID_42_">
		<path id="XMLID_124_" style="fill:#1F1F1F;" d="M329.004,157.588l-1.605,4.718h1.334c0.938,0,1.615-0.122,2.034-0.365
			c0.421-0.244,0.782-0.694,1.085-1.351h0.379l-1.435,4.321h-0.412c0.123-0.362,0.186-0.672,0.186-0.928
			c0-0.25-0.061-0.452-0.181-0.604c-0.121-0.152-0.285-0.265-0.495-0.337c-0.209-0.073-0.652-0.11-1.325-0.11h-1.366l-1.41,4.176
			c-0.131,0.314-0.197,0.553-0.197,0.717c0,0.125,0.087,0.236,0.26,0.333c0.121,0.068,0.423,0.101,0.906,0.101h1.278
			c1.345,0,2.422-0.201,3.232-0.604c0.81-0.403,1.535-1.103,2.177-2.101h0.382l-1.319,3.299h-10.818l0.135-0.313
			c0.536-0.012,0.897-0.053,1.084-0.123c0.274-0.106,0.475-0.241,0.598-0.406c0.185-0.241,0.406-0.747,0.66-1.516l2.439-7.183
			c0.191-0.58,0.288-1.021,0.288-1.326c0-0.222-0.092-0.396-0.273-0.522c-0.183-0.126-0.539-0.188-1.069-0.188h-0.218l0.125-0.314
			h10.081l-0.874,2.853h-0.38c0.048-0.269,0.073-0.493,0.073-0.675c0-0.309-0.089-0.57-0.268-0.78
			c-0.235-0.269-0.575-0.474-1.022-0.614c-0.33-0.105-1.09-0.158-2.279-0.158H329.004z"/>
		<path id="XMLID_122_" style="fill:#1F1F1F;" d="M339.72,160.903l-1.357,4.003c1.385-1.637,2.444-2.713,3.18-3.229
			c0.736-0.516,1.444-0.774,2.125-0.774c0.371,0,0.676,0.111,0.916,0.333c0.241,0.222,0.362,0.512,0.362,0.867
			c0,0.347-0.114,0.809-0.338,1.386l-1.422,3.644c-0.164,0.421-0.246,0.678-0.246,0.77c0,0.078,0.024,0.143,0.073,0.196
			c0.048,0.052,0.1,0.079,0.154,0.079c0.073,0,0.161-0.036,0.263-0.108c0.32-0.239,0.67-0.61,1.052-1.113l0.32,0.166
			c-0.608,0.764-1.182,1.304-1.724,1.62c-0.379,0.216-0.719,0.324-1.019,0.324c-0.241,0-0.434-0.066-0.577-0.198
			c-0.145-0.132-0.215-0.31-0.215-0.533c0-0.281,0.133-0.763,0.402-1.447l1.376-3.525c0.173-0.439,0.26-0.78,0.26-1.026
			c0-0.117-0.048-0.212-0.146-0.285c-0.097-0.073-0.218-0.11-0.359-0.11c-0.21,0-0.461,0.07-0.754,0.21
			c-0.554,0.263-1.13,0.697-1.73,1.301c-0.6,0.605-1.233,1.377-1.901,2.318c-0.353,0.496-0.645,1.04-0.877,1.63l-0.51,1.453h-1.527
			l1.871-5.509c0.219-0.659,0.33-1.056,0.33-1.189c0-0.129-0.06-0.241-0.18-0.337c-0.12-0.096-0.269-0.145-0.446-0.145
			c-0.082,0-0.224,0.012-0.429,0.036l-0.387,0.053l-0.091-0.314L339.72,160.903z"/>
		<path id="XMLID_120_" style="fill:#1F1F1F;" d="M351.402,158.742l-0.842,2.375h1.413l-0.182,0.561h-1.431l-1.885,5.166
			c-0.242,0.601-0.362,0.99-0.362,1.167c0,0.093,0.025,0.164,0.074,0.213c0.049,0.049,0.107,0.074,0.174,0.074
			c0.153,0,0.356-0.096,0.607-0.288c0.146-0.117,0.474-0.476,0.981-1.078l0.342,0.219c-0.598,0.769-1.163,1.304-1.696,1.605
			c-0.364,0.207-0.731,0.311-1.1,0.311c-0.287,0-0.52-0.081-0.702-0.242c-0.183-0.161-0.272-0.368-0.272-0.621
			c0-0.316,0.116-0.798,0.349-1.447l1.819-5.079h-1.577l0.104-0.347c0.757-0.177,1.401-0.439,1.932-0.785
			c0.53-0.347,1.131-0.947,1.801-1.803H351.402z"/>
		<path id="XMLID_118_" style="fill:#1F1F1F;" d="M357.707,156.384l-2.908,8.559c1.341-1.625,2.389-2.705,3.14-3.239
			c0.752-0.533,1.47-0.801,2.157-0.801c0.353,0,0.648,0.11,0.884,0.33c0.236,0.22,0.354,0.514,0.354,0.881
			c0,0.381-0.108,0.843-0.325,1.386l-1.413,3.63c-0.178,0.44-0.267,0.682-0.267,0.728c0,0.078,0.027,0.141,0.078,0.192
			c0.052,0.05,0.111,0.075,0.179,0.075c0.079,0,0.17-0.036,0.274-0.109c0.347-0.251,0.692-0.605,1.032-1.062l0.32,0.167
			c-0.222,0.309-0.53,0.643-0.927,1.001c-0.396,0.357-0.736,0.604-1.021,0.74c-0.284,0.136-0.538,0.204-0.76,0.204
			c-0.242,0-0.44-0.069-0.594-0.207c-0.153-0.138-0.23-0.315-0.23-0.533c0-0.259,0.138-0.739,0.414-1.443l1.358-3.518
			c0.173-0.44,0.26-0.785,0.26-1.038c0-0.117-0.048-0.21-0.141-0.281c-0.094-0.07-0.216-0.106-0.367-0.106
			c-0.219,0-0.467,0.064-0.746,0.193c-0.511,0.246-1.103,0.703-1.773,1.369c-0.182,0.182-0.783,0.913-1.808,2.195
			c-0.316,0.41-0.568,0.857-0.756,1.342l-0.651,1.812h-1.528l3.414-10.044l0.36-1.085c0-0.152-0.073-0.286-0.223-0.403
			c-0.148-0.117-0.33-0.176-0.546-0.176c-0.126,0-0.318,0.018-0.577,0.053l-0.22,0.026v-0.346L357.707,156.384z"/>
		<path id="XMLID_116_" style="fill:#1F1F1F;" d="M372.296,161.117l-1.897,5.336c-0.283,0.794-0.425,1.295-0.425,1.504
			c0,0.095,0.017,0.164,0.052,0.208c0.035,0.045,0.081,0.067,0.139,0.067c0.091,0,0.192-0.041,0.301-0.122
			c0.109-0.082,0.385-0.437,0.827-1.066l0.31,0.202c-0.478,0.704-0.968,1.211-1.469,1.522c-0.334,0.199-0.654,0.299-0.961,0.299
			c-0.236,0-0.424-0.064-0.561-0.193c-0.139-0.129-0.208-0.297-0.208-0.502c0-0.199,0.045-0.463,0.134-0.791
			c0.112-0.396,0.437-1.319,0.979-2.769c-1.217,1.627-2.233,2.743-3.051,3.347c-0.817,0.605-1.571,0.907-2.261,0.907
			c-0.323,0-0.599-0.094-0.823-0.281c-0.225-0.188-0.339-0.425-0.339-0.714c0-0.439,0.182-1.113,0.545-2.021l1.077-2.715
			c0.264-0.65,0.396-1.054,0.396-1.212c0-0.07-0.035-0.13-0.104-0.18c-0.071-0.05-0.148-0.074-0.228-0.074
			c-0.173,0-0.347,0.043-0.52,0.131c-0.173,0.088-0.564,0.413-1.174,0.975l-0.319-0.193c0.561-0.68,1.156-1.18,1.786-1.503
			c0.479-0.252,0.921-0.378,1.325-0.378c0.277,0,0.504,0.089,0.679,0.268c0.176,0.179,0.264,0.408,0.264,0.689
			c0,0.31-0.16,0.864-0.482,1.662l-1.134,2.781c-0.312,0.758-0.469,1.238-0.469,1.438c0,0.111,0.045,0.201,0.134,0.268
			c0.088,0.067,0.208,0.101,0.359,0.101c0.236,0,0.542-0.097,0.92-0.29c0.378-0.193,0.883-0.623,1.516-1.289
			c0.632-0.666,1.152-1.292,1.562-1.875c0.411-0.584,0.844-1.513,1.302-2.787l0.254-0.751H372.296z"/>
		<path id="XMLID_114_" style="fill:#1F1F1F;" d="M380.357,160.903l-0.628,2.688h-0.379c-0.034-0.782-0.231-1.352-0.589-1.708
			c-0.358-0.356-0.802-0.534-1.332-0.534c-0.428,0-0.767,0.099-1.018,0.299c-0.251,0.199-0.378,0.439-0.378,0.72
			c0,0.194,0.05,0.378,0.151,0.555c0.099,0.175,0.319,0.421,0.656,0.738c0.896,0.832,1.475,1.459,1.737,1.881
			c0.262,0.422,0.393,0.82,0.393,1.196c0,0.61-0.299,1.151-0.897,1.622c-0.598,0.472-1.352,0.707-2.264,0.707
			c-0.499,0-1.071-0.098-1.721-0.292c-0.228-0.069-0.406-0.104-0.528-0.104c-0.312,0-0.547,0.132-0.706,0.396h-0.383l0.626-2.853
			h0.38c0.042,0.896,0.259,1.53,0.655,1.901c0.394,0.372,0.935,0.557,1.621,0.557c0.527,0,0.944-0.124,1.252-0.374
			c0.309-0.25,0.463-0.555,0.463-0.92c0-0.234-0.054-0.451-0.165-0.651c-0.194-0.352-0.599-0.838-1.217-1.46
			c-0.619-0.621-1.016-1.088-1.192-1.398c-0.176-0.311-0.263-0.622-0.263-0.933c0-0.569,0.243-1.049,0.729-1.443
			c0.485-0.393,1.11-0.589,1.874-0.589c0.22,0,0.42,0.014,0.599,0.044c0.096,0.017,0.322,0.083,0.676,0.197
			c0.356,0.114,0.592,0.171,0.708,0.171c0.296,0,0.543-0.138,0.745-0.412H380.357z"/>
		<path id="XMLID_111_" style="fill:#1F1F1F;" d="M386.102,160.87l-2.194,6.245c-0.147,0.422-0.221,0.675-0.221,0.758
			c0,0.089,0.029,0.161,0.088,0.217c0.06,0.055,0.129,0.083,0.211,0.083c0.094,0,0.206-0.045,0.337-0.134
			c0.356-0.257,0.714-0.629,1.074-1.114l0.362,0.202c-0.446,0.602-0.971,1.102-1.576,1.497c-0.446,0.295-0.873,0.443-1.28,0.443
			c-0.27,0-0.49-0.072-0.661-0.216c-0.171-0.144-0.256-0.325-0.256-0.543c0-0.218,0.092-0.58,0.278-1.087l1.438-3.96
			c0.221-0.642,0.331-1.045,0.331-1.208c0-0.129-0.053-0.234-0.159-0.315c-0.108-0.083-0.254-0.123-0.439-0.123
			c-0.151,0-0.463,0.033-0.937,0.097v-0.347L386.102,160.87z M385.619,157.39c0.29,0,0.533,0.084,0.732,0.254
			c0.198,0.169,0.298,0.376,0.298,0.62c0,0.239-0.101,0.444-0.304,0.617c-0.203,0.172-0.445,0.258-0.726,0.258
			c-0.282,0-0.524-0.086-0.727-0.258c-0.203-0.173-0.304-0.378-0.304-0.617c0-0.244,0.1-0.451,0.3-0.62
			C385.086,157.474,385.331,157.39,385.619,157.39z"/>
		<path id="XMLID_108_" style="fill:#1F1F1F;" d="M397.199,161.085l-1.998,5.948l-0.227,0.798c-0.03,0.076-0.045,0.141-0.045,0.194
			c0,0.081,0.024,0.151,0.073,0.212c0.039,0.045,0.088,0.068,0.146,0.068c0.063,0,0.145-0.04,0.247-0.121
			c0.189-0.153,0.441-0.495,0.757-1.028l0.35,0.211c-0.397,0.584-0.807,1.014-1.227,1.289c-0.422,0.275-0.81,0.412-1.168,0.412
			c-0.248,0-0.44-0.064-0.577-0.188c-0.136-0.126-0.204-0.31-0.204-0.549c0-0.288,0.075-0.665,0.228-1.134l0.221-0.633
			c-0.989,0.992-1.898,1.685-2.728,2.079c-0.596,0.284-1.181,0.426-1.754,0.426c-0.552,0-1.027-0.173-1.428-0.52
			c-0.399-0.346-0.598-0.824-0.598-1.431c0-0.91,0.355-1.872,1.067-2.883c0.712-1.011,1.615-1.82,2.711-2.427
			c0.857-0.481,1.666-0.722,2.426-0.722c0.456,0,0.833,0.083,1.135,0.25c0.302,0.168,0.532,0.445,0.688,0.832l0.32-0.868
			L397.199,161.085z M393.416,161.53c-0.479,0-0.987,0.171-1.525,0.514c-0.763,0.486-1.441,1.205-2.035,2.158
			c-0.596,0.953-0.892,1.814-0.892,2.585c0,0.388,0.132,0.695,0.396,0.921c0.264,0.225,0.567,0.337,0.909,0.337
			c0.846,0,1.764-0.459,2.759-1.378c1.214-1.221,1.805-2.474,1.766-3.758c0-0.485-0.122-0.836-0.369-1.052
			C394.177,161.638,393.842,161.53,393.416,161.53z"/>
		<path id="XMLID_106_" style="fill:#1F1F1F;" d="M405.026,160.903l-0.626,2.688h-0.38c-0.036-0.782-0.231-1.352-0.589-1.708
			c-0.358-0.356-0.802-0.534-1.332-0.534c-0.427,0-0.766,0.099-1.018,0.299c-0.25,0.199-0.376,0.439-0.376,0.72
			c0,0.194,0.05,0.378,0.149,0.555c0.101,0.175,0.319,0.421,0.658,0.738c0.897,0.832,1.475,1.459,1.737,1.881
			c0.261,0.422,0.393,0.82,0.393,1.196c0,0.61-0.299,1.151-0.897,1.622c-0.598,0.472-1.353,0.707-2.265,0.707
			c-0.498,0-1.071-0.098-1.721-0.292c-0.228-0.069-0.403-0.104-0.528-0.104c-0.311,0-0.547,0.132-0.706,0.396h-0.383l0.627-2.853
			h0.379c0.041,0.896,0.26,1.53,0.654,1.901c0.396,0.372,0.935,0.557,1.622,0.557c0.526,0,0.944-0.124,1.252-0.374
			c0.309-0.25,0.462-0.555,0.462-0.92c0-0.234-0.054-0.451-0.165-0.651c-0.193-0.352-0.598-0.838-1.217-1.46
			c-0.617-0.621-1.014-1.088-1.189-1.398c-0.178-0.311-0.265-0.622-0.265-0.933c0-0.569,0.242-1.049,0.728-1.443
			c0.486-0.393,1.11-0.589,1.876-0.589c0.221,0,0.42,0.014,0.599,0.044c0.097,0.017,0.322,0.083,0.676,0.197
			c0.355,0.114,0.59,0.171,0.707,0.171c0.297,0,0.546-0.138,0.745-0.412H405.026z"/>
		<path id="XMLID_104_" style="fill:#1F1F1F;" d="M411.31,158.742l-0.841,2.375h1.413l-0.182,0.561h-1.432l-1.884,5.166
			c-0.241,0.601-0.362,0.99-0.362,1.167c0,0.093,0.025,0.164,0.074,0.213c0.048,0.049,0.107,0.074,0.174,0.074
			c0.154,0,0.355-0.096,0.606-0.288c0.146-0.117,0.474-0.476,0.983-1.078l0.34,0.219c-0.598,0.769-1.163,1.304-1.696,1.605
			c-0.364,0.207-0.732,0.311-1.101,0.311c-0.286,0-0.52-0.081-0.702-0.242c-0.182-0.161-0.272-0.368-0.272-0.621
			c0-0.316,0.116-0.798,0.349-1.447l1.819-5.079h-1.576l0.104-0.347c0.757-0.177,1.401-0.439,1.931-0.785
			c0.53-0.347,1.131-0.947,1.802-1.803H411.31z"/>
		<path id="XMLID_97_" style="fill:#1F1F1F;" d="M416.647,160.87l-2.192,6.245c-0.149,0.422-0.222,0.675-0.222,0.758
			c0,0.089,0.03,0.161,0.089,0.217c0.059,0.055,0.129,0.083,0.21,0.083c0.093,0,0.206-0.045,0.337-0.134
			c0.354-0.257,0.713-0.629,1.074-1.114l0.362,0.202c-0.447,0.602-0.973,1.102-1.576,1.497c-0.446,0.295-0.873,0.443-1.282,0.443
			c-0.269,0-0.49-0.072-0.66-0.216c-0.171-0.144-0.256-0.325-0.256-0.543c0-0.218,0.092-0.58,0.276-1.087l1.438-3.96
			c0.221-0.642,0.331-1.045,0.331-1.208c0-0.129-0.053-0.234-0.16-0.315c-0.107-0.083-0.253-0.123-0.437-0.123
			c-0.151,0-0.464,0.033-0.937,0.097v-0.347L416.647,160.87z M416.166,157.39c0.288,0,0.533,0.084,0.732,0.254
			c0.199,0.169,0.299,0.376,0.299,0.62c0,0.239-0.101,0.444-0.304,0.617c-0.203,0.172-0.445,0.258-0.726,0.258
			c-0.282,0-0.524-0.086-0.727-0.258c-0.203-0.173-0.304-0.378-0.304-0.617c0-0.244,0.1-0.451,0.3-0.62
			C415.633,157.474,415.877,157.39,416.166,157.39z"/>
		<path id="XMLID_95_" style="fill:#1F1F1F;" d="M425.486,166.943c-0.717,0.731-1.44,1.268-2.169,1.61
			c-0.729,0.343-1.502,0.514-2.314,0.514c-0.978,0-1.74-0.234-2.288-0.703c-0.547-0.468-0.821-1.099-0.821-1.889
			c0-0.897,0.294-1.778,0.883-2.645c0.589-0.867,1.38-1.572,2.376-2.114c0.995-0.541,1.972-0.813,2.928-0.813
			c0.751,0,1.312,0.132,1.684,0.397c0.371,0.264,0.558,0.589,0.558,0.972c0,0.359-0.131,0.667-0.393,0.924
			c-0.192,0.197-0.43,0.296-0.711,0.296c-0.214,0-0.391-0.057-0.531-0.173c-0.141-0.116-0.213-0.262-0.213-0.436
			c0-0.11,0.026-0.212,0.078-0.304c0.051-0.093,0.158-0.205,0.319-0.336c0.16-0.13,0.26-0.225,0.294-0.283
			c0.034-0.057,0.051-0.119,0.051-0.182c0-0.122-0.065-0.224-0.197-0.305c-0.201-0.116-0.485-0.174-0.852-0.174
			c-0.679,0-1.352,0.203-2.017,0.606c-0.667,0.404-1.234,0.978-1.705,1.722c-0.568,0.903-0.853,1.805-0.853,2.707
			c0,0.597,0.202,1.071,0.604,1.419c0.403,0.349,0.948,0.523,1.642,0.523c0.533,0,1.062-0.113,1.587-0.337
			c0.522-0.225,1.11-0.633,1.762-1.224L425.486,166.943z"/>
		<path id="XMLID_93_" style="fill:#1F1F1F;" d="M438.823,157.588l-1.606,4.718h1.335c0.935,0,1.614-0.122,2.033-0.365
			c0.421-0.244,0.782-0.694,1.083-1.351h0.381l-1.435,4.321h-0.412c0.123-0.362,0.186-0.672,0.186-0.928
			c0-0.25-0.061-0.452-0.18-0.604c-0.121-0.152-0.287-0.265-0.496-0.337c-0.21-0.073-0.652-0.11-1.325-0.11h-1.365l-1.411,4.176
			c-0.131,0.314-0.197,0.553-0.197,0.717c0,0.125,0.086,0.236,0.26,0.333c0.121,0.068,0.422,0.101,0.906,0.101h1.278
			c1.345,0,2.421-0.201,3.231-0.604c0.81-0.403,1.536-1.103,2.177-2.101h0.383l-1.32,3.299h-10.817l0.134-0.313
			c0.537-0.012,0.898-0.053,1.085-0.123c0.274-0.106,0.474-0.241,0.598-0.406c0.185-0.241,0.406-0.747,0.661-1.516l2.437-7.183
			c0.193-0.58,0.29-1.021,0.29-1.326c0-0.222-0.091-0.396-0.273-0.522c-0.182-0.126-0.539-0.188-1.068-0.188h-0.218l0.125-0.314
			h10.081l-0.874,2.853h-0.38c0.048-0.269,0.073-0.493,0.073-0.675c0-0.309-0.089-0.57-0.269-0.78
			c-0.235-0.269-0.574-0.474-1.021-0.614c-0.33-0.105-1.09-0.158-2.28-0.158H438.823z"/>
		<path id="XMLID_71_" style="fill:#1F1F1F;" d="M448.279,160.903c0.234,0.339,0.396,0.656,0.486,0.951
			c0.089,0.295,0.179,0.876,0.269,1.741l0.454,4.314c0.413-0.421,1.011-1.087,1.796-1.999c0.378-0.445,0.847-1.049,1.403-1.815
			c0.337-0.468,0.544-0.795,0.619-0.982c0.042-0.094,0.062-0.191,0.062-0.29c0-0.064-0.023-0.117-0.073-0.157
			c-0.048-0.042-0.174-0.09-0.377-0.145c-0.204-0.055-0.372-0.158-0.506-0.306c-0.135-0.15-0.202-0.32-0.202-0.514
			c0-0.239,0.083-0.432,0.247-0.578c0.166-0.146,0.372-0.219,0.62-0.219c0.303,0,0.561,0.107,0.775,0.321
			c0.213,0.213,0.32,0.508,0.32,0.882c0,0.463-0.185,0.992-0.557,1.587c-0.372,0.594-1.087,1.507-2.147,2.736
			c-1.059,1.23-2.343,2.57-3.851,4.02c-1.041,1-1.812,1.63-2.316,1.89c-0.503,0.26-0.934,0.39-1.291,0.39
			c-0.214,0-0.402-0.068-0.564-0.205c-0.161-0.137-0.244-0.296-0.244-0.477c0-0.228,0.112-0.435,0.337-0.622
			c0.224-0.186,0.466-0.279,0.728-0.279c0.138,0,0.252,0.026,0.34,0.078c0.055,0.029,0.117,0.112,0.182,0.248
			c0.064,0.136,0.125,0.227,0.18,0.273c0.035,0.029,0.075,0.044,0.123,0.044c0.042,0,0.114-0.03,0.217-0.088
			c0.379-0.2,0.82-0.516,1.323-0.95c0.657-0.575,1.146-1.046,1.468-1.413l-0.578-5.568c-0.096-0.919-0.241-1.478-0.434-1.677
			c-0.192-0.199-0.515-0.299-0.97-0.299c-0.145,0-0.402,0.017-0.774,0.053l-0.098-0.317L448.279,160.903z"/>
		<path id="XMLID_68_" style="fill:#1F1F1F;" d="M460.01,164.976c-0.782,0.24-1.88,0.427-3.296,0.561
			c-0.044,0.295-0.065,0.539-0.065,0.733c0,0.524,0.219,0.97,0.66,1.338c0.439,0.368,0.975,0.552,1.603,0.552
			c0.502,0,0.987-0.086,1.451-0.259c0.465-0.174,1.155-0.558,2.07-1.151l0.215,0.254c-1.63,1.376-3.185,2.063-4.665,2.063
			c-1.004,0-1.761-0.269-2.27-0.808c-0.511-0.539-0.764-1.134-0.764-1.784c0-0.872,0.315-1.767,0.949-2.68
			c0.632-0.914,1.427-1.624,2.383-2.131c0.956-0.507,1.939-0.76,2.95-0.76c0.729,0,1.27,0.126,1.62,0.378
			c0.351,0.251,0.526,0.55,0.526,0.895c0,0.486-0.231,0.951-0.691,1.395C462.081,164.151,461.187,164.619,460.01,164.976
			L460.01,164.976z M456.788,165.109c1.037-0.099,1.883-0.269,2.534-0.508c0.863-0.322,1.51-0.706,1.94-1.153
			c0.432-0.447,0.648-0.872,0.648-1.275c0-0.246-0.093-0.444-0.278-0.596c-0.186-0.152-0.45-0.228-0.794-0.228
			c-0.715,0-1.474,0.317-2.277,0.951C457.756,162.933,457.166,163.87,456.788,165.109z"/>
		<path id="XMLID_65_" style="fill:#1F1F1F;" d="M472.533,160.903l0.726,6.59c1.189-1.195,2.141-2.317,2.857-3.366
			c0.418-0.615,0.63-1.06,0.63-1.335c0-0.129-0.036-0.243-0.102-0.342c-0.028-0.053-0.135-0.13-0.322-0.233
			c-0.188-0.103-0.319-0.208-0.393-0.316c-0.076-0.108-0.112-0.224-0.112-0.347c0-0.181,0.079-0.335,0.235-0.461
			c0.158-0.126,0.359-0.189,0.605-0.189c0.281,0,0.518,0.089,0.714,0.268c0.196,0.179,0.293,0.418,0.293,0.717
			c0,0.305-0.051,0.589-0.154,0.853c-0.207,0.504-0.61,1.154-1.208,1.951c-0.729,0.955-1.481,1.841-2.254,2.659
			c-0.773,0.817-1.35,1.39-1.728,1.718h-0.38l-0.676-6.07l-4.264,6.07h-0.453c-0.048-2.5-0.197-4.472-0.443-5.919
			c-0.104-0.603-0.276-0.998-0.517-1.186c-0.172-0.134-0.434-0.201-0.784-0.201c-0.2,0-0.455,0.017-0.763,0.052v-0.317l2.967-0.593
			c0.413,0.975,0.682,2.473,0.806,4.493c0.041,0.764,0.076,1.246,0.104,1.444l4.236-5.937H472.533z"/>
		<path id="XMLID_62_" style="fill:#1F1F1F;" d="M483.495,164.976c-0.781,0.24-1.88,0.427-3.296,0.561
			c-0.043,0.295-0.065,0.539-0.065,0.733c0,0.524,0.219,0.97,0.66,1.338c0.441,0.368,0.975,0.552,1.604,0.552
			c0.502,0,0.986-0.086,1.451-0.259c0.465-0.174,1.155-0.558,2.07-1.151l0.215,0.254c-1.631,1.376-3.185,2.063-4.665,2.063
			c-1.005,0-1.762-0.269-2.271-0.808c-0.509-0.539-0.763-1.134-0.763-1.784c0-0.872,0.316-1.767,0.949-2.68
			c0.632-0.914,1.426-1.624,2.383-2.131c0.956-0.507,1.939-0.76,2.95-0.76c0.729,0,1.269,0.126,1.62,0.378
			c0.35,0.251,0.525,0.55,0.525,0.895c0,0.486-0.229,0.951-0.689,1.395C485.567,164.151,484.674,164.619,483.495,164.976
			L483.495,164.976z M480.274,165.109c1.037-0.099,1.882-0.269,2.534-0.508c0.862-0.322,1.51-0.706,1.941-1.153
			c0.431-0.447,0.647-0.872,0.647-1.275c0-0.246-0.093-0.444-0.278-0.596c-0.187-0.152-0.451-0.228-0.794-0.228
			c-0.716,0-1.474,0.317-2.278,0.951C481.242,162.933,480.652,163.87,480.274,165.109z"/>
		<path id="XMLID_45_" style="fill:#1F1F1F;" d="M497.59,161.085l-1.998,5.948l-0.226,0.798c-0.03,0.076-0.045,0.141-0.045,0.194
			c0,0.081,0.023,0.151,0.073,0.212c0.038,0.045,0.087,0.068,0.145,0.068c0.063,0,0.146-0.04,0.249-0.121
			c0.189-0.153,0.441-0.495,0.757-1.028l0.35,0.211c-0.398,0.584-0.808,1.014-1.229,1.289c-0.421,0.275-0.81,0.412-1.167,0.412
			c-0.248,0-0.44-0.064-0.577-0.188c-0.135-0.126-0.204-0.31-0.204-0.549c0-0.288,0.076-0.665,0.227-1.134l0.222-0.633
			c-0.989,0.992-1.897,1.685-2.728,2.079c-0.596,0.284-1.18,0.426-1.755,0.426c-0.55,0-1.025-0.173-1.425-0.52
			c-0.4-0.346-0.599-0.824-0.599-1.431c0-0.91,0.355-1.872,1.067-2.883c0.712-1.011,1.616-1.82,2.711-2.427
			c0.857-0.481,1.667-0.722,2.427-0.722c0.455,0,0.832,0.083,1.135,0.25c0.301,0.168,0.53,0.445,0.687,0.832l0.321-0.868
			L497.59,161.085z M493.806,161.53c-0.478,0-0.986,0.171-1.524,0.514c-0.763,0.486-1.442,1.205-2.035,2.158
			c-0.595,0.953-0.892,1.814-0.892,2.585c0,0.388,0.132,0.695,0.397,0.921c0.263,0.225,0.567,0.337,0.908,0.337
			c0.847,0,1.766-0.459,2.76-1.378c1.216-1.221,1.805-2.474,1.767-3.758c0-0.485-0.124-0.836-0.37-1.052
			C494.569,161.638,494.232,161.53,493.806,161.53z"/>
		<path id="XMLID_43_" style="fill:#1F1F1F;" d="M498.766,161.431l3.536-0.496l-1.439,4.251c1.216-1.743,2.32-2.961,3.313-3.655
			c0.563-0.397,1.021-0.596,1.375-0.596c0.23,0,0.41,0.057,0.542,0.171c0.133,0.114,0.198,0.278,0.198,0.495
			c0,0.384-0.117,0.751-0.351,1.102c-0.167,0.263-0.405,0.393-0.716,0.393c-0.159,0-0.294-0.044-0.408-0.132
			c-0.115-0.087-0.185-0.222-0.213-0.404c-0.014-0.11-0.045-0.184-0.093-0.219c-0.055-0.047-0.12-0.07-0.197-0.07
			c-0.118,0-0.229,0.023-0.331,0.069c-0.18,0.082-0.452,0.309-0.819,0.682c-0.572,0.57-1.194,1.311-1.863,2.219
			c-0.29,0.384-0.538,0.819-0.745,1.302c-0.291,0.664-0.455,1.064-0.496,1.198l-0.326,1.11h-1.574l1.844-5.427
			c0.219-0.634,0.33-1.087,0.33-1.357c0-0.105-0.052-0.194-0.155-0.264c-0.136-0.094-0.31-0.141-0.521-0.141
			c-0.135,0-0.381,0.027-0.74,0.079L498.766,161.431z"/>
	</g>
</g>
<g id="Layer_1">
</g>
</svg>
