<?xml version="1.0" encoding="iso-8859-1"?>
<!-- Generator: Adobe Illustrator 19.0.0, SVG Export Plug-In . SVG Version: 6.00 Build 0)  -->
<svg version="1.1" xmlns="http://www.w3.org/2000/svg" xmlns:xlink="http://www.w3.org/1999/xlink" x="0px" y="0px"
	 viewBox="0 0 630 276.585" style="enable-background:new 0 0 630 276.585;" xml:space="preserve">
<g id="tiso">
	<g id="v6gV3o.tif">
		<g id="XMLID_400_">
			<path id="XMLID_402_" style="fill:#1F1F1F;" d="M493.642,225.646c-126.516,0-253.033,0-379.549,0
				c-0.05-0.085-0.099-0.169-0.149-0.254c0.53-0.38,1.054-0.768,1.589-1.14c28.884-20.022,57.768-40.044,86.653-60.064
				c5.873-4.071,11.735-8.159,17.635-12.192c0.911-0.622,1.369-1.373,1.609-2.412c3.785-16.349,7.594-32.692,11.394-49.037
				c0.12-0.517,0.21-1.041,0.352-1.757c-8.92,0-17.745,0-26.825,0c2.144-9.387,4.235-18.541,6.334-27.732
				c28.774,0,57.413,0,86.221,0c-2.113,9.241-4.207,18.402-6.319,27.636c-8.462,0-16.774,0-25.29,0
				c-1.957,8.048-3.9,16.039-5.92,24.349c0.66-0.399,1.056-0.61,1.422-0.864c44.315-30.712,88.628-61.427,132.939-92.145
				c0.304-0.211,0.585-0.454,0.877-0.682c0.107,0,0.213,0,0.32,0c0.255,0.634,0.469,1.288,0.771,1.899
				c13.197,26.749,26.401,53.495,39.606,80.24c0.256,0.518,0.526,1.029,0.804,1.571c0.602,0.053,1.129,0.096,1.654,0.148
				c3.393,0.336,6.8,0.571,10.175,1.04c3.225,0.448,6.389,1.246,9.235,2.93c3.265,1.932,4.588,4.67,3.796,8.37
				c-1.727,8.072-3.554,16.123-5.399,24.169c-0.298,1.301-0.249,2.392,0.365,3.631c10.975,22.144,21.898,44.313,32.842,66.472
				c0.915,1.853,1.904,3.671,2.858,5.505C493.642,225.433,493.642,225.54,493.642,225.646z M136.811,218.199
				c0.043,0.099,0.086,0.198,0.129,0.297c114.991,0,229.982,0,345.219,0c-9.22-18.678-18.371-37.216-27.522-55.755
				c-0.768,2.005-1.272,3.906-1.744,5.814c-0.678,2.745-2.103,5.04-4.373,6.692c-1.584,1.152-3.283,2.199-5.055,3.031
				c-4.631,2.175-9.608,3.173-14.646,3.782c-10.693,1.292-21.401,1.232-32.097,0.019c-3.556-0.403-7.044-1.175-10.274-2.825
				c-3.284-1.679-5.67-4.471-4.387-9.638c3.555-14.323,6.959-28.684,10.278-43.063c0.574-2.485,1.805-4.257,3.731-5.718
				c2.884-2.188,6.148-3.607,9.566-4.704c7.076-2.27,14.376-3.028,21.762-3.188c0.814-0.018,1.629-0.002,2.66-0.002
				c-12.094-24.501-24.043-48.709-36.04-73.012c-37.359,25.894-74.573,51.688-111.787,77.481c0.053,0.131,0.105,0.263,0.158,0.394
				c7.964,0,15.929,0,24.017,0c-4.626,20.881-9.211,41.576-13.792,62.256c-11.389,0-22.655,0-34.021,0
				c5.159-18.981,10.281-37.828,15.455-56.864c-0.405,0.221-0.601,0.306-0.773,0.425c-4.561,3.157-9.133,6.297-13.659,9.504
				c-0.497,0.352-0.895,1.048-1.045,1.656c-3.004,12.209-5.965,24.429-8.936,36.646c-0.702,2.888-1.412,5.774-2.121,8.676
				c-11.106,0-22.082,0-33.212,0c1.425-6.161,2.827-12.221,4.302-18.599C191.132,180.547,163.972,199.373,136.811,218.199z
				 M411.633,169.007c2.54,2.99,6.854,3.751,11.12,0.884c0.757-0.509,1.219-1.098,1.398-2.008c0.328-1.672,0.756-3.324,1.142-4.985
				c2.628-11.313,5.27-22.622,7.873-33.941c0.607-2.639-0.955-4.659-3.644-4.861c-2.518-0.189-4.823,0.559-7.108,1.566
				C418.814,140.137,415.228,154.554,411.633,169.007z"/>
			<path id="XMLID_366_" style="fill:#1F1F1F;" d="M306.513,157.232c9.411,0.121,18.785,0.242,28.327,0.365
				c-0.401,1.872-0.856,3.56-1.105,5.279c-0.282,1.945-0.515,3.916-0.522,5.876c-0.008,2.337,1.204,3.463,3.503,3.769
				c3.23,0.43,6.037-0.374,8.318-2.744c2.751-2.858,2.564-6.233-0.468-8.77c-0.489-0.409-1.028-0.763-1.566-1.107
				c-10.077-6.449-19.563-13.715-29.053-20.978c-0.955-0.731-1.09-1.659-1.185-2.65c-0.498-5.184,1.017-9.695,4.649-13.45
				c2.961-3.061,6.632-4.969,10.591-6.38c5.264-1.877,10.734-2.73,16.276-3.17c5.968-0.474,11.941-0.504,17.911-0.02
				c4.85,0.393,9.661,1.037,14.201,2.893c1.614,0.66,3.202,1.491,4.62,2.5c3.899,2.773,5.152,6.622,4.172,11.25
				c-0.654,3.086-2.126,5.774-3.935,8.268c-9.248,0-18.408,0-27.58,0c0.605-2.059,1.324-4.017,1.728-6.038
				c0.298-1.49,0.365-3.081,0.211-4.594c-0.237-2.34-1.866-3.72-4.223-3.765c-3.478-0.067-6.323,1.359-8.525,3.996
				c-1.294,1.551-1.333,3.078-0.127,4.692c0.725,0.97,1.612,1.862,2.57,2.606c1.471,1.142,3.069,2.119,4.604,3.179
				c2.762,1.907,5.498,3.852,8.282,5.727c1.944,1.309,3.975,2.491,5.922,3.797c2.211,1.483,4.497,2.89,6.533,4.591
				c8.198,6.847,5.638,17.996-0.381,22.832c-3.672,2.951-7.928,4.559-12.429,5.592c-9.012,2.069-18.18,2.304-27.37,2.1
				c-5.555-0.123-11.097-0.538-16.463-2.08c-2.286-0.657-4.514-1.6-6.657-2.64c-1.113-0.54-2.08-1.489-2.944-2.411
				c-1.153-1.231-1.586-2.792-1.202-4.461C304.257,166.664,305.37,162.056,306.513,157.232z"/>
		</g>
	</g>
</g>
<g id="Layer_1">
</g>
</svg>
