<?xml version="1.0" encoding="iso-8859-1"?>
<!-- Generator: Adobe Illustrator 19.0.0, SVG Export Plug-In . SVG Version: 6.00 Build 0)  -->
<svg version="1.1" xmlns="http://www.w3.org/2000/svg" xmlns:xlink="http://www.w3.org/1999/xlink" x="0px" y="0px"
	 viewBox="0 0 630 276.585" style="enable-background:new 0 0 630 276.585;" xml:space="preserve">
<g id="titleist">
	<path id="XMLID_261_" style="fill-rule:evenodd;clip-rule:evenodd;fill:#1F1F1F;" d="M205.45,168.222c0,0-9.303,5.876-13.219,7.834
		c-3.917,1.469-11.751,2.448-13.709-0.979c-1.958-3.427-2.448-5.875,2.448-7.833c4.406-1.959,24.48-5.386,36.23-31.335
		c2.448-4.896,5.876-3.917,10.282-2.938c3.917,0.489,3.917,3.427,1.469,7.833c-2.938,4.407-7.344,12.73-9.303,15.178
		c-3.427,5.876,0.489,13.709,9.792,9.303c10.771-5.386,15.178-11.75,20.074-18.605c4.896-7.344,8.812-12.24,10.771-15.178
		c-5.876-0.49-9.792,1.469-9.303-3.917c0.98-4.406,0.489-5.875,14.688-5.386c2.447-2.448,5.875-8.323,6.854-9.303
		c0.979-1.469,2.447-3.427,7.833-0.98c2.448,0.98,2.938,2.448,1.469,4.896c-1.469,2.448-2.938,5.386-3.427,5.875
		c1.469,0,6.854,0,11.261,0.49c2.937,0.489,3.428,1.469,3.428,2.937c-0.49,4.896,0,7.344-8.813,6.364
		c-2.938,0-11.261-0.489-11.261-0.489s-7.344,11.261-9.792,16.157c-2.448,4.406-6.365,11.75,0,14.688
		c4.406,1.959,12.73,2.938,19.095,0c9.303-3.427,14.198-5.385,18.605-10.281c-0.979-5.875,0-21.053,9.303-37.21
		c8.813-15.178,14.198-17.626,18.605-21.053c4.896-2.938,12.729-6.854,18.115-1.469c5.875,5.385,6.855,15.667,0.98,26.928
		c-5.876,11.261-16.647,26.438-31.335,36.721c0.979,1.958,1.958,6.364,7.344,8.323c7.344,2.938,17.137,2.448,26.439-4.896
		c-4.406-10.281-0.979-23.501,7.345-30.355c8.812-7.344,26.438-8.813,26.928,8.323c0,8.813-6.364,17.626-14.688,23.501
		c1.958,1.959,16.646,5.386,23.011-8.323c5.386-12.73,7.344-18.605,8.813-22.032c0.489-1.958,1.958-6.364,8.323-2.937
		c5.386,2.937,3.917,5.386,0.979,11.751c-2.937,6.854-5.386,14.198-4.896,18.115c0.98,3.917,1.959,5.875,7.344,5.386
		c5.386,0,10.282-4.896,14.199-11.261c3.917-6.365,10.771-19.585,12.24-23.991c2.448-5.875,6.854-6.855,8.323-4.896
		c1.958,2.447,5.386,9.792,8.323,15.178c2.448,5.875,6.854,18.604,5.875,23.99c5.875-0.98,11.261-3.427,16.646-13.709
		c0.979-2.448,3.428-5.875,4.407-9.303c-2.448,0-10.771,0.49-9.303-5.386c1.469-6.855,3.917-5.385,9.792-5.875
		c3.427,0.49,4.896,0,4.896,0s2.448-3.427,3.428-5.875c2.448-5.386,3.917-7.834,11.751-7.344c3.916,0-0.49,7.344-2.938,14.198
		c4.896,0,11.751,0,16.647,0c6.854,0,14.198,0,12.239,5.386c-1.958,5.875-3.427,6.364-15.667,6.364
		c-12.24,0-19.095-0.489-19.095-0.489s-4.896,6.365-8.323,16.646c-0.489,2.448-2.448,8.323,4.896,8.813
		c7.833,0.979,10.771-0.49,13.219-2.448c2.938-1.959,3.917-2.937,6.854-1.469c2.938,1.469,2.448,7.344,0,9.792
		c-2.448,2.448-11.261,7.344-19.095,7.834c-7.833,0-14.198-1.469-19.584-9.793c-4.896,4.407-13.22,6.365-18.115,4.896
		c-1.469,1.469-16.157,11.751-26.438-4.406c-2.448,1.958-10.282,8.323-18.605,7.833c-5.386,0-11.261-3.916-14.688-7.344
		c-1.958,1.469-9.303,7.834-22.522,7.344c-2.938,0-10.771-0.489-18.115-8.323c-2.938,2.448-12.24,8.813-26.439,8.813
		c-5.875,0-18.115-3.428-23.501-14.198c-8.323,6.855-27.418,13.219-37.699,12.73c-7.345,0-15.178-3.428-19.585-8.813
		c-1.469,1.469-13.219,10.771-25.459,10.282C216.222,178.505,211.326,176.546,205.45,168.222L205.45,168.222z M436.054,160.389
		c1.958,5.875,8.323,5.875,11.75,3.917c1.47-0.979,0.49-5.386-0.489-9.303c-0.489-3.917-3.917-11.261-3.917-11.261
		C440.46,152.066,437.034,158.43,436.054,160.389L436.054,160.389z M362.124,154.024c0,0,5.386-4.896,8.323-9.303
		c5.386-6.854,0-11.261-4.896-8.813C361.144,137.867,357.227,146.68,362.124,154.024L362.124,154.024z M338.133,111.429
		c0.979-2.448,2.938-8.323,0.49-8.813c-3.917-0.98-7.834,1.469-16.646,14.198c-11.262,16.647-9.303,27.907-9.303,27.907
		C327.362,134.93,336.664,114.366,338.133,111.429L338.133,111.429z"/>
	<path id="XMLID_245_" style="fill-rule:evenodd;clip-rule:evenodd;fill:#1F1F1F;" d="M165.792,107.022c0,0,8.323-2.448,9.303,2.448
		c0.489,4.406-0.49,7.344-5.386,8.813c-4.896,1.469-17.137,6.855-29.866,0.98c-12.73-5.386-9.792-17.626-3.428-23.991
		c6.854-5.875,13.22-14.688,38.679-14.688c27.418,0,62.179,1.469,73.44,1.958c10.771,0,21.053,0,26.928-2.448
		c5.875-1.958,16.157-8.323,17.136-0.979c0.98,6.364-3.917,10.281-9.792,11.75s-28.397,3.917-36.231,3.917
		c-7.834,0-48.471-1.469-53.367-1.958c-4.896-0.49-13.709-1.959-25.949,0c-9.303,1.469-16.157,5.385-19.095,8.813
		c-2.938,2.938-6.854,10.771,6.365,8.323C159.917,109.47,165.792,107.022,165.792,107.022L165.792,107.022z"/>
	<path id="XMLID_244_" style="fill-rule:evenodd;clip-rule:evenodd;fill:#1F1F1F;" d="M100.185,177.036c0,0-4.406-5.875,0-8.813
		c4.406-2.937,7.344-0.979,9.303,1.959c3.917,4.896,16.156,18.605,32.804,3.427c6.854-6.364,25.949-30.845,42.596-52.877
		c5.386-7.344,13.219-18.115,19.584-18.115c6.855-0.49,8.813,1.469,5.386,5.386c-3.428,4.406-48.961,62.669-56.795,70.992
		C142.292,191.234,118.301,202.495,100.185,177.036L100.185,177.036z"/>
	<path id="XMLID_243_" style="fill-rule:evenodd;clip-rule:evenodd;fill:#1F1F1F;" d="M235.806,129.054
		c4.406,0,7.834-3.428,7.834-7.344c0-4.407-3.428-7.834-7.834-7.834c-4.406,0-7.834,3.427-7.834,7.834
		C227.972,125.627,231.4,129.054,235.806,129.054L235.806,129.054z"/>
	<path id="XMLID_242_" style="fill-rule:evenodd;clip-rule:evenodd;fill:#1F1F1F;" d="M415.98,122.2
		c4.406,0,7.834-3.428,7.834-7.834c0-3.917-3.428-7.344-7.834-7.344c-4.406,0-7.833,3.427-7.833,7.344
		C408.147,118.772,411.574,122.2,415.98,122.2L415.98,122.2z"/>
	<path id="XMLID_254_" style="fill-rule:evenodd;clip-rule:evenodd;fill:#1F1F1F;" d="M536.139,108.35
		c-4.071,0-7.634,3.308-7.634,7.888c0,4.326,3.563,7.634,7.634,7.634c4.071,0,7.634-3.309,7.634-7.634
		C543.773,111.658,540.21,108.35,536.139,108.35L536.139,108.35L536.139,108.35z M536.139,122.6c-3.563,0-6.107-2.798-6.107-6.361
		c0-3.817,2.544-6.362,6.107-6.362c3.562,0,6.107,2.545,6.107,6.362C542.246,119.802,539.701,122.6,536.139,122.6L536.139,122.6
		L536.139,122.6z"/>
	<path id="XMLID_251_" style="fill-rule:evenodd;clip-rule:evenodd;fill:#1F1F1F;" d="M537.411,116.748
		c1.272-0.254,2.29-1.018,2.29-2.544c0-1.781-1.018-2.545-3.054-2.545l0,0h-3.308v8.906h1.272v-3.817h1.527l2.29,3.817h1.527
		L537.411,116.748L537.411,116.748z M534.612,115.475v-2.545h1.781c0.764,0,1.781,0.255,1.781,1.273
		c0,1.272-1.018,1.272-2.036,1.272l0,0H534.612L534.612,115.475z"/>
</g>
<g id="Layer_1">
</g>
</svg>
