<?xml version="1.0" encoding="iso-8859-1"?>
<!-- Generator: Adobe Illustrator 19.0.0, SVG Export Plug-In . SVG Version: 6.00 Build 0)  -->
<svg version="1.1" xmlns="http://www.w3.org/2000/svg" xmlns:xlink="http://www.w3.org/1999/xlink" x="0px" y="0px"
	 viewBox="0 0 630 276.585" style="enable-background:new 0 0 630 276.585;" xml:space="preserve">
<g id="toys-r-us">
	<path id="XMLID_383_" style="fill:#1F1F1F;" d="M405.515,94.16c-24.763-12.326-49.221-13.636-64.438-9.231
		c-28.126,8.162-36.846,42.675-10.788,59.585c1.577,1.023,0.587,3.177-1.391,6.621c-2.441,4.275-6.974,12.695-14.971,18.764
		c-4.824,3.667-7.95,5.181-3.986,9.702c0,0,8.813,9.519,15.318,12.293c7.848,3.313,9.812,2.762,15.654-2.522
		c3.669-3.319,10.949-12.402,19.732-26.849c4.554-7.514,10.65-7.658,9.818,4.704c0,0-1.2,11.898-1.528,14.358
		c-0.982,7.092-0.218,9.553,6.355,9.614c0,0,14.135-0.762,19.037-1.424c6.9-0.907,6.526-1.984,8.333-7.241
		c9.655-28.051,10.474-76.208,10.474-76.208C413.54,99.88,411.427,97.112,405.515,94.16 M387.433,120.13
		c0,0-8.767,5.809-8.987,5.959c-0.744,0.566-1.766,1.227-1.903,3.914c-0.053,1.118-0.395,9.048-0.416,10.03
		c-0.02,1.096-0.511,4.085-4.085,1.035c0,0-5.973-5.053-6.86-5.809c-0.198-0.163-2.251-2.4-5.442-1.071l-9.354,3.606
		c0,0-5.633,2.217-3.533-2.665c2.033-4.745,3.396-8.7,3.845-9.969c0.464-1.322,0.3-3.191-0.838-4.5
		c-0.526-0.587-5.01-6.314-6.042-7.732c0,0-3.688-4.242,2.461-3.955c0,0,10.501,0.224,10.664,0.245
		c0.177,0.014,2.141,0.143,3.547-1.991c1.732-2.624,6.805-8.775,5.748-7.473c0.886-1.07,2.946-3.757,4.309,0.689
		c0,0,1.929,5.864,2.844,8.319c0.627,1.664,1.023,2.802,4.146,3.763l9.647,3.368C387.188,115.896,391.695,117.239,387.433,120.13"/>
	<path id="XMLID_377_" style="fill:#1F1F1F;" d="M202.226,131.503c-4.497-7.206-11.704-11.843-20.292-13.015
		c-10.966-1.493-21.58,2.844-27.696,11.277c-4.489,6.218-5.936,13.691-4.057,21.069c4.518,17.774,22.601,22.731,33.919,19.498
		c12.77-3.653,19.912-10.875,21.853-22.036C206.883,142.91,205.526,136.8,202.226,131.503 M171.127,155.517
		c-3.577-1.153-6.235-6.654-4.943-12.628c1.285-5.981,5.635-10.126,9.675-8.891c3.589,1.111,6.228,6.955,4.98,12.941
		C179.504,153.309,175.226,156.847,171.127,155.517"/>
	<path id="XMLID_318_" style="fill:#1F1F1F;" d="M430.735,117.901c-1.035,1.534-9.205,13.5-10.228,31.903
		c-0.444,8.182,3.28,15.395,9.973,19.315c7.424,4.35,17.067,3.995,25.781-0.988c18.717-10.698,20.818-37.637,20.292-49.794
		c-0.116-2.816-1.827-4.5-4.698-4.623c-1.096-0.055-3.47,0.028-6.149,0.253c-2.72,0.224-4.35,2.06-4.478,5.032l-0.028,0.791
		c-0.122,11.291-0.915,21.321-6,27.484c-3.327,4.072-7.302,5.694-9.92,4.637c-2.339-0.927-3.839-3.955-3.471-7.057
		c0.893-7.718,4.27-13.787,6.356-17.666l0.893-1.683c1.275-2.612,0.634-5.393-1.507-6.464c-1.241-0.627-3.948-1.595-6.34-2.449
		l-2.885-1.037C436.273,114.778,433.245,114.171,430.735,117.901"/>
	<path id="XMLID_317_" style="fill:#1F1F1F;" d="M496.328,110.033c-8.129,4.201-12.301,9.934-13.159,18.047
		c-1.167,10.944,14.25,18.573,17.917,20.496c4.419,2.323,4.582,5.01,3.437,6.607c-1.807,2.496-6.813,1.793-10.501,0.355
		c-4.049-1.547-6.11-3.423-9.443-7.166c-1.958-2.195-7.903,4.091-8.83,8.475c-0.428,2.003,0.381,2.952,1.644,4.744
		c3.238,4.582,13.657,12.73,28.758,13.828c4.166,0.306,15.007,0.546,22.323-6.035c2.958-2.646,6.184-7.049,7.302-12.293
		c0.762-3.635,0.709-8.38-2.223-12.711c-4.111-6.088-10.963-10.118-18.574-13.581c-11.1-5.053-8.959-8.039-6.477-9.415
		c2.331-1.308,10.228-0.389,16.419,5.291c3.136,2.877,9.641-6.055,6.941-9.095C521.977,106.5,505.191,105.457,496.328,110.033"/>
	<path id="XMLID_315_" style="fill:#1F1F1F;" d="M268.148,110.803c-6.187,19.357-32.584,63.615-42.89,67.855
		c-1.459,0.601-1.752,0.77-3.266,0.565c-5.475-0.762-12.297-7.61-14.488-10.138c-0.979-1.118-3.086-3.694-1.391-5.06
		c6.439-5.133,14.435-12.968,14.816-17.563c0.085-1.002-0.229-2.06-0.601-2.557c-0.599-0.798-17.329-22.843-19.012-25.188
		c-2.847-4.03-2.833-4.977,0.323-6.511c3.153-1.548,8.176-3.647,11.694-5.012c3.525-1.343,4.063-0.395,5.056,0.717l14.996,18.858
		c1.081,0.737,2.06,0.532,2.847-0.395c1.915-2.257,10.013-16.876,11.283-19.18c1.493-2.557,3.958-1.854,6.436-1.868
		c2.632-0.02,6.703,0.014,10.965,0.218C269.014,105.757,269.389,106.91,268.148,110.803"/>
	<path id="XMLID_313_" style="fill:#1F1F1F;" d="M275.651,115.405c-6.75,4.201-9.961,9.478-10.115,16.582
		c-0.218,9.594,13.076,15.948,16.414,17.385c4.005,1.726,4.571,3.785,3.853,5.332c-1.046,2.304-3.432,2.726-6.235,2.162
		c-5.082-1.043-9.048-5.489-13.046-7.726c-2.264-1.241-5.602,3.068-6.088,6.949c-0.226,1.758,0.32,2.747,1.779,3.988
		c3.743,3.252,11.457,10.841,26.761,11.517c3.638,0.157,13.092-0.566,18.968-6.77c2.383-2.516,4.878-5.843,5.465-10.48
		c0.395-3.191-0.34-7.084-2.86-10.888c-2.107-3.177-5.956-6.355-12.7-9.156c-10.94-4.5-7.484-9.042-4.888-9.893
		c2.223-0.736,6.115-0.163,12.59,3.73c3.511,2.113,8.159-6.184,5.263-8.264C296.29,109.412,283.033,110.823,275.651,115.405"/>
	<path id="XMLID_308_" style="fill:#1F1F1F;" d="M99.103,104.925c23.745-0.184,31.773-0.642,53.193-4.158
		c4.828-0.798,5.224,1.602,6.013,3.144c0.654,1.282,1.912,7.977,1.827,9.696c-0.089,1.704,0.764,4.199-2.127,5.012
		c-9.02,2.516-11.384,3.3-17.373,5.073c-2.766,0.831-2.591,1.991-2.513,4.105c0.425,11.727,4.329,27.232,7.093,35.897
		c1.165,3.655,1.688,6.259-0.866,7.227c-3.548,1.302-13.442,3.989-16.094,4.543c-4.593,0.96-5.257-2.408-5.689-4.133
		c-3.897-15.599-5.829-31.486-6.209-37.425c-0.195-3.027-1.186-5.864-4.033-5.788c-2.929,0.055-6.201,0.416-12.57,0.532
		c-3.406,0.075-5.209-0.136-5.663-3.048c-0.458-2.933-0.331-16.188,0.169-18.247C94.767,105.266,97.18,104.946,99.103,104.925"/>
</g>
<g id="Layer_1">
</g>
</svg>
