<?xml version="1.0" encoding="iso-8859-1"?>
<!-- Generator: Adobe Illustrator 19.0.0, SVG Export Plug-In . SVG Version: 6.00 Build 0)  -->
<svg version="1.1" xmlns="http://www.w3.org/2000/svg" xmlns:xlink="http://www.w3.org/1999/xlink" x="0px" y="0px"
	 viewBox="0 0 630 276.585" style="enable-background:new 0 0 630 276.585;" xml:space="preserve">
<g id="wilson">
	<g id="layer1_1_" transform="translate(374.28571,-360.93362)">
		<path id="path117" style="fill:#1F1F1F;" d="M-229.258,442.787h-36.264v16.398h10.672v49.679c0,0,0,31.049,32.806,31.049
			c0,0,13.907,0.26,22.106-11.183c0,0,6.963,11.183,20.117,11.183c0,0,12.448,1.255,20.879-6.452c0,0,17.412-11.676,17.142-47.708
			c0,0-0.502-27.061-6.954-42.967h-29.859v16.398h8.989c0,0,4.732,13.414,4.732,30.557c0,0,0.521,10.272-4.732,21.112
			c0,0-3.207,7.716-10.198,7.716c0,0-6.191-0.26-5.959-7.716v-68.067h-36.264v16.398h10.691v50.45c0,0,0,8.934-8.934,8.934
			c0,0-8.971-0.009-8.971-8.934V442.787"/>
		<path id="path121" style="fill:#1F1F1F;" d="M-119.127,450.178c0,0,15.078,0,15.078,11.676c0,0,0.065,11.676-15.078,11.676
			c0,0-15.171,0-15.171-11.676C-134.298,461.854-134.41,450.178-119.127,450.178"/>
		<path id="path125" style="fill:#1F1F1F;" d="M-137.077,475.584h29.543v39.137c0,0,0,4.471,4.118,4.471
			c0,0,5.094-0.614,8.069-5.485c0,0,4.481-5.708,4.481-10.421v-47.318c0,0,0.614-17.142,23.584-17.142
			c0,0,22.869-0.744,22.869,21.483c0,0,1.264,10.421-7.195,25.341c0,0-3.728,6.944-7.967,13.294c0,0-3.096,4.815-6.08,9.055
			c0,0-2.361,2.621-2.361,5.977c0,0-0.26,5.587,5.717,5.587c0,0,5.224-0.121,9.305-4.602c0,0,6.108-5.708,9.324-14.892
			c0,0,5.094-11.072,5.336-24.486h21.744c0,0,0.112,2.101,0.753,4.351c0,0,0.744,3.347,5.104,9.324c0,0,6.08,8.692,7.948,11.918
			c0,0,4.583,6.823,4.583,15.413c0,0-0.121,8.562-6.108,14.521c0,0-6.693,8.339-16.501,8.339c0,0-6.833,0-12.912-3.375
			c0,0-7.465-3.979-10.691-8.45c0,0-0.344-0.493-1.218-0.493l-1.209,0.53c0,0-4.425,4.695-9.12,7.288c0,0-6.219,4.499-15.274,4.499
			c0,0-8.218,0-13.173-4.741c0,0-4.351-3.598-5.224-7.827l-0.92-0.706l-1.069,0.66c0,0-3.849,4.537-8.701,7.874
			c0,0-5.215,4.741-14.409,4.741c0,0-8.32,0.112-12.68-4.351c0,0-4.825-4.239-4.825-10.681v-34.424c0,0,0.232-3.235-4.843-3.235
			V475.584z M-34.596,509.125c-0.995,2.556-2.371,5.345-2.371,5.345l-0.483,1.543c0.112,0.855,0.548,1.627,0.548,1.627
			c1.116,1.822,2.742,2.807,2.742,2.807c1.683,1.348,4.481,1.348,4.481,1.348c3.384,0,5.011-2.659,5.011-2.659
			c1.692-2.315,1.692-4.853,1.692-4.853c0-1.673-1.246-3.969-1.246-3.969c-0.948-1.989-2.854-5.587-2.854-5.587
			c-1.134-1.859-2.231-4.22-2.231-4.22c-0.539-1.385-1.041-1.19-1.041-1.19l-0.958,1.432
			C-33.09,505.713-34.596,509.125-34.596,509.125z M-67.719,486.982l1.004-1.143c4.239-6.098,7.4-17.449,7.4-17.449
			c0.985-3.151,1.097-7.53,1.097-7.53c0-2.798-1.097-5.522-1.097-5.522c-1.339-2.724-3.291-2.677-3.291-2.677
			c-2.519,0-4.416,3.375-4.416,3.375c-1.748,2.873-1.748,7.995-1.748,7.995v20.982C-68.769,487.939-67.719,486.982-67.719,486.982"
			/>
		<path id="path129" style="fill:#1F1F1F;" d="M3.416,506.885c0,0,0.483-15.404,9.687-23.343c0,0,8.943-8.962,23.231-8.962
			c0,0,14.279,0.13,21.995,8.078c0,0,2.361,2.231,3.607,4.1c0,0,0.874,0.995,1.608,0.121c0,0,4.602-5.336,7.567-7.316
			c0,0,6.089-5.094,12.912-5.094c0,0,5.615-0.139,8.701,2.854c0,0,3.746,3.114,5.615,6.963c0,0,0.985,1.608,2.463,0.121
			c0,0,3.105-3.375,6.712-5.838c0,0,5.829-4.481,14.056-4.481c0,0,7.316,0.242,10.784,3.718c0,0,6.08,4.853,6.08,11.574v34.535
			c0,0,0,4.211,3.737,4.323h3.737v10.691h-20.024c0,0-12.029-0.13-12.029-13.284v-24.728c0,0,0-5.215-6.461-5.215
			c0,0-7.214,0.139-7.214,6.098v37.129H75.601v-38.133c0,0-0.139-3.598-2.984-3.598c0,0-2.612,0.372-4.109,2.25
			c0,0-1.218,1.106-0.614,2.845c0,0,0.493,2.603,0.493,5.596c0,0,0.121,14.019-8.794,22.227c0,0-8.711,9.324-23.138,9.324
			c0,0-14.279,0-22.478-8.199C13.976,531.241,3.416,522.679,3.416,506.885z M35.971,522.763c0,0,4.09,0.186,5.578-2.975
			c0,0,1.729-3.365,2.129-12.801v-0.102c-0.4-9.436-2.129-12.782-2.129-12.782c-1.487-3.17-5.578-2.975-5.578-2.975H35.85
			c0,0-4.109-0.195-5.606,2.975c0,0-1.729,3.347-2.12,12.782v0.102c0.39,9.436,2.12,12.801,2.12,12.801
			c1.497,3.161,5.606,2.975,5.606,2.975H35.971"/>
		<path id="path133" style="fill:#1F1F1F;" d="M156.71,528.117c1.478,0,2.733,0.511,3.765,1.562c1.05,1.032,1.552,2.278,1.552,3.746
			c0,1.487-0.502,2.742-1.552,3.784c-1.023,1.032-2.278,1.543-3.765,1.543c-1.469,0-2.733-0.511-3.746-1.543
			c-1.023-1.041-1.525-2.296-1.525-3.784c0-1.469,0.502-2.714,1.525-3.746C154.005,528.628,155.26,528.117,156.71,528.117z
			 M162.91,533.425c0-1.701-0.604-3.161-1.794-4.351c-1.227-1.199-2.668-1.803-4.379-1.803c-1.701,0-3.161,0.604-4.341,1.803
			c-1.208,1.208-1.822,2.649-1.822,4.351c0,1.711,0.614,3.151,1.803,4.36c1.19,1.208,2.649,1.813,4.36,1.813
			s3.151-0.604,4.379-1.813C162.306,536.577,162.91,535.136,162.91,533.425z M158.383,532.096l-0.697,1.023l-1.153,0.177h-1.106
			v-2.436h1.032l1.478,0.251L158.383,532.096z M154.256,530.004v6.777h1.171v-2.659h0.948l1.348,0.214l0.651,1.543v0.539
			l0.009,0.232l0.019,0.065l0.019,0.065h1.106l-0.028-0.074l-0.074-0.363v-0.511v-0.493l-0.381-1.032l-1.143-0.669l0.976-0.316
			l0.651-1.348c0-0.846-0.363-1.422-1.05-1.71c-0.39-0.158-1.004-0.26-1.869-0.26H154.256"/>
	</g>
</g>
<g id="Layer_1">
</g>
</svg>
